<svg width="35" height="36" viewBox="0 0 35 36" fill="none" xmlns="http://www.w3.org/2000/svg">
<path d="M5.25003 27.4528V26.5568C5.31233 25.6608 5.25003 24.7329 5.43675 23.8688C5.80999 22.2366 7.0545 21.1807 8.70335 21.0846C10.1656 21.0206 11.5967 21.0527 13.0588 21.0527C13.3699 21.0527 13.7121 21.0527 14.0233 20.9886C14.8633 20.8287 15.3299 20.3167 15.5477 19.4845C15.8898 18.1725 15.6721 16.9246 15.0188 15.7724C14.5832 15.0364 14.0854 14.3005 13.5877 13.6285C12.3121 11.9325 12.1877 10.0765 12.9655 8.15647C13.5567 6.62045 14.8323 5.82048 16.3877 5.50044C17.5076 5.27645 18.5967 5.43636 19.6233 5.88435C22.5477 7.16446 22.9832 11.1645 21.4588 13.3086C20.8678 14.1726 20.2455 15.0367 19.7166 15.9326C19.1567 16.8927 18.9699 17.9486 19.1567 19.0366C19.4055 20.4766 20.1522 21.0845 21.5522 21.0525C22.5789 21.0206 23.6366 20.9884 24.6633 20.9884C25.2543 20.9884 25.8766 20.9884 26.4366 21.0845C28.1477 21.4045 29.2366 22.5564 29.4233 24.3484C29.5166 25.3085 29.4856 26.3005 29.4856 27.2925C29.4856 27.3244 29.4545 27.3566 29.4545 27.4204C21.4275 27.4528 13.37 27.4528 5.25 27.4528L5.25003 27.4528Z" fill="#D1D5D9"/>
<path d="M28.3655 28.3167C28.3655 28.6687 28.3966 29.0207 28.3655 29.3406C28.3032 29.9485 27.8989 30.3007 27.2767 30.3007H18.7832H7.67668C6.77453 30.3007 6.43213 29.9487 6.43213 29.0527V28.3488C13.7431 28.3167 21.0231 28.3167 28.3656 28.3167L28.3655 28.3167Z" fill="#D1D5D9"/>
</svg>
