<svg width="92" height="48" viewBox="0 0 92 48" fill="none" xmlns="http://www.w3.org/2000/svg">
<rect x="1" y="1" width="90" height="46" rx="22" fill="white"/>
<path d="M23.072 16.728C22.6667 16.728 22.2453 16.7707 21.808 16.856C21.3707 16.9307 20.9547 17.0587 20.56 17.24C20.176 17.4107 19.8293 17.64 19.52 17.928C19.2107 18.216 18.976 18.5733 18.816 19C18.7627 19.1707 18.7147 19.3413 18.672 19.512C18.64 19.6827 18.624 19.8587 18.624 20.04C18.624 20.232 18.6667 20.4347 18.752 20.648C18.8373 20.8613 18.9387 21.048 19.056 21.208C19.3227 21.5813 19.632 21.88 19.984 22.104C20.3467 22.328 20.7307 22.4987 21.136 22.616C21.5413 22.7333 21.9627 22.808 22.4 22.84C22.8373 22.872 23.264 22.888 23.68 22.888C24.192 22.888 24.7147 22.8453 25.248 22.76C25.792 22.664 26.2827 22.4987 26.72 22.264C27.168 22.0187 27.5307 21.6933 27.808 21.288C28.096 20.8827 28.24 20.3653 28.24 19.736C28.24 19.5547 28.2133 19.3733 28.16 19.192C28.1173 19.0107 28.0533 18.8347 27.968 18.664C27.7973 18.3013 27.5573 17.9867 27.248 17.72C26.992 17.5173 26.688 17.352 26.336 17.224C25.9947 17.096 25.632 16.9947 25.248 16.92C24.8747 16.8453 24.496 16.7973 24.112 16.776C23.7387 16.744 23.392 16.728 23.072 16.728ZM22.928 18.136C23.152 18.136 23.4187 18.1467 23.728 18.168C24.0373 18.1893 24.3467 18.2267 24.656 18.28C24.9653 18.3227 25.2587 18.392 25.536 18.488C25.824 18.584 26.0587 18.7013 26.24 18.84C26.3253 18.904 26.3947 18.984 26.448 19.08C26.512 19.1653 26.5707 19.256 26.624 19.352C26.656 19.4373 26.6827 19.528 26.704 19.624C26.736 19.7093 26.752 19.8 26.752 19.896C26.752 20.056 26.7253 20.2213 26.672 20.392C26.6293 20.552 26.5493 20.696 26.432 20.824C26.304 20.952 26.128 21.0587 25.904 21.144C25.6907 21.2293 25.456 21.2987 25.2 21.352C24.944 21.3947 24.688 21.4267 24.432 21.448C24.1867 21.4693 23.9787 21.48 23.808 21.48C23.52 21.48 23.2107 21.4747 22.88 21.464C22.56 21.4427 22.24 21.4 21.92 21.336C21.6107 21.2613 21.3173 21.1493 21.04 21C20.7627 20.8507 20.528 20.648 20.336 20.392C20.2933 20.3387 20.24 20.2587 20.176 20.152C20.1227 20.0347 20.096 19.944 20.096 19.88C20.096 19.7307 20.128 19.5653 20.192 19.384C20.256 19.2027 20.336 19.0533 20.432 18.936C20.4853 18.8613 20.544 18.8027 20.608 18.76C20.6827 18.7173 20.7627 18.6693 20.848 18.616C21.1893 18.424 21.52 18.296 21.84 18.232C22.1707 18.168 22.5333 18.136 22.928 18.136ZM23.168 27.832C23.168 28.024 23.232 28.1787 23.36 28.296C23.4987 28.4133 23.6587 28.472 23.84 28.472C24.0213 28.472 24.192 28.408 24.352 28.28C24.512 28.152 24.608 27.9973 24.64 27.816C24.6613 27.7307 24.6667 27.64 24.656 27.544C24.656 27.448 24.656 27.3573 24.656 27.272C24.6667 26.9733 24.672 26.6693 24.672 26.36C24.672 26.04 24.672 25.7307 24.672 25.432H24.88L27.904 25.464H29.408C29.6213 25.464 29.808 25.3893 29.968 25.24C30.128 25.0907 30.208 24.9093 30.208 24.696C30.208 24.4187 30.0693 24.2213 29.792 24.104C29.76 24.0933 29.6533 24.0827 29.472 24.072C29.2907 24.0613 29.072 24.056 28.816 24.056C28.5707 24.0453 28.2987 24.04 28 24.04C27.7013 24.0293 27.4187 24.024 27.152 24.024C26.8853 24.024 26.6507 24.024 26.448 24.024C26.2453 24.024 26.112 24.024 26.048 24.024H24.4L21.088 24.04H19.424C19.0827 24.04 18.736 24.0347 18.384 24.024C18.032 24.0133 17.6853 24.0187 17.344 24.04C17.2587 24.04 17.184 24.056 17.12 24.088C16.9707 24.1413 16.8427 24.232 16.736 24.36C16.6293 24.488 16.576 24.6373 16.576 24.808C16.576 24.9893 16.6187 25.128 16.704 25.224C16.7893 25.3093 16.896 25.368 17.024 25.4C17.152 25.432 17.2907 25.448 17.44 25.448C17.5893 25.448 17.7227 25.448 17.84 25.448H19.216L22 25.432H23.184C23.1733 25.8267 23.168 26.2267 23.168 26.632C23.168 27.0373 23.168 27.4373 23.168 27.832ZM18.96 28.936C18.96 29.1067 18.96 29.272 18.96 29.432C18.9707 29.6027 18.9973 29.7733 19.04 29.944C19.168 30.456 19.4347 30.808 19.84 31C20.256 31.2027 20.72 31.304 21.232 31.304C22.288 31.304 23.3387 31.288 24.384 31.256C25.4293 31.2347 26.48 31.224 27.536 31.224C27.632 31.224 27.728 31.2187 27.824 31.208C27.92 31.208 28.0107 31.192 28.096 31.16C28.2453 31.1067 28.368 31.016 28.464 30.888C28.56 30.76 28.608 30.616 28.608 30.456C28.608 30.264 28.5387 30.1093 28.4 29.992C28.272 29.8747 28.1173 29.816 27.936 29.816C26.8373 29.816 25.7387 29.832 24.64 29.864C23.552 29.896 22.4587 29.912 21.36 29.912C21.2747 29.912 21.1787 29.9067 21.072 29.896C20.976 29.896 20.8853 29.88 20.8 29.848C20.6507 29.7733 20.5547 29.6773 20.512 29.56C20.48 29.4853 20.4587 29.3573 20.448 29.176C20.4373 28.9947 20.432 28.8027 20.432 28.6C20.432 28.3867 20.432 28.184 20.432 27.992C20.4427 27.8 20.448 27.6453 20.448 27.528C20.448 27.4 20.4427 27.2773 20.432 27.16C20.4213 27.032 20.3893 26.9253 20.336 26.84C20.2933 26.744 20.224 26.6693 20.128 26.616C20.0427 26.552 19.92 26.52 19.76 26.52C19.5147 26.52 19.3173 26.6053 19.168 26.776C19.0187 26.9467 18.944 27.1493 18.944 27.384L18.96 28.936ZM41.7409 16.952H34.3809C34.1782 16.952 33.9915 17.0267 33.8209 17.176C33.6609 17.3253 33.5809 17.5067 33.5809 17.72C33.5809 17.8907 33.5862 18.0613 33.5969 18.232C33.6075 18.392 33.6182 18.552 33.6289 18.712C33.6502 19.0533 33.6609 19.3893 33.6609 19.72C33.6715 20.04 33.6875 20.3653 33.7089 20.696C33.7089 20.7813 33.7089 20.8933 33.7089 21.032C33.7195 21.16 33.7249 21.2933 33.7249 21.432C33.7355 21.5707 33.7515 21.704 33.7729 21.832C33.7942 21.9493 33.8209 22.04 33.8529 22.104C33.9062 22.2107 33.9702 22.296 34.0449 22.36C34.1302 22.4133 34.2262 22.4667 34.3329 22.52C34.4715 22.5733 34.6582 22.616 34.8929 22.648C35.1275 22.68 35.3729 22.7067 35.6289 22.728C35.8955 22.7387 36.1515 22.744 36.3969 22.744C36.6422 22.744 36.8449 22.744 37.0049 22.744H37.0849L37.1169 23.976C36.9569 23.976 36.7969 23.9813 36.6369 23.992C36.4875 23.992 36.3329 23.992 36.1729 23.992C35.7142 24.0027 35.2555 24.0133 34.7969 24.024C34.3489 24.024 33.9009 24.0293 33.4529 24.04C33.2609 24.04 33.0635 24.04 32.8609 24.04C32.6689 24.0293 32.4769 24.0293 32.2849 24.04C32.0502 24.0613 31.8369 24.1253 31.6449 24.232C31.4635 24.3387 31.3729 24.5307 31.3729 24.808C31.3729 25 31.4369 25.1547 31.5649 25.272C31.7035 25.3893 31.8635 25.448 32.0449 25.448C33.4102 25.448 34.7649 25.432 36.1089 25.4C37.4635 25.368 38.8235 25.336 40.1889 25.304C40.6475 25.2933 41.1009 25.288 41.5489 25.288C42.0075 25.2773 42.4609 25.2667 42.9089 25.256C43.1009 25.256 43.2929 25.2613 43.4849 25.272C43.6875 25.272 43.8849 25.2667 44.0769 25.256C44.3115 25.2347 44.5195 25.1707 44.7009 25.064C44.8929 24.9467 44.9889 24.7547 44.9889 24.488C44.9889 24.296 44.9195 24.1413 44.7809 24.024C44.6529 23.9067 44.4982 23.848 44.3169 23.848C43.3462 23.848 42.3862 23.8587 41.4369 23.88C40.4982 23.8907 39.5489 23.9067 38.5889 23.928V22.728C38.9729 22.728 39.3782 22.7227 39.8049 22.712C40.2422 22.7013 40.6475 22.6907 41.0209 22.68C41.3942 22.6587 41.7195 22.6427 41.9969 22.632C42.2742 22.6107 42.4449 22.584 42.5089 22.552C42.6582 22.4987 42.7809 22.408 42.8769 22.28C42.9729 22.152 43.0209 22.008 43.0209 21.848C43.0209 21.656 42.9515 21.5013 42.8129 21.384C42.6849 21.2667 42.5302 21.208 42.3489 21.208C42.0929 21.208 41.8369 21.2187 41.5809 21.24C41.3249 21.2507 41.0742 21.2613 40.8289 21.272C40.2102 21.2933 39.5915 21.3147 38.9729 21.336C38.3649 21.3467 37.7515 21.352 37.1329 21.352C37.0795 21.352 36.9515 21.352 36.7489 21.352C36.5569 21.3413 36.3489 21.336 36.1249 21.336C35.9009 21.3253 35.6929 21.3147 35.5009 21.304C35.3195 21.2827 35.2235 21.2613 35.2129 21.24C35.1702 20.76 35.1435 20.28 35.1329 19.8C35.1329 19.32 35.1222 18.84 35.1009 18.36H36.5569L39.4529 18.376H40.9089C41.0262 18.376 41.1862 18.376 41.3889 18.376C41.6022 18.376 41.7622 18.3547 41.8689 18.312C42.0182 18.2587 42.1462 18.168 42.2529 18.04C42.3595 17.912 42.4129 17.7627 42.4129 17.592C42.4129 17.4 42.3435 17.2453 42.2049 17.128C42.0769 17.0107 41.9222 16.952 41.7409 16.952ZM33.5009 28.904C33.5009 29.4693 33.6609 29.928 33.9809 30.28C34.3009 30.632 34.6955 30.9093 35.1649 31.112C35.6342 31.3147 36.1355 31.4533 36.6689 31.528C37.2022 31.6027 37.6875 31.64 38.1249 31.64C38.5302 31.64 38.9302 31.6133 39.3249 31.56C39.7195 31.5067 40.1142 31.432 40.5089 31.336C40.7862 31.272 41.0529 31.192 41.3089 31.096C41.5755 31.0107 41.8262 30.8987 42.0609 30.76C42.2955 30.6213 42.5035 30.4507 42.6849 30.248C42.8769 30.056 43.0369 29.8213 43.1649 29.544C43.3355 29.1707 43.4209 28.792 43.4209 28.408C43.4209 28.2267 43.3835 28.0507 43.3089 27.88C43.2449 27.6987 43.1595 27.5333 43.0529 27.384C42.8395 27.096 42.5729 26.8667 42.2529 26.696C41.9329 26.5147 41.5915 26.376 41.2289 26.28C40.8769 26.184 40.5142 26.12 40.1409 26.088C39.7675 26.056 39.4155 26.04 39.0849 26.04C38.6475 26.04 38.1889 26.0507 37.7089 26.072C37.2289 26.0933 36.7595 26.1573 36.3009 26.264C35.8422 26.3707 35.4102 26.536 35.0049 26.76C34.5995 26.9733 34.2529 27.272 33.9649 27.656C33.8262 27.8373 33.7142 28.0347 33.6289 28.248C33.5435 28.4507 33.5009 28.6693 33.5009 28.904ZM41.9329 28.568C41.9329 28.728 41.9009 28.888 41.8369 29.048C41.7835 29.208 41.6982 29.3467 41.5809 29.464C41.4422 29.592 41.2289 29.704 40.9409 29.8C40.6529 29.896 40.3382 29.976 39.9969 30.04C39.6662 30.104 39.3409 30.152 39.0209 30.184C38.7009 30.216 38.4449 30.232 38.2529 30.232C38.0289 30.232 37.7302 30.216 37.3569 30.184C36.9942 30.152 36.6315 30.0827 36.2689 29.976C35.9169 29.8693 35.6129 29.72 35.3569 29.528C35.1009 29.336 34.9729 29.0853 34.9729 28.776C34.9729 28.6693 34.9995 28.5733 35.0529 28.488C35.1169 28.4027 35.1862 28.3227 35.2609 28.248C35.4529 28.0453 35.6929 27.8907 35.9809 27.784C36.2689 27.6773 36.5729 27.5973 36.8929 27.544C37.2129 27.4907 37.5329 27.4587 37.8529 27.448C38.1729 27.4373 38.4662 27.432 38.7329 27.432C38.9462 27.432 39.1915 27.4373 39.4689 27.448C39.7569 27.4587 40.0395 27.4907 40.3169 27.544C40.6049 27.5867 40.8715 27.6613 41.1169 27.768C41.3729 27.864 41.5809 27.9973 41.7409 28.168C41.7942 28.2213 41.8369 28.2853 41.8689 28.36C41.9115 28.424 41.9329 28.4933 41.9329 28.568ZM53.0658 20.552C53.2258 20.552 53.3858 20.5573 53.5458 20.568C53.7164 20.5787 53.8871 20.584 54.0578 20.584C54.2604 20.584 54.4418 20.5093 54.6018 20.36C54.7724 20.2107 54.8578 20.0293 54.8578 19.816C54.8578 19.56 54.7351 19.368 54.4898 19.24C54.4364 19.2187 54.3031 19.2027 54.0898 19.192C53.8871 19.1707 53.6311 19.16 53.3218 19.16C53.0124 19.1493 52.6711 19.144 52.2978 19.144C51.9244 19.1333 51.5458 19.128 51.1618 19.128C51.1511 18.9787 51.1404 18.8293 51.1298 18.68C51.1191 18.52 51.1084 18.3653 51.0978 18.216L51.0498 17.544C51.0498 17.48 51.0498 17.416 51.0498 17.352C51.0498 17.2773 51.0391 17.2027 51.0178 17.128C50.9858 16.9787 50.9058 16.8613 50.7778 16.776C50.6498 16.6907 50.5111 16.648 50.3618 16.648C50.1591 16.648 49.9724 16.7227 49.8018 16.872C49.6418 17.0213 49.5618 17.2027 49.5618 17.416C49.5618 17.6507 49.5671 17.8853 49.5778 18.12C49.5991 18.3547 49.6204 18.5893 49.6418 18.824C49.6418 18.8667 49.6418 18.9147 49.6418 18.968C49.6524 19.0213 49.6578 19.0747 49.6578 19.128H48.4578H47.1458C46.9004 19.128 46.6764 19.1867 46.4738 19.304C46.2711 19.4213 46.1698 19.6187 46.1698 19.896C46.1698 20.0453 46.2018 20.1627 46.2658 20.248C46.3298 20.3333 46.4098 20.3973 46.5058 20.44C46.6018 20.4827 46.7084 20.5093 46.8258 20.52C46.9431 20.5307 47.0604 20.536 47.1778 20.536H47.9938L49.6098 20.52C50.1858 20.52 50.7618 20.5253 51.3378 20.536C51.9138 20.536 52.4898 20.5413 53.0658 20.552ZM57.7698 30.424V26.376C57.7698 25.9493 57.7698 25.528 57.7698 25.112C57.7698 24.6853 57.7644 24.2587 57.7538 23.832C57.9031 23.8213 58.0471 23.816 58.1858 23.816C58.3244 23.816 58.4684 23.8107 58.6178 23.8L59.3378 23.768C59.5404 23.7573 59.7271 23.7413 59.8978 23.72C60.0684 23.688 60.2124 23.5813 60.3298 23.4C60.4151 23.2613 60.4578 23.128 60.4578 23C60.4578 22.808 60.3884 22.6533 60.2498 22.536C60.1218 22.4187 59.9671 22.36 59.7858 22.36C59.5298 22.36 59.2738 22.3653 59.0178 22.376C58.7724 22.3867 58.5218 22.3973 58.2658 22.408L57.7218 22.44C57.7004 21.768 57.6791 21.1013 57.6578 20.44C57.6364 19.768 57.5991 19.096 57.5458 18.424C57.5351 18.3067 57.5244 18.1467 57.5138 17.944C57.5138 17.7413 57.4871 17.592 57.4338 17.496C57.3164 17.2507 57.1084 17.128 56.8098 17.128C56.6071 17.128 56.4204 17.2027 56.2498 17.352C56.0898 17.4907 56.0098 17.6667 56.0098 17.88C56.0098 18.0933 56.0204 18.3067 56.0418 18.52C56.0631 18.7227 56.0844 18.9307 56.1058 19.144C56.1378 19.6133 56.1591 20.0773 56.1698 20.536C56.1911 20.9947 56.2124 21.4587 56.2338 21.928C56.2871 23.2933 56.3084 24.6587 56.2978 26.024C56.2871 27.3787 56.2871 28.7387 56.2978 30.104C56.2978 30.2 56.2924 30.296 56.2818 30.392C56.2711 30.488 56.2764 30.5787 56.2978 30.664C56.3298 30.824 56.4098 30.9467 56.5378 31.032C56.6658 31.128 56.8098 31.176 56.9698 31.176C57.1724 31.176 57.3538 31.1013 57.5138 30.952C57.6844 30.8133 57.7698 30.6373 57.7698 30.424ZM47.0018 25.128C47.0018 25.704 47.0498 26.2693 47.1458 26.824C47.2418 27.368 47.4178 27.8587 47.6738 28.296C47.9298 28.7227 48.2764 29.0693 48.7138 29.336C49.1511 29.6027 49.7111 29.736 50.3938 29.736C51.0018 29.736 51.5244 29.5973 51.9618 29.32C52.3991 29.0533 52.7564 28.7067 53.0338 28.28C53.3218 27.8427 53.5298 27.3573 53.6578 26.824C53.7964 26.2907 53.8658 25.7573 53.8658 25.224C53.8658 24.9253 53.8338 24.6 53.7698 24.248C53.7058 23.8853 53.6151 23.5653 53.4978 23.288C53.1778 22.5733 52.6924 22.0187 52.0418 21.624C51.4018 21.2187 50.6924 21.016 49.9138 21.016C49.4018 21.016 48.9591 21.1493 48.5858 21.416C48.2231 21.6827 47.9244 22.024 47.6898 22.44C47.4551 22.8453 47.2791 23.288 47.1618 23.768C47.0551 24.248 47.0018 24.7013 47.0018 25.128ZM49.7858 22.424C50.2871 22.424 50.7511 22.5627 51.1778 22.84C51.6151 23.1067 51.9298 23.4747 52.1218 23.944C52.2071 24.1573 52.2711 24.392 52.3138 24.648C52.3564 24.904 52.3778 25.1493 52.3778 25.384C52.3778 25.7893 52.3351 26.184 52.2498 26.568C52.1644 26.9413 52.0098 27.2987 51.7858 27.64C51.7324 27.7253 51.6738 27.8107 51.6098 27.896C51.5564 27.9707 51.4871 28.0347 51.4018 28.088C51.2844 28.1733 51.1458 28.2373 50.9858 28.28C50.8258 28.3227 50.6711 28.344 50.5218 28.344C50.2871 28.344 50.0578 28.312 49.8338 28.248C49.6204 28.1733 49.4284 28.056 49.2578 27.896C49.1084 27.7573 48.9804 27.5653 48.8738 27.32C48.7778 27.0747 48.6978 26.8133 48.6338 26.536C48.5804 26.2587 48.5378 25.9867 48.5058 25.72C48.4844 25.4427 48.4738 25.2027 48.4738 25C48.4738 24.808 48.4951 24.568 48.5378 24.28C48.5804 23.992 48.6498 23.7093 48.7458 23.432C48.8524 23.1547 48.9911 22.92 49.1618 22.728C49.3324 22.5253 49.5404 22.424 49.7858 22.424ZM72.0048 28.12L71.9568 29.72V30.52C71.9568 30.712 72.0208 30.8667 72.1488 30.984C72.2874 31.1013 72.4474 31.16 72.6288 31.16C72.8208 31.16 72.9861 31.096 73.1248 30.968C73.2741 30.8507 73.3754 30.696 73.4288 30.504C73.4501 30.4293 73.4554 30.3493 73.4448 30.264C73.4448 30.1787 73.4448 30.0933 73.4448 30.008C73.4448 29.5387 73.4501 29.0747 73.4608 28.616C73.4821 28.1467 73.4928 27.672 73.4928 27.192C73.4928 25.8373 73.4768 24.4933 73.4448 23.16C73.4234 21.816 73.3914 20.4667 73.3488 19.112C73.3488 19.0373 73.3488 18.92 73.3488 18.76C73.3488 18.5893 73.3434 18.4187 73.3328 18.248C73.3221 18.0667 73.3114 17.9013 73.3008 17.752C73.2901 17.6027 73.2794 17.5067 73.2688 17.464C73.2154 17.3253 73.1301 17.2187 73.0128 17.144C72.9061 17.0693 72.7781 17.032 72.6288 17.032C72.4261 17.032 72.2394 17.1067 72.0688 17.256C71.9088 17.4053 71.8288 17.5867 71.8288 17.8C71.8288 18.3333 71.8394 18.8613 71.8608 19.384C71.8821 19.9067 71.9034 20.4347 71.9248 20.968C71.9674 22.1627 71.9888 23.3573 71.9888 24.552C71.9994 25.736 72.0048 26.9253 72.0048 28.12ZM62.1328 19.224C62.6448 19.224 63.1568 19.2187 63.6688 19.208C64.1914 19.1973 64.7088 19.1813 65.2208 19.16C65.4554 19.1493 65.6848 19.1387 65.9088 19.128C66.1434 19.1173 66.3781 19.112 66.6128 19.112H66.9008C66.9541 19.112 67.0021 19.112 67.0448 19.112C67.0874 19.112 67.1354 19.1173 67.1888 19.128C67.1994 19.1707 67.2048 19.2133 67.2048 19.256C67.2154 19.288 67.2208 19.3307 67.2208 19.384C67.2208 19.6827 67.1888 19.9813 67.1248 20.28C67.0608 20.568 66.9861 20.856 66.9008 21.144C66.6128 22.1787 66.2341 23.1653 65.7648 24.104C65.3061 25.0427 64.7248 25.9227 64.0208 26.744C63.8394 26.9467 63.6528 27.144 63.4608 27.336C63.2794 27.528 63.0874 27.7147 62.8848 27.896C62.7994 27.9707 62.7088 28.04 62.6128 28.104C62.5168 28.168 62.4314 28.2427 62.3568 28.328C62.2288 28.4773 62.1648 28.6373 62.1648 28.808C62.1648 29 62.2288 29.1547 62.3568 29.272C62.4954 29.3893 62.6554 29.448 62.8368 29.448C62.9434 29.448 63.0554 29.416 63.1728 29.352C63.2901 29.2987 63.4021 29.2293 63.5088 29.144C63.6261 29.0587 63.7328 28.968 63.8288 28.872C63.9248 28.776 64.0154 28.6907 64.1008 28.616C65.1461 27.6453 66.0154 26.5467 66.7088 25.32C67.4128 24.0933 67.9514 22.7973 68.3248 21.432C68.4314 21.0693 68.5221 20.7067 68.5968 20.344C68.6714 19.9707 68.7088 19.5973 68.7088 19.224C68.7088 18.9893 68.6554 18.7387 68.5487 18.472C68.4741 18.28 68.3674 18.136 68.2288 18.04C68.1008 17.9333 67.9568 17.8587 67.7968 17.816C67.6368 17.7627 67.4661 17.7307 67.2848 17.72C67.1034 17.7093 66.9274 17.704 66.7568 17.704C66.3834 17.704 66.0101 17.7147 65.6368 17.736C65.2634 17.7573 64.8901 17.7787 64.5168 17.8H63.4288C63.3541 17.8 63.2474 17.8 63.1088 17.8C62.9701 17.8 62.8261 17.8053 62.6768 17.816C62.5381 17.816 62.3994 17.8213 62.2608 17.832C62.1328 17.8427 62.0368 17.8587 61.9728 17.88C61.8234 17.9333 61.7008 18.024 61.6048 18.152C61.5088 18.28 61.4608 18.424 61.4608 18.584C61.4608 18.776 61.5248 18.9307 61.6528 19.048C61.7914 19.1653 61.9514 19.224 62.1328 19.224Z" fill="#2A3524"/>
<rect x="1" y="1" width="90" height="46" rx="22" stroke="#5BF2AA" stroke-width="2"/>
</svg>
