<svg width="141" height="48" viewBox="0 0 141 48" fill="none" xmlns="http://www.w3.org/2000/svg">
<rect x="1" y="1" width="139" height="46" rx="22" fill="white"/>
<path d="M17.2 21.128C17.2 21.6613 17.28 22.1467 17.44 22.584C17.6 23.0107 17.8293 23.3787 18.128 23.688C18.4373 23.9973 18.8053 24.2373 19.232 24.408C19.6693 24.5787 20.1547 24.664 20.688 24.664C20.976 24.664 21.2747 24.6213 21.584 24.536C21.8933 24.4507 22.192 24.3333 22.48 24.184C22.768 24.024 23.0347 23.8373 23.28 23.624C23.5253 23.4107 23.728 23.176 23.888 22.92C24.272 22.92 24.656 22.9147 25.04 22.904C25.4347 22.8827 25.8293 22.8613 26.224 22.84C26.4053 22.84 26.5867 22.8453 26.768 22.856C26.9493 22.856 27.1307 22.8507 27.312 22.84V22.92V23.032L27.328 23.256V23.368V24.392C27.328 24.584 27.392 24.7387 27.52 24.856C27.6587 24.9733 27.8187 25.032 28 25.032C28.2773 25.032 28.48 24.936 28.608 24.744C28.7467 24.5413 28.816 24.312 28.816 24.056C28.816 23.832 28.8107 23.608 28.8 23.384C28.8 23.16 28.7947 22.9413 28.784 22.728L28.736 21.416C28.736 21.3093 28.7307 21.144 28.72 20.92C28.72 20.6853 28.72 20.424 28.72 20.136C28.72 19.848 28.7147 19.5493 28.704 19.24C28.704 18.92 28.6987 18.6267 28.688 18.36C28.688 18.0827 28.6773 17.848 28.656 17.656C28.6453 17.4533 28.6293 17.3253 28.608 17.272C28.4907 17.0053 28.2773 16.872 27.968 16.872C27.7653 16.872 27.5787 16.9467 27.408 17.096C27.248 17.2453 27.168 17.4267 27.168 17.64C27.168 17.7893 27.168 17.9333 27.168 18.072C27.1787 18.2 27.1893 18.3333 27.2 18.472C27.136 18.472 27.072 18.4773 27.008 18.488C26.944 18.488 26.8747 18.488 26.8 18.488L25.984 18.52C25.92 18.52 25.8507 18.5253 25.776 18.536C25.712 18.536 25.6427 18.536 25.568 18.536C25.2693 18.5573 24.9653 18.568 24.656 18.568C24.3573 18.5573 24.0587 18.5733 23.76 18.616C23.44 18.1253 23.0133 17.7467 22.48 17.48C21.9467 17.2027 21.3227 17.064 20.608 17.064C20.448 17.064 20.2613 17.0747 20.048 17.096C19.8453 17.1173 19.6693 17.1547 19.52 17.208C19.2853 17.2827 19.0613 17.4053 18.848 17.576C18.6347 17.736 18.432 17.9227 18.24 18.136C18.0587 18.3493 17.8987 18.5787 17.76 18.824C17.6213 19.0587 17.5147 19.288 17.44 19.512C17.3547 19.7787 17.2907 20.0453 17.248 20.312C17.216 20.5787 17.2 20.8507 17.2 21.128ZM20.464 18.472C21.2533 18.472 21.856 18.7013 22.272 19.16C22.688 19.608 22.896 20.216 22.896 20.984C22.896 21.144 22.8747 21.352 22.832 21.608C22.7893 21.8533 22.736 22.0453 22.672 22.184C22.5867 22.344 22.4747 22.4933 22.336 22.632C22.1973 22.76 22.0427 22.872 21.872 22.968C21.712 23.064 21.5413 23.1387 21.36 23.192C21.1787 23.2453 21.0027 23.272 20.832 23.272C20.1173 23.272 19.5787 23.064 19.216 22.648C18.864 22.2213 18.688 21.6667 18.688 20.984C18.688 20.5573 18.7467 20.1627 18.864 19.8C18.9813 19.4267 19.1947 19.0853 19.504 18.776C19.568 18.7227 19.6267 18.6693 19.68 18.616C19.744 18.5627 19.8187 18.5253 19.904 18.504C19.9893 18.4827 20.08 18.472 20.176 18.472C20.2827 18.472 20.3787 18.472 20.464 18.472ZM24.32 21.496C24.352 21.2933 24.368 21.0853 24.368 20.872C24.368 20.584 24.3413 20.2907 24.288 19.992C24.3627 19.992 24.432 19.992 24.496 19.992C24.56 19.9813 24.6293 19.976 24.704 19.976L25.536 19.944C25.6107 19.944 25.68 19.944 25.744 19.944C25.808 19.9333 25.8773 19.928 25.952 19.928C26.1653 19.9173 26.3787 19.912 26.592 19.912C26.8053 19.912 27.0187 19.9067 27.232 19.896L27.248 20.952V21.064L27.264 21.304V21.416C27.2 21.416 27.136 21.4213 27.072 21.432C27.008 21.432 26.9387 21.432 26.864 21.432L26.048 21.464C25.984 21.464 25.9147 21.4693 25.84 21.48C25.776 21.48 25.7067 21.48 25.632 21.48C25.4187 21.48 25.2 21.48 24.976 21.48C24.752 21.4693 24.5333 21.4747 24.32 21.496ZM18.96 28.664C18.96 29.0693 19.0293 29.4213 19.168 29.72C19.3173 30.0293 19.5147 30.2907 19.76 30.504C20.016 30.728 20.304 30.9147 20.624 31.064C20.944 31.2133 21.28 31.3307 21.632 31.416C21.984 31.5013 22.336 31.56 22.688 31.592C23.0507 31.624 23.392 31.64 23.712 31.64C24.032 31.64 24.3947 31.6133 24.8 31.56C25.216 31.5173 25.632 31.4427 26.048 31.336C26.464 31.24 26.8587 31.112 27.232 30.952C27.6053 30.8027 27.9147 30.6213 28.16 30.408C28.48 30.0987 28.7307 29.7413 28.912 29.336C29.0827 28.9627 29.168 28.5947 29.168 28.232C29.168 27.9227 29.104 27.64 28.976 27.384C28.8587 27.128 28.6987 26.8987 28.496 26.696C28.2933 26.4933 28.0587 26.3227 27.792 26.184C27.536 26.0453 27.2693 25.9333 26.992 25.848C26.6293 25.7307 26.2507 25.656 25.856 25.624C25.472 25.5813 25.088 25.56 24.704 25.56C24.2453 25.56 23.776 25.576 23.296 25.608C22.816 25.6293 22.3467 25.6987 21.888 25.816C21.4293 25.9227 20.9973 26.088 20.592 26.312C20.1867 26.5253 19.8293 26.8293 19.52 27.224C19.36 27.4267 19.2267 27.6507 19.12 27.896C19.0133 28.1413 18.96 28.3973 18.96 28.664ZM24.56 26.952C24.784 26.952 25.024 26.9627 25.28 26.984C25.536 26.9947 25.792 27.032 26.048 27.096C26.304 27.1493 26.5493 27.2293 26.784 27.336C27.0187 27.432 27.216 27.56 27.376 27.72C27.472 27.816 27.5467 27.912 27.6 28.008C27.6533 28.0933 27.68 28.2107 27.68 28.36C27.68 28.5413 27.6373 28.7333 27.552 28.936C27.4667 29.1387 27.3547 29.2987 27.216 29.416C27.056 29.5547 26.832 29.672 26.544 29.768C26.256 29.8747 25.9467 29.96 25.616 30.024C25.2853 30.0987 24.96 30.152 24.64 30.184C24.32 30.216 24.0587 30.232 23.856 30.232C23.5893 30.232 23.2587 30.2107 22.864 30.168C22.48 30.136 22.1067 30.0613 21.744 29.944C21.392 29.8267 21.088 29.656 20.832 29.432C20.576 29.208 20.448 28.9093 20.448 28.536C20.448 28.408 20.48 28.2907 20.544 28.184C20.6187 28.0667 20.6987 27.96 20.784 27.864C20.9973 27.6293 21.2587 27.4533 21.568 27.336C21.8773 27.208 22.2027 27.1173 22.544 27.064C22.896 27.0107 23.2427 26.9787 23.584 26.968C23.936 26.9573 24.2613 26.952 24.56 26.952ZM42.203 25.032C42.4057 25.032 42.587 24.9573 42.747 24.808C42.9177 24.6587 43.003 24.4773 43.003 24.264C43.003 24.1147 42.9977 23.9653 42.987 23.816C42.9763 23.656 42.9657 23.5013 42.955 23.352C42.955 23.2987 42.9497 23.2453 42.939 23.192C42.939 23.128 42.939 23.0533 42.939 22.968C43.0243 22.9573 43.099 22.952 43.163 22.952C43.2377 22.952 43.3017 22.952 43.355 22.952H43.755L44.571 22.968H44.971C45.1737 22.968 45.355 22.8933 45.515 22.744C45.6857 22.5947 45.771 22.4133 45.771 22.2C45.771 22.04 45.7177 21.9013 45.611 21.784C45.515 21.6667 45.387 21.5973 45.227 21.576C45.0777 21.5547 44.8803 21.5493 44.635 21.56C44.4003 21.56 44.2083 21.56 44.059 21.56H43.659L42.891 21.544C42.8803 21.3627 42.8697 21.176 42.859 20.984C42.859 20.792 42.8537 20.6 42.843 20.408C42.939 20.408 43.0297 20.408 43.115 20.408C43.211 20.3973 43.291 20.392 43.355 20.392H43.755L44.571 20.408H44.971C45.1737 20.408 45.355 20.3333 45.515 20.184C45.6857 20.0347 45.771 19.8533 45.771 19.64C45.771 19.48 45.7177 19.3413 45.611 19.224C45.515 19.1067 45.387 19.0373 45.227 19.016C45.0777 18.9947 44.8803 18.9893 44.635 19C44.4003 19 44.2083 19 44.059 19H43.659L42.843 18.984H42.795C42.7737 18.5253 42.747 18.136 42.715 17.816C42.6937 17.4853 42.667 17.2933 42.635 17.24C42.507 16.984 42.299 16.856 42.011 16.856C41.8083 16.856 41.6217 16.9307 41.451 17.08C41.291 17.2293 41.211 17.4107 41.211 17.624C41.211 17.7627 41.2163 17.9013 41.227 18.04C41.2377 18.168 41.2483 18.3013 41.259 18.44C41.2803 18.6853 41.2963 18.9307 41.307 19.176C41.3177 19.4107 41.3283 19.6507 41.339 19.896C41.339 20.0027 41.3443 20.1893 41.355 20.456C41.3657 20.7227 41.3763 21.0267 41.387 21.368C41.3977 21.6987 41.4083 22.0507 41.419 22.424C41.4297 22.7867 41.4403 23.128 41.451 23.448C41.4723 23.7573 41.4883 24.024 41.499 24.248C41.5203 24.4613 41.5417 24.5893 41.563 24.632C41.691 24.8987 41.9043 25.032 42.203 25.032ZM31.755 21.128C31.755 21.6613 31.835 22.1467 31.995 22.584C32.155 23.0107 32.3843 23.3787 32.683 23.688C32.9923 23.9973 33.3603 24.2373 33.787 24.408C34.2243 24.5787 34.7097 24.664 35.243 24.664C35.563 24.664 35.8883 24.616 36.219 24.52C36.5497 24.424 36.8643 24.2907 37.163 24.12C37.4617 23.9387 37.7337 23.7253 37.979 23.48C38.2243 23.2347 38.4163 22.968 38.555 22.68C38.6723 22.4133 38.763 22.12 38.827 21.8C38.891 21.4693 38.923 21.16 38.923 20.872C38.923 20.296 38.8323 19.7733 38.651 19.304C38.4803 18.8347 38.2297 18.4347 37.899 18.104C37.579 17.7733 37.1843 17.5173 36.715 17.336C36.2563 17.1547 35.739 17.064 35.163 17.064C35.003 17.064 34.8163 17.0747 34.603 17.096C34.4003 17.1173 34.2243 17.1547 34.075 17.208C33.8403 17.2827 33.6163 17.4053 33.403 17.576C33.1897 17.736 32.987 17.9227 32.795 18.136C32.6137 18.3493 32.4537 18.5787 32.315 18.824C32.1763 19.0587 32.0697 19.288 31.995 19.512C31.9097 19.7787 31.8457 20.0453 31.803 20.312C31.771 20.5787 31.755 20.8507 31.755 21.128ZM35.019 18.472C35.8083 18.472 36.411 18.7013 36.827 19.16C37.243 19.608 37.451 20.216 37.451 20.984C37.451 21.144 37.4297 21.352 37.387 21.608C37.3443 21.8533 37.291 22.0453 37.227 22.184C37.1417 22.344 37.0297 22.4933 36.891 22.632C36.7523 22.76 36.5977 22.872 36.427 22.968C36.267 23.064 36.0963 23.1387 35.915 23.192C35.7337 23.2453 35.5577 23.272 35.387 23.272C34.6723 23.272 34.1337 23.064 33.771 22.648C33.419 22.2213 33.243 21.6667 33.243 20.984C33.243 20.5573 33.3017 20.1627 33.419 19.8C33.5363 19.4267 33.7497 19.0853 34.059 18.776C34.123 18.7227 34.1817 18.6693 34.235 18.616C34.299 18.5627 34.3737 18.5253 34.459 18.504C34.5443 18.4827 34.635 18.472 34.731 18.472C34.8377 18.472 34.9337 18.472 35.019 18.472ZM33.195 28.712C33.195 29.1387 33.3123 29.5547 33.547 29.96C33.7603 30.312 34.0377 30.5947 34.379 30.808C34.731 31.032 35.1097 31.2027 35.515 31.32C35.9203 31.448 36.331 31.5333 36.747 31.576C37.1737 31.6187 37.5737 31.64 37.947 31.64C38.267 31.64 38.6297 31.6133 39.035 31.56C39.451 31.5173 39.867 31.4427 40.283 31.336C40.699 31.24 41.0937 31.112 41.467 30.952C41.8403 30.8027 42.1497 30.6213 42.395 30.408C42.715 30.0987 42.9657 29.7413 43.147 29.336C43.3177 28.9733 43.403 28.6053 43.403 28.232C43.403 27.9227 43.339 27.64 43.211 27.384C43.0937 27.128 42.9337 26.8987 42.731 26.696C42.5283 26.4933 42.2937 26.3227 42.027 26.184C41.771 26.0453 41.5043 25.9333 41.227 25.848C40.8643 25.7307 40.4857 25.656 40.091 25.624C39.707 25.5813 39.323 25.56 38.939 25.56C38.4803 25.56 38.011 25.576 37.531 25.608C37.051 25.6293 36.5817 25.6987 36.123 25.816C35.6643 25.9227 35.227 26.088 34.811 26.312C34.4057 26.5253 34.0483 26.8293 33.739 27.224C33.579 27.4373 33.4457 27.672 33.339 27.928C33.243 28.1733 33.195 28.4347 33.195 28.712ZM38.795 26.952C39.019 26.952 39.259 26.9627 39.515 26.984C39.771 26.9947 40.027 27.0267 40.283 27.08C40.539 27.1333 40.779 27.2133 41.003 27.32C41.2377 27.416 41.4403 27.5493 41.611 27.72C41.707 27.816 41.7817 27.912 41.835 28.008C41.8883 28.104 41.915 28.2213 41.915 28.36C41.915 28.5413 41.8723 28.7333 41.787 28.936C41.7017 29.1387 41.5897 29.2987 41.451 29.416C41.291 29.5547 41.067 29.672 40.779 29.768C40.491 29.8747 40.1817 29.96 39.851 30.024C39.5203 30.0987 39.195 30.152 38.875 30.184C38.5657 30.216 38.3043 30.232 38.091 30.232C37.8457 30.232 37.563 30.216 37.243 30.184C36.9337 30.1627 36.6243 30.1147 36.315 30.04C36.0057 29.9653 35.7177 29.8533 35.451 29.704C35.195 29.5653 34.9977 29.384 34.859 29.16C34.8057 29.0747 34.7577 28.984 34.715 28.888C34.683 28.792 34.667 28.6907 34.667 28.584C34.667 28.4453 34.699 28.3173 34.763 28.2C34.827 28.0827 34.9017 27.976 34.987 27.88C35.1897 27.6453 35.4457 27.4693 35.755 27.352C36.075 27.224 36.411 27.1333 36.763 27.08C37.115 27.016 37.467 26.9787 37.819 26.968C38.1817 26.9573 38.507 26.952 38.795 26.952ZM58.662 31.16C58.8647 31.16 59.046 31.0853 59.206 30.936C59.3767 30.7973 59.462 30.6213 59.462 30.408C59.462 29.704 59.4513 29.0107 59.43 28.328C59.4087 27.6347 59.3873 26.936 59.366 26.232C59.3233 24.8347 59.2807 23.4427 59.238 22.056C59.1953 20.6587 59.1527 19.256 59.11 17.848C59.11 17.6347 59.0673 17.448 58.982 17.288C58.8967 17.128 58.7153 17.048 58.438 17.048C58.2247 17.048 58.0327 17.1227 57.862 17.272C57.702 17.4107 57.622 17.5867 57.622 17.8C57.622 18.0347 57.6273 18.264 57.638 18.488C57.6487 18.712 57.6593 18.936 57.67 19.16L57.75 21.912C57.782 22.872 57.8087 23.8267 57.83 24.776C57.862 25.7253 57.8887 26.68 57.91 27.64C57.9313 28.0987 57.942 28.552 57.942 29C57.9527 29.4587 57.9687 29.9173 57.99 30.376C58.0007 30.6 58.0487 30.7867 58.134 30.936C58.2193 31.0853 58.3953 31.16 58.662 31.16ZM54.966 17.816V20.856L54.982 21.72C54.95 21.72 54.918 21.7253 54.886 21.736C54.854 21.736 54.822 21.736 54.79 21.736H54.39C54.358 21.736 54.326 21.7413 54.294 21.752C54.262 21.752 54.23 21.752 54.198 21.752L53.51 21.784C53.3073 21.7947 53.1207 21.816 52.95 21.848C52.79 21.8693 52.646 21.9707 52.518 22.152C52.4327 22.2693 52.39 22.4027 52.39 22.552C52.39 22.744 52.454 22.8987 52.582 23.016C52.7207 23.1333 52.8807 23.192 53.062 23.192C53.3073 23.192 53.5473 23.1867 53.782 23.176C54.0273 23.1653 54.2727 23.1547 54.518 23.144L54.982 23.128L55.014 26.952V30.008C55.014 30.2213 55.0673 30.392 55.174 30.52C55.2913 30.6587 55.462 30.728 55.686 30.728C55.8993 30.728 56.086 30.6533 56.246 30.504C56.4167 30.3547 56.502 30.1733 56.502 29.96V26.92L56.454 20.824V17.784C56.454 17.5707 56.3953 17.4 56.278 17.272C56.1713 17.1333 56.006 17.064 55.782 17.064C55.5687 17.064 55.3767 17.1387 55.206 17.288C55.046 17.4267 54.966 17.6027 54.966 17.816ZM50.854 19.128C50.8007 19.7253 50.6887 20.3707 50.518 21.064C50.3473 21.7467 50.1287 22.4293 49.862 23.112C49.606 23.784 49.3073 24.4293 48.966 25.048C48.6353 25.6667 48.2727 26.2053 47.878 26.664C47.7713 26.7813 47.6593 26.904 47.542 27.032C47.4247 27.1493 47.302 27.2667 47.174 27.384C47.0887 27.448 46.998 27.5173 46.902 27.592C46.806 27.656 46.7153 27.7307 46.63 27.816C46.5447 27.8907 46.47 27.976 46.406 28.072C46.3527 28.1573 46.326 28.264 46.326 28.392C46.326 28.584 46.39 28.7387 46.518 28.856C46.646 28.9733 46.8007 29.032 46.982 29.032C47.0887 29.032 47.2007 29.0053 47.318 28.952C47.4353 28.8987 47.5473 28.8347 47.654 28.76C47.7607 28.6747 47.862 28.5893 47.958 28.504C48.054 28.408 48.1393 28.328 48.214 28.264C48.598 27.9013 48.9447 27.5227 49.254 27.128C49.574 26.7227 49.8673 26.296 50.134 25.848C50.422 26.1787 50.7207 26.4933 51.03 26.792C51.3393 27.0907 51.6647 27.3787 52.006 27.656C52.0913 27.7413 52.182 27.8213 52.278 27.896C52.374 27.9707 52.4753 28.0347 52.582 28.088C52.71 28.1413 52.822 28.168 52.918 28.168C53.1313 28.168 53.318 28.0933 53.478 27.944C53.6487 27.7947 53.734 27.6133 53.734 27.4C53.734 27.2507 53.6807 27.112 53.574 26.984C53.51 26.8987 53.43 26.8293 53.334 26.776C53.2487 26.7227 53.1633 26.664 53.078 26.6C52.8967 26.4507 52.7153 26.3013 52.534 26.152C52.3633 25.992 52.1927 25.8267 52.022 25.656C51.8407 25.4747 51.6647 25.288 51.494 25.096C51.3233 24.904 51.1527 24.712 50.982 24.52L50.886 24.376C51.1207 23.8427 51.3233 23.304 51.494 22.76C51.6753 22.216 51.8353 21.6613 51.974 21.096C52.0593 20.7227 52.1393 20.3493 52.214 19.976C52.2993 19.6027 52.342 19.224 52.342 18.84C52.342 18.68 52.3153 18.5147 52.262 18.344C52.2193 18.1627 52.1233 18.024 51.974 17.928C51.91 17.8747 51.8407 17.8427 51.766 17.832C51.702 17.8107 51.6273 17.7947 51.542 17.784C51.19 17.72 50.8327 17.688 50.47 17.688C50.1073 17.688 49.75 17.6827 49.398 17.672C49.1633 17.6613 48.9287 17.656 48.694 17.656C48.47 17.6453 48.2407 17.6293 48.006 17.608C47.8887 17.5973 47.7713 17.5867 47.654 17.576C47.5367 17.5653 47.4193 17.56 47.302 17.56C47.0887 17.56 46.8967 17.6347 46.726 17.784C46.566 17.9333 46.486 18.1147 46.486 18.328C46.486 18.5733 46.6087 18.7653 46.854 18.904C46.8967 18.9253 47.014 18.9467 47.206 18.968C47.398 18.9787 47.622 18.9947 47.878 19.016C48.1447 19.0267 48.4327 19.0373 48.742 19.048C49.0513 19.0587 49.3447 19.0693 49.622 19.08C49.8993 19.0907 50.15 19.1013 50.374 19.112C50.598 19.112 50.758 19.1173 50.854 19.128ZM70.5893 19.544V19.56C70.0986 20.2107 69.5493 20.808 68.9413 21.352C68.3333 21.896 67.7146 22.424 67.0853 22.936L66.4613 23.416C66.3759 23.48 66.2799 23.544 66.1733 23.608C66.0773 23.6613 65.9919 23.7307 65.9173 23.816C65.7786 23.976 65.7093 24.1467 65.7093 24.328C65.7093 24.52 65.7733 24.6747 65.9013 24.792C66.0399 24.9093 66.1999 24.968 66.3813 24.968C66.5093 24.968 66.6319 24.936 66.7493 24.872C66.9093 24.7867 67.0586 24.6907 67.1973 24.584C67.3359 24.4667 67.4746 24.3547 67.6133 24.248C67.8586 24.0453 68.1039 23.848 68.3493 23.656C68.5946 23.4533 68.8399 23.2453 69.0853 23.032C69.2879 23.1707 69.5333 23.3307 69.8213 23.512C70.1199 23.6933 70.4079 23.8693 70.6853 24.04C70.9733 24.2107 71.2239 24.36 71.4373 24.488C71.6613 24.6053 71.7999 24.6747 71.8533 24.696C71.9386 24.7387 72.0399 24.76 72.1573 24.76C72.3706 24.76 72.5573 24.6853 72.7173 24.536C72.8773 24.3867 72.9573 24.2053 72.9573 23.992C72.9573 23.8213 72.8933 23.672 72.7653 23.544C72.7226 23.5013 72.6319 23.4373 72.4933 23.352C72.3653 23.2667 72.2266 23.1813 72.0773 23.096C71.9279 23.0107 71.7786 22.9253 71.6293 22.84C71.4799 22.7547 71.3679 22.6907 71.2933 22.648L70.2213 21.992C70.4773 21.7467 70.7493 21.4693 71.0373 21.16C71.3359 20.84 71.5866 20.5413 71.7893 20.264C71.9066 20.0933 72.0133 19.912 72.1093 19.72C72.2053 19.5173 72.2533 19.3093 72.2533 19.096C72.2533 18.904 72.2106 18.7493 72.1253 18.632C72.0506 18.504 71.9493 18.408 71.8213 18.344C71.7039 18.2693 71.5653 18.2213 71.4053 18.2C71.2453 18.168 71.0853 18.152 70.9253 18.152C70.6799 18.152 70.4346 18.1627 70.1893 18.184C69.9439 18.1947 69.6986 18.2107 69.4533 18.232C69.4533 18.1787 69.4639 18.0987 69.4852 17.992C69.5066 17.8213 69.5333 17.6293 69.5653 17.416C69.5973 17.192 69.6133 16.9893 69.6133 16.808C69.6133 16.616 69.5439 16.4613 69.4053 16.344C69.2773 16.2267 69.1226 16.168 68.9413 16.168C68.8026 16.168 68.6639 16.2107 68.5253 16.296C68.4079 16.3707 68.3173 16.472 68.2533 16.6C68.1999 16.7173 68.1573 16.8507 68.1253 17C68.0933 17.1387 68.0719 17.2827 68.0613 17.432C68.0506 17.5813 68.0399 17.7147 68.0293 17.832V17.864L68.0133 17.928V17.96L67.9653 18.248C67.9653 18.3013 67.9599 18.344 67.9493 18.376L66.8453 18.472C66.7386 18.4827 66.6319 18.488 66.5253 18.488C66.4293 18.488 66.3333 18.4987 66.2373 18.52C66.1519 18.5413 66.0826 18.5627 66.0293 18.584C65.9013 18.648 65.7893 18.744 65.6933 18.872C65.6079 18.9893 65.5653 19.1227 65.5653 19.272C65.5653 19.464 65.6293 19.6187 65.7573 19.736C65.8959 19.8533 66.0559 19.912 66.2373 19.912C66.4613 19.912 66.6799 19.896 66.8932 19.864C67.1173 19.832 67.3413 19.8053 67.5653 19.784C68.0773 19.7307 68.5786 19.6827 69.0693 19.64C69.5706 19.5973 70.0773 19.5653 70.5893 19.544ZM73.9013 23.544L73.8693 23.992V24.232C73.8693 24.424 73.9333 24.5787 74.0613 24.696C74.1999 24.8133 74.3599 24.872 74.5413 24.872C74.6799 24.872 74.8186 24.8293 74.9573 24.744C75.0853 24.6693 75.1759 24.568 75.2293 24.44C75.2933 24.312 75.3359 24.1787 75.3573 24.04C75.3786 23.8907 75.3893 23.7413 75.3893 23.592C75.3893 23.432 75.3893 23.288 75.3893 23.16C75.3893 23.0427 75.3839 22.8347 75.3733 22.536C75.3626 22.2373 75.3466 21.8907 75.3253 21.496L75.8373 21.48H76.7013C76.7013 21.8213 76.6959 22.1573 76.6853 22.488C76.6853 22.808 76.6799 23.1387 76.6693 23.48C76.6586 23.6613 76.6479 23.8427 76.6373 24.024C76.6373 24.1947 76.6373 24.3707 76.6373 24.552C76.6373 24.744 76.7013 24.8987 76.8293 25.016C76.9679 25.1333 77.1279 25.192 77.3093 25.192C77.4906 25.192 77.6559 25.1333 77.8053 25.016C77.9546 24.8987 78.0506 24.7493 78.0933 24.568C78.1146 24.472 78.1253 24.3813 78.1253 24.296C78.1359 24.2 78.1413 24.104 78.1413 24.008C78.1626 23.56 78.1733 23.1227 78.1733 22.696C78.1733 22.2587 78.1733 21.816 78.1733 21.368V20.52L78.1573 18.808V17.96C78.1573 17.832 78.1519 17.704 78.1413 17.576C78.1413 17.4373 78.1199 17.32 78.0773 17.224C78.0346 17.1173 77.9653 17.032 77.8693 16.968C77.7733 16.8933 77.6399 16.856 77.4693 16.856C77.2559 16.856 77.0693 16.9307 76.9093 17.08C76.7493 17.2293 76.6693 17.4107 76.6693 17.624V18.504L76.7013 20.088L76.2373 20.104H75.2613C75.2399 19.752 75.2186 19.4107 75.1973 19.08C75.1866 18.7493 75.1706 18.4507 75.1493 18.184C75.1386 17.9173 75.1226 17.6987 75.1013 17.528C75.0799 17.3467 75.0586 17.2347 75.0373 17.192C74.9199 16.936 74.7119 16.808 74.4133 16.808C74.1999 16.808 74.0133 16.8827 73.8533 17.032C73.6933 17.1707 73.6133 17.3467 73.6133 17.56C73.6133 17.8373 73.6239 18.12 73.6453 18.408C73.6773 18.696 73.7039 18.984 73.7253 19.272C73.7786 19.9867 73.8213 20.696 73.8533 21.4C73.8853 22.0933 73.9013 22.808 73.9013 23.544ZM67.9173 28.712C67.9173 29.3093 68.0719 29.7947 68.3813 30.168C68.7013 30.552 69.0959 30.8507 69.5653 31.064C70.0453 31.2773 70.5626 31.4267 71.1173 31.512C71.6719 31.5973 72.1893 31.64 72.6693 31.64C72.9893 31.64 73.3519 31.6133 73.7573 31.56C74.1733 31.5173 74.5893 31.4427 75.0053 31.336C75.4213 31.2293 75.8159 31.1013 76.1893 30.952C76.5626 30.8027 76.8719 30.6213 77.1173 30.408C77.2879 30.2587 77.4319 30.0933 77.5493 29.912C77.6773 29.7413 77.7839 29.56 77.8693 29.368C77.9439 29.1973 78.0026 29.0213 78.0453 28.84C78.0986 28.6587 78.1253 28.4773 78.1253 28.296C78.1253 27.9973 78.0613 27.72 77.9333 27.464C77.8159 27.208 77.6506 26.984 77.4373 26.792C77.2346 26.6 76.9999 26.4347 76.7333 26.296C76.4773 26.1573 76.2159 26.0453 75.9493 25.96C75.5759 25.8427 75.1973 25.7627 74.8133 25.72C74.4293 25.6773 74.0453 25.656 73.6613 25.656C73.2133 25.656 72.7439 25.672 72.2533 25.704C71.7733 25.736 71.3039 25.8107 70.8453 25.928C70.3866 26.0347 69.9493 26.1947 69.5333 26.408C69.1279 26.6213 68.7759 26.9147 68.4773 27.288C68.3173 27.5013 68.1839 27.7307 68.0773 27.976C67.9706 28.2107 67.9173 28.456 67.9173 28.712ZM73.5013 27.048C73.7253 27.048 73.9653 27.0587 74.2213 27.08C74.4879 27.1013 74.7493 27.144 75.0053 27.208C75.2613 27.2613 75.5066 27.336 75.7413 27.432C75.9759 27.528 76.1733 27.656 76.3333 27.816C76.4293 27.9013 76.5039 27.992 76.5573 28.088C76.6106 28.184 76.6373 28.296 76.6373 28.424C76.6373 28.5947 76.5946 28.776 76.5093 28.968C76.4239 29.16 76.3119 29.3147 76.1733 29.432C76.0239 29.5707 75.7999 29.688 75.5013 29.784C75.2133 29.8907 74.9039 29.976 74.5733 30.04C74.2426 30.1147 73.9173 30.168 73.5972 30.2C73.2773 30.232 73.0159 30.248 72.8133 30.248C72.5359 30.248 72.2053 30.2267 71.8213 30.184C71.4373 30.152 71.0639 30.0773 70.7013 29.96C70.3386 29.8427 70.0293 29.672 69.7733 29.448C69.5279 29.2347 69.4053 28.952 69.4053 28.6C69.4053 28.4827 69.4319 28.376 69.4852 28.28C69.5493 28.1733 69.6239 28.072 69.7093 27.976C69.9119 27.752 70.1679 27.5813 70.4773 27.464C70.7973 27.336 71.1333 27.2453 71.4853 27.192C71.8373 27.128 72.1893 27.0907 72.5413 27.08C72.8933 27.0587 73.2133 27.048 73.5013 27.048ZM81.3523 19.208C82.2269 19.208 83.0963 19.192 83.9603 19.16C84.2696 19.1387 84.5683 19.1227 84.8563 19.112C85.1549 19.0907 85.4536 19.08 85.7523 19.08C85.8056 19.08 85.8589 19.0853 85.9123 19.096C85.9763 19.096 86.0349 19.1013 86.0883 19.112C86.0989 19.1547 86.1096 19.1973 86.1203 19.24C86.1309 19.272 86.1363 19.3147 86.1363 19.368C86.1363 19.656 86.0989 19.9493 86.0243 20.248C85.9603 20.5467 85.8856 20.8347 85.8003 21.112C85.5016 22.1467 85.1069 23.1387 84.6163 24.088C84.1363 25.0267 83.5389 25.9067 82.8243 26.728C82.6429 26.9307 82.4509 27.128 82.2483 27.32C82.0456 27.512 81.8376 27.6987 81.6243 27.88C81.5389 27.9547 81.4429 28.024 81.3363 28.088C81.2403 28.152 81.1549 28.2267 81.0803 28.312C80.9523 28.472 80.8883 28.6373 80.8883 28.808C80.8883 28.9893 80.9523 29.1387 81.0803 29.256C81.2189 29.3733 81.3789 29.432 81.5603 29.432C81.6669 29.432 81.7789 29.4 81.8963 29.336C82.0136 29.2827 82.1309 29.2133 82.2483 29.128C82.3656 29.0427 82.4723 28.952 82.5683 28.856C82.6749 28.76 82.7709 28.68 82.8563 28.616C83.9229 27.656 84.8136 26.5573 85.5283 25.32C86.2429 24.0827 86.8029 22.776 87.2083 21.4L87.2243 21.384C87.2456 21.3733 87.2669 21.368 87.2883 21.368L87.4323 21.352H87.4963L88.9363 21.24C89.2136 21.2187 89.4909 21.1973 89.7683 21.176C90.0456 21.1547 90.3229 21.1333 90.6003 21.112C90.6856 21.1013 90.7763 21.096 90.8723 21.096C90.9683 21.0853 91.0643 21.0747 91.1603 21.064V21.112C91.1816 21.6027 91.1869 22.088 91.1763 22.568C91.1763 23.048 91.1763 23.5387 91.1763 24.04C90.8563 24.0507 90.5363 24.0613 90.2163 24.072C89.8963 24.0827 89.5709 24.0987 89.2403 24.12C88.9203 24.1307 88.5949 24.136 88.2643 24.136C87.9336 24.136 87.6029 24.1573 87.2723 24.2C87.1763 24.2 87.0909 24.2213 87.0163 24.264C86.8776 24.3173 86.7603 24.408 86.6643 24.536C86.5789 24.664 86.5363 24.8027 86.5363 24.952C86.5363 25.144 86.6003 25.2987 86.7283 25.416C86.8669 25.5333 87.0269 25.592 87.2083 25.592C87.5923 25.592 87.9763 25.5813 88.3603 25.56C88.7443 25.5387 89.1283 25.5173 89.5123 25.496C89.7896 25.4853 90.0669 25.4853 90.3443 25.496C90.6216 25.496 90.8989 25.4853 91.1763 25.464V30.44C91.1763 30.6533 91.2296 30.824 91.3363 30.952C91.4536 31.08 91.6243 31.144 91.8483 31.144C92.0509 31.144 92.2323 31.0693 92.3923 30.92C92.5629 30.7813 92.6483 30.6053 92.6483 30.392V21.208C92.6483 20.8453 92.6323 20.488 92.6003 20.136C92.5683 19.784 92.5363 19.4267 92.5043 19.064C92.4829 18.8187 92.4669 18.5787 92.4563 18.344C92.4563 18.0987 92.4349 17.8533 92.3923 17.608C92.3709 17.5227 92.3496 17.4587 92.3283 17.416C92.2749 17.2987 92.1896 17.2133 92.0723 17.16C91.9656 17.1067 91.8483 17.08 91.7203 17.08C91.5176 17.08 91.3309 17.1547 91.1603 17.304C91.0003 17.4427 90.9203 17.6187 90.9203 17.832C90.9203 17.9707 90.9256 18.104 90.9363 18.232C90.9469 18.36 90.9576 18.488 90.9683 18.616L91.0643 19.672C91.0109 19.6827 90.9576 19.6933 90.9043 19.704C90.8616 19.704 90.8136 19.704 90.7603 19.704L89.2403 19.832C89.1763 19.832 89.1123 19.8373 89.0483 19.848C88.9843 19.848 88.9203 19.8533 88.8563 19.864L88.1042 19.912C88.0829 19.912 88.0669 19.9173 88.0563 19.928C88.0456 19.928 88.0296 19.928 88.0083 19.928H87.8163C87.7949 19.928 87.7789 19.9333 87.7683 19.944C87.7576 19.944 87.7416 19.944 87.7203 19.944C87.6989 19.944 87.6723 19.9493 87.6403 19.96C87.6083 19.96 87.5763 19.96 87.5443 19.96C87.5656 19.8427 87.5816 19.72 87.5923 19.592C87.6029 19.464 87.6083 19.336 87.6083 19.208C87.6083 18.952 87.5603 18.7013 87.4643 18.456C87.3789 18.264 87.2723 18.12 87.1443 18.024C87.0163 17.9173 86.8723 17.8427 86.7123 17.8C86.5629 17.7467 86.3976 17.7147 86.2163 17.704C86.0349 17.6933 85.8589 17.688 85.6883 17.688C85.3149 17.688 84.9416 17.6987 84.5683 17.72C84.2056 17.7413 83.8376 17.7627 83.4643 17.784C83.1656 17.7947 82.8669 17.8 82.5683 17.8C82.2803 17.8 81.9923 17.8 81.7043 17.8C81.4589 17.8 81.2243 17.8587 81.0003 17.976C80.7869 18.0933 80.6803 18.2907 80.6803 18.568C80.6803 18.76 80.7443 18.9147 80.8723 19.032C81.0109 19.1493 81.1709 19.208 81.3523 19.208ZM97.1393 17.272C96.6806 17.272 96.3286 17.3947 96.0833 17.64C95.8486 17.8853 95.7313 18.2373 95.7313 18.696C95.7313 18.9093 95.7366 19.1173 95.7473 19.32C95.7686 19.512 95.7846 19.7093 95.7953 19.912C95.8379 20.5413 95.8753 21.1653 95.9073 21.784C95.9499 22.4027 96.0033 23.0267 96.0673 23.656C96.0886 23.8693 96.1206 24.0347 96.1633 24.152C96.2166 24.2587 96.2859 24.3387 96.3713 24.392C96.4673 24.4347 96.5793 24.4613 96.7073 24.472C96.8459 24.472 97.0113 24.4773 97.2033 24.488C97.9819 24.52 98.7659 24.536 99.5553 24.536C100.078 24.536 100.531 24.52 100.915 24.488C101.299 24.456 101.619 24.3653 101.875 24.216C102.131 24.056 102.318 23.8107 102.435 23.48C102.563 23.1493 102.627 22.68 102.627 22.072V21.224H105.971C105.961 21.6293 105.945 22.04 105.923 22.456C105.913 22.8613 105.897 23.2667 105.875 23.672C105.865 23.8107 105.854 23.9493 105.843 24.088C105.833 24.216 105.827 24.3493 105.827 24.488C105.827 24.68 105.891 24.8347 106.019 24.952C106.158 25.0693 106.318 25.128 106.499 25.128C106.649 25.128 106.787 25.0853 106.915 25C107.054 24.9147 107.161 24.8027 107.235 24.664C107.257 24.6107 107.278 24.5413 107.299 24.456C107.353 24.1573 107.374 23.8587 107.363 23.56C107.363 23.2613 107.369 22.9627 107.379 22.664L107.427 21.432C107.438 21.2187 107.443 21.016 107.443 20.824C107.454 20.6213 107.459 20.4187 107.459 20.216C107.459 19.96 107.454 19.7093 107.443 19.464C107.433 19.208 107.422 18.952 107.411 18.696C107.411 18.632 107.406 18.5467 107.395 18.44C107.395 18.3333 107.395 18.2267 107.395 18.12C107.395 18.0027 107.39 17.8907 107.379 17.784C107.369 17.6773 107.358 17.592 107.347 17.528C107.315 17.3787 107.235 17.2613 107.107 17.176C106.979 17.08 106.841 17.032 106.691 17.032C106.489 17.032 106.302 17.1067 106.131 17.256C105.971 17.4053 105.891 17.5867 105.891 17.8C105.891 18.1413 105.897 18.4773 105.907 18.808C105.929 19.128 105.95 19.4587 105.971 19.8H102.579C102.558 19.448 102.526 19.1173 102.483 18.808C102.441 18.4987 102.382 18.2693 102.307 18.12C102.243 17.992 102.163 17.8747 102.067 17.768C101.971 17.6613 101.859 17.576 101.731 17.512C101.518 17.3947 101.267 17.336 100.979 17.336C100.702 17.336 100.441 17.336 100.195 17.336C99.6833 17.336 99.1713 17.3253 98.6593 17.304C98.1579 17.2827 97.6513 17.272 97.1393 17.272ZM100.931 18.76C100.953 18.952 100.979 19.144 101.011 19.336C101.043 19.528 101.07 19.72 101.091 19.912C101.113 20.2213 101.123 20.536 101.123 20.856C101.134 21.1653 101.139 21.4747 101.139 21.784C101.139 21.976 101.139 22.1947 101.139 22.44C101.15 22.6747 101.129 22.888 101.075 23.08C100.926 23.1227 100.766 23.144 100.595 23.144C100.435 23.144 100.275 23.144 100.115 23.144C99.2513 23.144 98.3819 23.128 97.5073 23.096C97.4539 22.36 97.4006 21.624 97.3473 20.888C97.2939 20.152 97.2513 19.416 97.2193 18.68C97.7419 18.6907 98.2593 18.7013 98.7713 18.712C99.2833 18.7227 99.8006 18.728 100.323 18.728C100.43 18.728 100.531 18.728 100.627 18.728C100.723 18.728 100.825 18.7387 100.931 18.76ZM97.9073 27.48C98.7819 27.48 99.6566 27.464 100.531 27.432C101.406 27.3893 102.281 27.3467 103.155 27.304C103.475 27.2827 103.795 27.2613 104.115 27.24C104.435 27.2187 104.761 27.208 105.091 27.208C105.155 27.208 105.262 27.2187 105.411 27.24C105.571 27.2507 105.667 27.2987 105.699 27.384C105.71 27.4053 105.715 27.4427 105.715 27.496C105.715 27.5387 105.715 27.5707 105.715 27.592C105.715 27.8373 105.705 28.0773 105.683 28.312C105.673 28.536 105.662 28.7653 105.651 29V29.272L105.635 29.8V30.056C105.625 30.1947 105.614 30.328 105.603 30.456C105.593 30.584 105.587 30.7173 105.587 30.856C105.587 31.048 105.651 31.2027 105.779 31.32C105.918 31.4373 106.078 31.496 106.259 31.496C106.398 31.496 106.537 31.4533 106.675 31.368C106.889 31.24 107.011 31.0693 107.043 30.856C107.075 30.6427 107.097 30.424 107.107 30.2C107.118 30.0293 107.123 29.8587 107.123 29.688C107.123 29.5173 107.123 29.3413 107.123 29.16C107.134 28.8933 107.145 28.632 107.155 28.376C107.177 28.1093 107.187 27.8427 107.187 27.576C107.187 27.4587 107.182 27.3467 107.171 27.24C107.171 27.1227 107.155 27.0053 107.123 26.888C107.07 26.6853 106.974 26.5147 106.835 26.376C106.707 26.2373 106.553 26.1253 106.371 26.04C106.201 25.9547 106.014 25.896 105.811 25.864C105.619 25.8213 105.427 25.8 105.235 25.8C104.926 25.8 104.617 25.8107 104.307 25.832C104.009 25.8533 103.705 25.8747 103.395 25.896C102.713 25.928 102.035 25.96 101.363 25.992C100.691 26.0133 100.014 26.0347 99.3313 26.056C99.2459 26.056 99.1286 26.056 98.9793 26.056C98.8406 26.056 98.6913 26.0613 98.5312 26.072C98.3713 26.072 98.2219 26.0773 98.0833 26.088C97.9446 26.088 97.8433 26.0987 97.7793 26.12C97.6299 26.1733 97.5019 26.2693 97.3953 26.408C97.2886 26.536 97.2353 26.68 97.2353 26.84C97.2353 27.032 97.2993 27.1867 97.4273 27.304C97.5659 27.4213 97.7259 27.48 97.9073 27.48ZM120.942 28.12L120.894 29.72V30.52C120.894 30.712 120.958 30.8667 121.086 30.984C121.225 31.1013 121.385 31.16 121.566 31.16C121.758 31.16 121.924 31.096 122.062 30.968C122.212 30.8507 122.313 30.696 122.366 30.504C122.388 30.4293 122.393 30.3493 122.382 30.264C122.382 30.1787 122.382 30.0933 122.382 30.008C122.382 29.5387 122.388 29.0747 122.398 28.616C122.42 28.1467 122.43 27.672 122.43 27.192C122.43 25.8373 122.414 24.4933 122.382 23.16C122.361 21.816 122.329 20.4667 122.286 19.112C122.286 19.0373 122.286 18.92 122.286 18.76C122.286 18.5893 122.281 18.4187 122.27 18.248C122.26 18.0667 122.249 17.9013 122.238 17.752C122.228 17.6027 122.217 17.5067 122.206 17.464C122.153 17.3253 122.068 17.2187 121.95 17.144C121.844 17.0693 121.716 17.032 121.566 17.032C121.364 17.032 121.177 17.1067 121.006 17.256C120.846 17.4053 120.766 17.5867 120.766 17.8C120.766 18.3333 120.777 18.8613 120.798 19.384C120.82 19.9067 120.841 20.4347 120.862 20.968C120.905 22.1627 120.926 23.3573 120.926 24.552C120.937 25.736 120.942 26.9253 120.942 28.12ZM111.07 19.224C111.582 19.224 112.094 19.2187 112.606 19.208C113.129 19.1973 113.646 19.1813 114.158 19.16C114.393 19.1493 114.622 19.1387 114.846 19.128C115.081 19.1173 115.316 19.112 115.55 19.112H115.838C115.892 19.112 115.94 19.112 115.982 19.112C116.025 19.112 116.073 19.1173 116.126 19.128C116.137 19.1707 116.142 19.2133 116.142 19.256C116.153 19.288 116.158 19.3307 116.158 19.384C116.158 19.6827 116.126 19.9813 116.062 20.28C115.998 20.568 115.924 20.856 115.838 21.144C115.55 22.1787 115.172 23.1653 114.702 24.104C114.244 25.0427 113.662 25.9227 112.958 26.744C112.777 26.9467 112.59 27.144 112.398 27.336C112.217 27.528 112.025 27.7147 111.822 27.896C111.737 27.9707 111.646 28.04 111.55 28.104C111.454 28.168 111.369 28.2427 111.294 28.328C111.166 28.4773 111.102 28.6373 111.102 28.808C111.102 29 111.166 29.1547 111.294 29.272C111.433 29.3893 111.593 29.448 111.774 29.448C111.881 29.448 111.993 29.416 112.11 29.352C112.228 29.2987 112.34 29.2293 112.446 29.144C112.564 29.0587 112.67 28.968 112.766 28.872C112.862 28.776 112.953 28.6907 113.038 28.616C114.084 27.6453 114.953 26.5467 115.646 25.32C116.35 24.0933 116.889 22.7973 117.262 21.432C117.369 21.0693 117.46 20.7067 117.534 20.344C117.609 19.9707 117.646 19.5973 117.646 19.224C117.646 18.9893 117.593 18.7387 117.486 18.472C117.412 18.28 117.305 18.136 117.166 18.04C117.038 17.9333 116.894 17.8587 116.734 17.816C116.574 17.7627 116.404 17.7307 116.222 17.72C116.041 17.7093 115.865 17.704 115.694 17.704C115.321 17.704 114.948 17.7147 114.574 17.736C114.201 17.7573 113.828 17.7787 113.454 17.8H112.366C112.292 17.8 112.185 17.8 112.046 17.8C111.908 17.8 111.764 17.8053 111.614 17.816C111.476 17.816 111.337 17.8213 111.198 17.832C111.07 17.8427 110.974 17.8587 110.91 17.88C110.761 17.9333 110.638 18.024 110.542 18.152C110.446 18.28 110.398 18.424 110.398 18.584C110.398 18.776 110.462 18.9307 110.59 19.048C110.729 19.1653 110.889 19.224 111.07 19.224Z" fill="#2A3524"/>
<rect x="1" y="1" width="139" height="46" rx="22" stroke="#5BF2AA" stroke-width="2"/>
</svg>
