<svg width="111" height="48" viewBox="0 0 111 48" fill="none" xmlns="http://www.w3.org/2000/svg">
<rect x="1" y="1" width="109" height="46" rx="22" fill="white"/>
<path d="M18.816 19.704C18.816 19.8427 18.8213 20.04 18.832 20.296C18.8533 20.552 18.88 20.8187 18.912 21.096C18.944 21.3627 18.9867 21.6187 19.04 21.864C19.0933 22.0987 19.1627 22.264 19.248 22.36C19.376 22.5307 19.5573 22.616 19.792 22.616C20.2933 22.616 20.7893 22.6053 21.28 22.584C21.7707 22.5627 22.2667 22.5413 22.768 22.52C22.8747 22.52 23.056 22.52 23.312 22.52C23.5787 22.5093 23.872 22.504 24.192 22.504C24.5227 22.4933 24.8693 22.4827 25.232 22.472C25.5947 22.4613 25.9307 22.4507 26.24 22.44C26.56 22.4293 26.8267 22.4187 27.04 22.408C27.264 22.3867 27.4027 22.3653 27.456 22.344C27.6053 22.2907 27.7333 22.2 27.84 22.072C27.9467 21.944 28 21.7947 28 21.624C28 21.496 27.9947 21.368 27.984 21.24C27.9733 21.112 27.968 20.9787 27.968 20.84L27.872 19.24L27.792 17.928C27.7813 17.8 27.776 17.6667 27.776 17.528C27.776 17.3787 27.7547 17.2453 27.712 17.128C27.6693 17.0107 27.6 16.9147 27.504 16.84C27.4187 16.7653 27.28 16.728 27.088 16.728C26.8853 16.728 26.6987 16.8027 26.528 16.952C26.368 17.1013 26.288 17.2827 26.288 17.496C26.288 17.8053 26.304 18.1093 26.336 18.408C25.696 18.4187 25.0507 18.44 24.4 18.472C23.76 18.504 23.12 18.5307 22.48 18.552L20.672 18.616C20.6187 18.616 20.56 18.6213 20.496 18.632C20.432 18.632 20.3733 18.632 20.32 18.632L20.336 18.232C20.3467 18.0933 20.352 17.96 20.352 17.832C20.352 17.6933 20.352 17.5547 20.352 17.416C20.352 17.224 20.2827 17.0693 20.144 16.952C20.016 16.8347 19.8613 16.776 19.68 16.776C19.5093 16.776 19.36 16.824 19.232 16.92C19.0507 17.0373 18.944 17.1707 18.912 17.32C18.8907 17.4587 18.88 17.624 18.88 17.816C18.8693 18.136 18.8533 18.456 18.832 18.776C18.8213 19.0853 18.816 19.3947 18.816 19.704ZM20.448 21.208C20.3947 21.0053 20.3573 20.808 20.336 20.616C20.3253 20.424 20.3147 20.2267 20.304 20.024C20.4 20.024 20.496 20.024 20.592 20.024C20.6987 20.0133 20.8 20.008 20.896 20.008L23.52 19.912C23.904 19.8907 24.288 19.8747 24.672 19.864C25.056 19.8533 25.44 19.8427 25.824 19.832H26.096L26.416 19.816L26.48 21.016L20.448 21.208ZM22.432 24.744C23.8827 24.744 25.328 24.728 26.768 24.696C27.6427 24.664 28.5173 24.648 29.392 24.648C29.5947 24.648 29.776 24.5733 29.936 24.424C30.1067 24.2747 30.192 24.0933 30.192 23.88C30.192 23.6347 30.1067 23.4693 29.936 23.384C29.7653 23.288 29.5733 23.24 29.36 23.24C28.9547 23.24 28.544 23.2453 28.128 23.256C27.7227 23.2667 27.3173 23.2773 26.912 23.288C26.176 23.3093 25.4507 23.3253 24.736 23.336C24.0213 23.3467 23.296 23.352 22.56 23.352C21.4507 23.352 20.3467 23.336 19.248 23.304C18.9387 23.2933 18.624 23.2773 18.304 23.256C17.9947 23.2347 17.6853 23.224 17.376 23.224C17.1733 23.224 16.9867 23.2987 16.816 23.448C16.656 23.5973 16.576 23.7787 16.576 23.992C16.576 24.2587 16.704 24.4507 16.96 24.568C17.0027 24.5893 17.152 24.6107 17.408 24.632C17.6747 24.6533 17.9893 24.6693 18.352 24.68C18.7147 24.6907 19.1093 24.7013 19.536 24.712C19.9627 24.7227 20.368 24.7333 20.752 24.744C21.1467 24.744 21.4933 24.744 21.792 24.744C22.1013 24.744 22.3147 24.744 22.432 24.744ZM25.76 26.872C25.8773 26.872 25.9893 26.872 26.096 26.872C26.2133 26.872 26.3307 26.8773 26.448 26.888V26.904C26.448 27.0533 26.4427 27.1973 26.432 27.336C26.432 27.4747 26.4267 27.6187 26.416 27.768C25.3813 27.7893 24.3467 27.8053 23.312 27.816C22.2773 27.8267 21.2373 27.832 20.192 27.832C19.8507 27.832 19.5627 27.912 19.328 28.072C19.0933 28.232 18.976 28.4987 18.976 28.872C18.976 28.9467 18.976 29.016 18.976 29.08C18.9867 29.1547 18.9973 29.224 19.008 29.288L19.056 29.688C19.0773 29.784 19.088 29.88 19.088 29.976C19.0987 30.072 19.1147 30.168 19.136 30.264C19.1893 30.4987 19.2693 30.6853 19.376 30.824C19.4933 30.9627 19.6267 31.0693 19.776 31.144C19.936 31.2187 20.1067 31.2667 20.288 31.288C20.48 31.32 20.6827 31.3413 20.896 31.352C21.2267 31.3733 21.5573 31.384 21.888 31.384C22.2187 31.3947 22.5547 31.4 22.896 31.4C23.024 31.4 23.2267 31.4 23.504 31.4C23.792 31.4 24.112 31.3947 24.464 31.384C24.8267 31.3733 25.1947 31.3627 25.568 31.352C25.952 31.3413 26.3093 31.3253 26.64 31.304C26.9813 31.2933 27.2747 31.272 27.52 31.24C27.776 31.2187 27.9413 31.1867 28.016 31.144C28.1547 31.0907 28.272 31 28.368 30.872C28.464 30.744 28.512 30.6053 28.512 30.456C28.512 30.2747 28.4533 30.1253 28.336 30.008C28.2187 29.9013 28.0693 29.848 27.888 29.848C27.792 29.848 27.696 29.8533 27.6 29.864C27.5147 29.8747 27.424 29.8853 27.328 29.896C27.1573 29.9173 26.9867 29.928 26.816 29.928C26.6453 29.9387 26.4693 29.9493 26.288 29.96C25.7547 29.992 25.2267 30.0133 24.704 30.024C24.1813 30.0347 23.648 30.04 23.104 30.04C23.0293 30.04 22.8587 30.04 22.592 30.04C22.3253 30.04 22.048 30.0347 21.76 30.024C21.472 30.0133 21.2107 29.9973 20.976 29.976C20.7413 29.9653 20.6187 29.9493 20.608 29.928C20.5867 29.896 20.5707 29.848 20.56 29.784C20.5493 29.72 20.5387 29.6507 20.528 29.576C20.528 29.5013 20.5227 29.4267 20.512 29.352C20.512 29.288 20.5067 29.24 20.496 29.208C21.2107 29.1973 21.92 29.1867 22.624 29.176C23.328 29.176 24.0373 29.1707 24.752 29.16C25.0613 29.1493 25.408 29.1493 25.792 29.16C26.1867 29.1707 26.528 29.144 26.816 29.08C26.9653 29.048 27.104 29 27.232 28.936C27.36 28.872 27.472 28.7813 27.568 28.664C27.664 28.5573 27.7333 28.424 27.776 28.264C27.8293 28.0933 27.8667 27.9227 27.888 27.752C27.9093 27.5707 27.92 27.3947 27.92 27.224C27.92 27.0427 27.92 26.8827 27.92 26.744C27.92 26.2533 27.8133 25.9333 27.6 25.784C27.3867 25.6347 27.056 25.5493 26.608 25.528C26.4267 25.5173 26.2453 25.512 26.064 25.512C25.8933 25.512 25.7173 25.512 25.536 25.512C25.3973 25.512 25.152 25.5173 24.8 25.528C24.4587 25.5387 24.064 25.5493 23.616 25.56C23.168 25.5707 22.6987 25.5867 22.208 25.608C21.7173 25.6293 21.2587 25.656 20.832 25.688C20.4053 25.7093 20.0373 25.736 19.728 25.768C19.4293 25.7893 19.248 25.8107 19.184 25.832C19.0453 25.8853 18.9227 25.976 18.816 26.104C18.7093 26.232 18.656 26.376 18.656 26.536C18.656 26.7173 18.7147 26.8667 18.832 26.984C18.9493 27.0907 19.0987 27.144 19.28 27.144C19.6213 27.144 19.9627 27.128 20.304 27.096C20.656 27.064 21.008 27.0373 21.36 27.016C22.096 26.9733 22.8267 26.9413 23.552 26.92C24.288 26.888 25.024 26.872 25.76 26.872ZM41.2289 18.904C41.2715 18.968 41.3035 19.1013 41.3249 19.304C41.3569 19.496 41.3835 19.7093 41.4049 19.944C41.4262 20.1787 41.4422 20.408 41.4529 20.632C41.4635 20.8453 41.4689 21 41.4689 21.096H41.2609C40.0662 21.096 38.8715 21.0907 37.6769 21.08C36.4929 21.0587 35.2982 21.048 34.0929 21.048C33.9542 21.048 33.8155 21.0907 33.6769 21.176C33.4955 21.2933 33.3835 21.4267 33.3409 21.576C33.3089 21.7147 33.2822 21.8853 33.2609 22.088C33.2502 22.2053 33.2449 22.3173 33.2449 22.424C33.2449 22.5307 33.2449 22.6373 33.2449 22.744C33.2449 23.2773 33.2609 23.8053 33.2929 24.328C33.3035 24.456 33.3089 24.584 33.3089 24.712C33.3195 24.8293 33.3409 24.9467 33.3729 25.064C33.4795 25.5013 33.7089 25.8053 34.0609 25.976C34.4129 26.136 34.7915 26.216 35.1969 26.216C35.5382 26.216 35.8795 26.216 36.2209 26.216C36.5729 26.216 36.9195 26.2107 37.2609 26.2C37.2502 26.3813 37.2449 26.5627 37.2449 26.744C37.2555 26.9147 37.2609 27.0587 37.2609 27.176V27.848L37.2449 29.176H35.8849H34.2369C33.8955 29.176 33.5489 29.1707 33.1969 29.16C32.8555 29.1493 32.5142 29.1547 32.1729 29.176C32.1409 29.1867 32.1035 29.192 32.0609 29.192C32.0289 29.192 31.9915 29.2027 31.9489 29.224C31.7995 29.2773 31.6715 29.368 31.5649 29.496C31.4582 29.624 31.4049 29.7733 31.4049 29.944C31.4049 30.1253 31.4475 30.2587 31.5329 30.344C31.6182 30.44 31.7249 30.504 31.8529 30.536C31.9809 30.568 32.1142 30.584 32.2529 30.584C32.4022 30.584 32.5409 30.584 32.6689 30.584H34.0449L36.7809 30.568H38.1569H39.6609L42.6689 30.6H44.1729C44.3755 30.6 44.5569 30.5253 44.7169 30.376C44.8875 30.2267 44.9729 30.0453 44.9729 29.832C44.9729 29.5547 44.8342 29.3573 44.5569 29.24C44.5249 29.2293 44.4182 29.2187 44.2369 29.208C44.0555 29.1973 43.8369 29.1867 43.5809 29.176C43.3355 29.176 43.0635 29.1707 42.7649 29.16C42.4662 29.16 42.1835 29.16 41.9169 29.16C41.6502 29.16 41.4155 29.16 41.2129 29.16C41.0102 29.16 40.8769 29.16 40.8129 29.16H39.1649H38.7489C38.7489 29.032 38.7435 28.9093 38.7329 28.792C38.7329 28.6747 38.7329 28.5733 38.7329 28.488V27.816L38.7489 26.488V26.152C38.9622 26.1413 39.1755 26.136 39.3889 26.136C39.6129 26.136 39.8315 26.1307 40.0449 26.12L41.7089 26.072C41.8369 26.0613 41.9649 26.0613 42.0929 26.072C42.2315 26.072 42.3702 26.0613 42.5089 26.04C42.5729 26.04 42.6475 26.024 42.7329 25.992C42.8822 25.9387 43.0049 25.848 43.1009 25.72C43.1969 25.592 43.2449 25.448 43.2449 25.288C43.2449 25.096 43.1755 24.9413 43.0369 24.824C42.9089 24.7067 42.7542 24.648 42.5729 24.648C42.2635 24.648 41.9542 24.6587 41.6449 24.68C41.3355 24.6907 41.0262 24.7013 40.7169 24.712C39.8315 24.7333 38.9462 24.76 38.0609 24.792C37.1862 24.8133 36.3062 24.824 35.4209 24.824C35.3355 24.824 35.2395 24.824 35.1329 24.824C35.0369 24.8133 34.9515 24.7867 34.8769 24.744C34.8342 24.7227 34.8022 24.616 34.7809 24.424C34.7595 24.2213 34.7435 23.9973 34.7329 23.752C34.7222 23.5067 34.7169 23.2773 34.7169 23.064C34.7169 22.84 34.7169 22.6907 34.7169 22.616V22.456C35.7942 22.4667 36.8609 22.4773 37.9169 22.488C38.9835 22.4987 40.0555 22.504 41.1329 22.504C41.3995 22.504 41.6449 22.4827 41.8689 22.44C42.0929 22.3867 42.2849 22.3013 42.4449 22.184C42.6049 22.056 42.7275 21.896 42.8129 21.704C42.9089 21.5013 42.9569 21.2507 42.9569 20.952C42.9569 20.7707 42.9462 20.536 42.9249 20.248C42.9142 19.96 42.8875 19.6667 42.8449 19.368C42.8129 19.0693 42.7595 18.792 42.6849 18.536C42.6102 18.2693 42.5142 18.0667 42.3969 17.928C42.2795 17.8 42.1515 17.7093 42.0129 17.656C41.8742 17.592 41.7302 17.544 41.5809 17.512C41.1649 17.4267 40.7062 17.3893 40.2049 17.4C39.7142 17.4107 39.2555 17.416 38.8289 17.416C38.0609 17.416 37.2982 17.4107 36.5409 17.4C35.7835 17.3787 35.0209 17.368 34.2529 17.368C34.0502 17.368 33.8635 17.4427 33.6929 17.592C33.5329 17.7413 33.4529 17.9227 33.4529 18.136C33.4529 18.3387 33.5115 18.488 33.6289 18.584C33.7462 18.6693 33.8902 18.728 34.0609 18.76C34.2315 18.792 34.4075 18.808 34.5889 18.808C34.7809 18.7973 34.9409 18.792 35.0689 18.792H37.3249L38.4289 18.808H39.5169C39.5915 18.808 39.7089 18.8133 39.8689 18.824C40.0395 18.824 40.2155 18.8293 40.3969 18.84C40.5782 18.84 40.7435 18.8453 40.8929 18.856C41.0529 18.8667 41.1649 18.8827 41.2289 18.904ZM59.0818 30.648C59.2844 30.648 59.4658 30.5733 59.6258 30.424C59.7964 30.2747 59.8818 30.0933 59.8818 29.88C59.8818 29.6027 59.7431 29.4053 59.4658 29.288C59.4124 29.2667 59.1778 29.2453 58.7618 29.224C58.3564 29.2133 57.8711 29.2027 57.3058 29.192C57.3484 28.84 57.3911 28.3867 57.4338 27.832C57.4764 27.2773 57.5138 26.68 57.5458 26.04C57.5884 25.3893 57.6258 24.728 57.6578 24.056C57.6898 23.3733 57.7164 22.7333 57.7378 22.136C57.7591 21.5387 57.7751 21.0107 57.7858 20.552C57.7964 20.0933 57.8018 19.7627 57.8018 19.56C57.8018 19.3893 57.7911 19.224 57.7698 19.064C57.7484 18.8933 57.7111 18.7333 57.6578 18.584C57.5511 18.264 57.3378 18.0293 57.0178 17.88C56.8684 17.8053 56.6604 17.752 56.3938 17.72C56.1378 17.6773 55.8658 17.6453 55.5778 17.624C55.2898 17.6027 55.0071 17.592 54.7298 17.592C54.4524 17.5813 54.2284 17.576 54.0578 17.576C53.1938 17.576 52.3404 17.5867 51.4978 17.608C50.6551 17.6293 49.8018 17.6827 48.9378 17.768C48.8098 17.7893 48.6818 17.8053 48.5538 17.816C48.4258 17.816 48.3031 17.8427 48.1858 17.896C48.0471 17.96 47.9351 18.056 47.8498 18.184C47.7644 18.3013 47.7218 18.4347 47.7218 18.584C47.7218 18.776 47.7858 18.9307 47.9138 19.048C48.0524 19.1653 48.2124 19.224 48.3938 19.224C48.4791 19.224 48.5644 19.2187 48.6498 19.208C48.7458 19.1867 48.8418 19.1707 48.9378 19.16L49.8978 19.064C50.5058 19.0107 51.1031 18.984 51.6898 18.984C52.2871 18.984 52.8844 18.984 53.4818 18.984C53.6098 18.984 53.8071 18.984 54.0738 18.984C54.3404 18.984 54.6178 18.9893 54.9058 19C55.2044 19.0107 55.4764 19.0267 55.7218 19.048C55.9778 19.0693 56.1538 19.1013 56.2498 19.144C56.2818 19.208 56.3031 19.2987 56.3138 19.416C56.3244 19.5227 56.3298 19.6187 56.3298 19.704C56.3298 20.1733 56.3191 20.6427 56.2978 21.112C56.2764 21.5707 56.2551 22.0347 56.2338 22.504C56.2124 23.24 56.1858 23.9653 56.1538 24.68C56.1324 25.3947 56.0951 26.1147 56.0418 26.84C56.0204 27.16 55.9938 27.4853 55.9618 27.816C55.9404 28.136 55.9138 28.456 55.8818 28.776L55.8018 29.176H52.4098C51.4818 29.176 50.5591 29.1493 49.6418 29.096C48.7351 29.0533 47.8178 29.032 46.8898 29.032C46.6871 29.032 46.5004 29.1067 46.3298 29.256C46.1698 29.4053 46.0898 29.5867 46.0898 29.8C46.0898 29.9813 46.1484 30.1253 46.2658 30.232C46.3831 30.3493 46.5271 30.4187 46.6978 30.44C47.0391 30.4613 47.3804 30.472 47.7218 30.472C48.0631 30.472 48.4044 30.4773 48.7458 30.488C49.5138 30.5093 50.2818 30.5253 51.0498 30.536C51.8178 30.5573 52.5858 30.568 53.3538 30.568C54.3138 30.568 55.2684 30.5787 56.2178 30.6C57.1671 30.632 58.1218 30.648 59.0818 30.648ZM66.1629 25.576C66.1629 25.768 66.2269 25.9227 66.3549 26.04C66.4935 26.1573 66.6535 26.216 66.8349 26.216C66.9735 26.216 67.0962 26.184 67.2029 26.12C67.3202 26.0453 67.4269 25.96 67.5229 25.864C67.6189 25.7573 67.7042 25.6453 67.7789 25.528C67.8535 25.4 67.9282 25.288 68.0029 25.192C68.2375 24.872 68.4669 24.552 68.6909 24.232C68.9255 23.912 69.1335 23.576 69.3149 23.224C69.3362 23.1707 69.3575 23.1227 69.3789 23.08C69.4109 23.0267 69.4375 22.9733 69.4589 22.92C69.6189 23.0587 69.7895 23.2027 69.9709 23.352C70.1629 23.5013 70.3495 23.6453 70.5309 23.784C70.7122 23.9227 70.8829 24.056 71.0429 24.184C71.2135 24.3013 71.3575 24.3973 71.4749 24.472C71.4322 24.536 71.3895 24.6 71.3469 24.664C71.3149 24.7173 71.2775 24.7707 71.2349 24.824C71.1815 24.8987 71.1122 24.984 71.0269 25.08C70.9522 25.1653 70.8775 25.2613 70.8029 25.368C70.7389 25.464 70.6802 25.5653 70.6269 25.672C70.5735 25.768 70.5469 25.864 70.5469 25.96C70.5469 26.152 70.6109 26.3067 70.7389 26.424C70.8775 26.5413 71.0375 26.6 71.2189 26.6C71.3469 26.6 71.4589 26.5733 71.5549 26.52C71.6615 26.456 71.7575 26.3813 71.8429 26.296C71.9282 26.2 72.0082 26.104 72.0829 26.008C72.1575 25.9013 72.2269 25.8 72.2909 25.704C72.9309 24.7973 73.4269 23.864 73.7789 22.904C73.9495 23.064 74.1149 23.2293 74.2749 23.4C74.4455 23.56 74.6109 23.72 74.7709 23.88C74.9522 24.0613 75.1335 24.2427 75.3149 24.424C75.4962 24.6053 75.6775 24.792 75.8589 24.984C75.9442 25.0693 76.0242 25.1653 76.0989 25.272C76.1842 25.3787 76.2802 25.4693 76.3869 25.544C76.5149 25.64 76.6589 25.688 76.8189 25.688C77.0322 25.688 77.2189 25.6133 77.3789 25.464C77.5389 25.3147 77.6189 25.1333 77.6189 24.92C77.6189 24.7813 77.5815 24.6587 77.5069 24.552C77.4749 24.5093 77.3895 24.4133 77.2509 24.264C77.1229 24.1147 76.9629 23.944 76.7709 23.752C76.5789 23.5493 76.3655 23.3307 76.1309 23.096C75.8962 22.8507 75.6615 22.616 75.4269 22.392C75.2029 22.1573 74.9842 21.944 74.7709 21.752C74.5682 21.56 74.4029 21.4 74.2749 21.272C74.3389 21.016 74.3922 20.76 74.4349 20.504C74.4882 20.2373 74.5415 19.9653 74.5949 19.688C74.6375 19.4213 74.6802 19.1547 74.7229 18.888C74.7655 18.6213 74.7869 18.3547 74.7869 18.088C74.7869 17.896 74.7175 17.7413 74.5789 17.624C74.4509 17.5067 74.2962 17.448 74.1149 17.448C73.9549 17.448 73.8109 17.4907 73.6829 17.576C73.5549 17.6613 73.4535 17.7733 73.3789 17.912C73.3575 17.9547 73.3309 18.072 73.2989 18.264C73.2669 18.456 73.2349 18.664 73.2029 18.888C73.1709 19.112 73.1389 19.3307 73.1069 19.544C73.0855 19.7573 73.0695 19.9067 73.0589 19.992C72.9735 20.504 72.8562 21.0267 72.7069 21.56C72.5575 22.0933 72.3762 22.616 72.1629 23.128L72.1309 23.096C71.9602 22.9787 71.7895 22.856 71.6189 22.728C71.4482 22.6 71.2829 22.472 71.1229 22.344C70.7602 22.056 70.3975 21.7307 70.0349 21.368C70.1629 20.92 70.2642 20.472 70.3389 20.024C70.4135 19.5653 70.4669 19.1173 70.4989 18.68C70.5095 18.584 70.5149 18.4933 70.5149 18.408C70.5255 18.312 70.5309 18.216 70.5309 18.12C70.5309 17.928 70.4615 17.7733 70.3229 17.656C70.1949 17.5387 70.0402 17.48 69.8589 17.48C69.7202 17.48 69.5762 17.528 69.4269 17.624C69.2135 17.7627 69.0909 17.9333 69.0589 18.136C69.0375 18.3387 69.0215 18.552 69.0109 18.776C68.9789 19.224 68.9202 19.672 68.8349 20.12C68.7602 20.5573 68.6535 20.9947 68.5149 21.432C68.4295 21.6773 68.3389 21.9227 68.2429 22.168C68.1469 22.4133 68.0349 22.6533 67.9069 22.888C67.7469 23.1653 67.5709 23.4373 67.3789 23.704C67.1975 23.96 67.0109 24.216 66.8189 24.472C66.7229 24.6 66.6215 24.728 66.5149 24.856C66.4082 24.9733 66.3175 25.1067 66.2429 25.256C66.1895 25.3627 66.1629 25.4693 66.1629 25.576ZM78.0349 30.648C78.2482 30.648 78.4349 30.5733 78.5949 30.424C78.7549 30.2747 78.8349 30.0933 78.8349 29.88C78.8349 29.6027 78.6962 29.4053 78.4189 29.288C78.3762 29.2667 78.1895 29.2507 77.8589 29.24C77.5282 29.2293 77.1229 29.2187 76.6429 29.208C76.1735 29.1973 75.6615 29.1867 75.1069 29.176C74.5522 29.176 74.0189 29.176 73.5069 29.176C73.0055 29.176 72.5575 29.176 72.1629 29.176C71.7682 29.176 71.5015 29.176 71.3629 29.176C70.4349 29.176 69.5122 29.1493 68.5949 29.096C67.6882 29.0533 66.7709 29.032 65.8429 29.032C65.6295 29.032 65.4429 29.1067 65.2829 29.256C65.1229 29.4053 65.0429 29.5867 65.0429 29.8C65.0429 29.9813 65.1015 30.1253 65.2189 30.232C65.3362 30.3493 65.4802 30.4187 65.6509 30.44C65.9922 30.472 66.3335 30.4827 66.6749 30.472C67.0162 30.472 67.3575 30.4773 67.6989 30.488C68.4669 30.5093 69.2349 30.5253 70.0029 30.536C70.7709 30.5573 71.5389 30.568 72.3069 30.568C73.2669 30.568 74.2215 30.5787 75.1709 30.6C76.1202 30.632 77.0749 30.648 78.0349 30.648ZM90.8798 28.12L90.8318 29.72V30.52C90.8318 30.712 90.8958 30.8667 91.0238 30.984C91.1624 31.1013 91.3224 31.16 91.5038 31.16C91.6958 31.16 91.8611 31.096 91.9998 30.968C92.1491 30.8507 92.2504 30.696 92.3038 30.504C92.3251 30.4293 92.3304 30.3493 92.3198 30.264C92.3198 30.1787 92.3198 30.0933 92.3198 30.008C92.3198 29.5387 92.3251 29.0747 92.3358 28.616C92.3571 28.1467 92.3678 27.672 92.3678 27.192C92.3678 25.8373 92.3518 24.4933 92.3198 23.16C92.2984 21.816 92.2664 20.4667 92.2238 19.112C92.2238 19.0373 92.2238 18.92 92.2238 18.76C92.2238 18.5893 92.2184 18.4187 92.2078 18.248C92.1971 18.0667 92.1864 17.9013 92.1758 17.752C92.1651 17.6027 92.1544 17.5067 92.1438 17.464C92.0904 17.3253 92.0051 17.2187 91.8878 17.144C91.7811 17.0693 91.6531 17.032 91.5038 17.032C91.3011 17.032 91.1144 17.1067 90.9438 17.256C90.7838 17.4053 90.7038 17.5867 90.7038 17.8C90.7038 18.3333 90.7144 18.8613 90.7358 19.384C90.7571 19.9067 90.7784 20.4347 90.7998 20.968C90.8424 22.1627 90.8638 23.3573 90.8638 24.552C90.8744 25.736 90.8798 26.9253 90.8798 28.12ZM81.0078 19.224C81.5198 19.224 82.0318 19.2187 82.5438 19.208C83.0664 19.1973 83.5838 19.1813 84.0958 19.16C84.3304 19.1493 84.5598 19.1387 84.7838 19.128C85.0184 19.1173 85.2531 19.112 85.4878 19.112H85.7758C85.8291 19.112 85.8771 19.112 85.9198 19.112C85.9624 19.112 86.0104 19.1173 86.0638 19.128C86.0744 19.1707 86.0798 19.2133 86.0798 19.256C86.0904 19.288 86.0958 19.3307 86.0958 19.384C86.0958 19.6827 86.0638 19.9813 85.9998 20.28C85.9358 20.568 85.8611 20.856 85.7758 21.144C85.4878 22.1787 85.1091 23.1653 84.6398 24.104C84.1811 25.0427 83.5998 25.9227 82.8958 26.744C82.7144 26.9467 82.5278 27.144 82.3358 27.336C82.1544 27.528 81.9624 27.7147 81.7598 27.896C81.6744 27.9707 81.5838 28.04 81.4878 28.104C81.3918 28.168 81.3064 28.2427 81.2318 28.328C81.1038 28.4773 81.0398 28.6373 81.0398 28.808C81.0398 29 81.1038 29.1547 81.2318 29.272C81.3704 29.3893 81.5304 29.448 81.7118 29.448C81.8184 29.448 81.9304 29.416 82.0478 29.352C82.1651 29.2987 82.2771 29.2293 82.3838 29.144C82.5011 29.0587 82.6078 28.968 82.7038 28.872C82.7998 28.776 82.8904 28.6907 82.9758 28.616C84.0211 27.6453 84.8904 26.5467 85.5838 25.32C86.2878 24.0933 86.8264 22.7973 87.1998 21.432C87.3064 21.0693 87.3971 20.7067 87.4718 20.344C87.5464 19.9707 87.5838 19.5973 87.5838 19.224C87.5838 18.9893 87.5304 18.7387 87.4237 18.472C87.3491 18.28 87.2424 18.136 87.1038 18.04C86.9758 17.9333 86.8318 17.8587 86.6718 17.816C86.5118 17.7627 86.3411 17.7307 86.1598 17.72C85.9784 17.7093 85.8024 17.704 85.6318 17.704C85.2584 17.704 84.8851 17.7147 84.5118 17.736C84.1384 17.7573 83.7651 17.7787 83.3918 17.8H82.3038C82.2291 17.8 82.1224 17.8 81.9838 17.8C81.8451 17.8 81.7011 17.8053 81.5518 17.816C81.4131 17.816 81.2744 17.8213 81.1358 17.832C81.0078 17.8427 80.9118 17.8587 80.8478 17.88C80.6984 17.9333 80.5758 18.024 80.4798 18.152C80.3838 18.28 80.3358 18.424 80.3358 18.584C80.3358 18.776 80.3998 18.9307 80.5278 19.048C80.6664 19.1653 80.8264 19.224 81.0078 19.224Z" fill="#2A3524"/>
<rect x="1" y="1" width="109" height="46" rx="22" stroke="#5BF2AA" stroke-width="2"/>
</svg>
