<svg width="24" height="24" viewBox="0 0 24 24" fill="none" xmlns="http://www.w3.org/2000/svg">
<path fill-rule="evenodd" clip-rule="evenodd" d="M1 6.5C1 5.67157 1.67157 5 2.5 5H21.5C22.3284 5 23 5.67157 23 6.5C23 7.32843 22.3284 8 21.5 8H2.5C1.67157 8 1 7.32843 1 6.5ZM1 12.5C1 11.6716 1.67157 11 2.5 11H21.5C22.3284 11 23 11.6716 23 12.5C23 13.3284 22.3284 14 21.5 14H2.5C1.67157 14 1 13.3284 1 12.5ZM2.5 17C1.67157 17 1 17.6716 1 18.5C1 19.3284 1.67157 20 2.5 20H21.5C22.3284 20 23 19.3284 23 18.5C23 17.6716 22.3284 17 21.5 17H2.5Z" fill="#2A3524"/>
</svg>
