<svg width="162" height="48" viewBox="0 0 162 48" fill="none" xmlns="http://www.w3.org/2000/svg">
<rect x="1" y="1" width="160" height="46" rx="22" fill="white"/>
<path d="M28 18C28.1989 18 28.3897 18.079 28.5303 18.2197C28.671 18.3603 28.75 18.5511 28.75 18.75V23.25H33.25C33.4489 23.25 33.6397 23.329 33.7803 23.4697C33.921 23.6103 34 23.8011 34 24C34 24.1989 33.921 24.3897 33.7803 24.5303C33.6397 24.671 33.4489 24.75 33.25 24.75H28.75V29.25C28.75 29.4489 28.671 29.6397 28.5303 29.7803C28.3897 29.921 28.1989 30 28 30C27.8011 30 27.6103 29.921 27.4697 29.7803C27.329 29.6397 27.25 29.4489 27.25 29.25V24.75H22.75C22.5511 24.75 22.3603 24.671 22.2197 24.5303C22.079 24.3897 22 24.1989 22 24C22 23.8011 22.079 23.6103 22.2197 23.4697C22.3603 23.329 22.5511 23.25 22.75 23.25H27.25V18.75C27.25 18.5511 27.329 18.3603 27.4697 18.2197C27.6103 18.079 27.8011 18 28 18Z" fill="#14CD8A"/>
<path d="M50.384 22.104C50.384 22.296 50.448 22.4507 50.576 22.568C50.7147 22.6853 50.8747 22.744 51.056 22.744C51.248 22.744 51.44 22.6693 51.632 22.52C51.824 22.3707 51.9947 22.2373 52.144 22.12C52.592 21.7573 53.008 21.3787 53.392 20.984C53.7867 20.5787 54.1387 20.136 54.448 19.656C55.0667 19.912 55.68 20.168 56.288 20.424C56.896 20.68 57.5093 20.9413 58.128 21.208C58.3733 21.304 58.6133 21.4053 58.848 21.512C59.0827 21.6187 59.3227 21.7147 59.568 21.8C59.6427 21.832 59.728 21.848 59.824 21.848C60.0267 21.848 60.208 21.7733 60.368 21.624C60.5387 21.4747 60.624 21.2933 60.624 21.08C60.624 20.856 60.5387 20.6853 60.368 20.568C60.2827 20.5147 60.192 20.472 60.096 20.44C60 20.408 59.9093 20.3707 59.824 20.328C59.632 20.2533 59.44 20.1787 59.248 20.104C59.056 20.0187 58.864 19.9333 58.672 19.848C58.2027 19.6453 57.7387 19.448 57.28 19.256C56.8213 19.0533 56.3573 18.856 55.888 18.664L55.12 18.328C55.1307 18.296 55.1413 18.264 55.152 18.232C55.1627 18.2 55.1733 18.168 55.184 18.136C55.216 18.04 55.2587 17.9013 55.312 17.72C55.3653 17.528 55.392 17.3893 55.392 17.304C55.392 17.112 55.3227 16.9573 55.184 16.84C55.056 16.7227 54.9013 16.664 54.72 16.664C54.528 16.664 54.3787 16.7067 54.272 16.792C54.1653 16.8773 54.08 16.984 54.016 17.112C53.952 17.24 53.8987 17.384 53.856 17.544C53.824 17.6933 53.7813 17.8373 53.728 17.976C53.664 18.168 53.584 18.3547 53.488 18.536C53.392 18.7067 53.2907 18.8827 53.184 19.064C52.9067 19.4907 52.576 19.896 52.192 20.28C51.8187 20.6533 51.424 20.9893 51.008 21.288C50.8587 21.3947 50.7147 21.5067 50.576 21.624C50.448 21.7307 50.384 21.8907 50.384 22.104ZM54.432 24.744C55.8827 24.744 57.328 24.728 58.768 24.696C59.6427 24.664 60.5173 24.648 61.392 24.648C61.5947 24.648 61.776 24.5733 61.936 24.424C62.1067 24.2747 62.192 24.0933 62.192 23.88C62.192 23.6347 62.1067 23.4693 61.936 23.384C61.7653 23.288 61.5733 23.24 61.36 23.24C60.9547 23.24 60.544 23.2453 60.128 23.256C59.7227 23.2667 59.3173 23.2773 58.912 23.288C58.176 23.3093 57.4507 23.3253 56.736 23.336C56.0213 23.3467 55.296 23.352 54.56 23.352C53.4507 23.352 52.3467 23.336 51.248 23.304C50.9387 23.2933 50.624 23.2773 50.304 23.256C49.9947 23.2347 49.6853 23.224 49.376 23.224C49.1733 23.224 48.9867 23.2987 48.816 23.448C48.656 23.5973 48.576 23.7787 48.576 23.992C48.576 24.2587 48.704 24.4507 48.96 24.568C49.0027 24.5893 49.152 24.6107 49.408 24.632C49.6747 24.6533 49.9893 24.6693 50.352 24.68C50.7147 24.6907 51.1093 24.7013 51.536 24.712C51.9627 24.7227 52.368 24.7333 52.752 24.744C53.1467 24.744 53.4933 24.744 53.792 24.744C54.1013 24.744 54.3147 24.744 54.432 24.744ZM52.416 27.48C52.4053 27.2667 52.3947 27.0747 52.384 26.904C52.384 26.7333 52.3787 26.6053 52.368 26.52C52.368 26.456 52.368 26.392 52.368 26.328C52.368 26.2533 52.3573 26.184 52.336 26.12C52.304 25.96 52.224 25.8373 52.096 25.752C51.968 25.6667 51.8293 25.624 51.68 25.624C51.4773 25.624 51.2907 25.6987 51.12 25.848C50.96 25.9973 50.88 26.1787 50.88 26.392C50.88 26.5413 50.8853 26.6907 50.896 26.84C50.9067 26.9893 50.9173 27.1387 50.928 27.288L51.024 29.064C51.0453 29.288 51.0613 29.512 51.072 29.736C51.0933 29.9707 51.1413 30.1947 51.216 30.408C51.2907 30.6213 51.3973 30.7867 51.536 30.904C51.6853 31.032 51.8453 31.128 52.016 31.192C52.1973 31.256 52.3893 31.2933 52.592 31.304C52.7947 31.3253 52.992 31.336 53.184 31.336H54.544C55.2587 31.336 55.968 31.3307 56.672 31.32C57.376 31.32 58.0853 31.2933 58.8 31.24C58.928 31.2293 59.0613 31.224 59.2 31.224C59.3387 31.224 59.472 31.208 59.6 31.176C59.8667 31.1013 60.0373 30.9627 60.112 30.76C60.1973 30.568 60.24 30.3493 60.24 30.104V29.272L60.192 27.576V26.744C60.192 26.616 60.1867 26.488 60.176 26.36C60.1653 26.2213 60.1387 26.0987 60.096 25.992C60.0533 25.8853 59.984 25.8 59.888 25.736C59.792 25.6613 59.6587 25.624 59.488 25.624C59.2853 25.624 59.0987 25.6987 58.928 25.848C58.768 25.9973 58.688 26.1787 58.688 26.392C58.688 26.5413 58.688 26.6907 58.688 26.84C58.6987 26.9893 58.704 27.1387 58.704 27.288C57.7333 27.2987 56.768 27.32 55.808 27.352C54.8587 27.384 53.904 27.4213 52.944 27.464C52.88 27.464 52.8 27.4693 52.704 27.48C52.6187 27.48 52.5227 27.48 52.416 27.48ZM58.752 29.768L58.736 29.864C57.9147 29.9173 57.0933 29.944 56.272 29.944C55.4613 29.944 54.6453 29.944 53.824 29.944C53.7493 29.944 53.6587 29.944 53.552 29.944C53.4453 29.944 53.3333 29.9387 53.216 29.928C53.1093 29.928 53.0027 29.9227 52.896 29.912C52.7893 29.9013 52.704 29.8853 52.64 29.864C52.6187 29.8107 52.5973 29.6933 52.576 29.512C52.5547 29.3413 52.5333 29.1333 52.512 28.888C52.704 28.8667 52.896 28.856 53.088 28.856C53.28 28.8453 53.4773 28.8347 53.68 28.824C54.5227 28.7707 55.3653 28.7387 56.208 28.728C57.0507 28.7173 57.8933 28.712 58.736 28.712C58.7467 28.8933 58.752 29.0693 58.752 29.24C58.752 29.4107 58.752 29.5867 58.752 29.768ZM73.2129 17.56V18.024L73.2289 18.984V21.288L73.1969 23.48C73.1435 23.4907 73.0955 23.5013 73.0529 23.512C73.0102 23.512 72.9622 23.512 72.9089 23.512C72.5249 23.5547 72.1142 23.5867 71.6769 23.608C71.2502 23.6293 70.8449 23.6507 70.4609 23.672L68.6849 23.784C68.5355 23.7947 68.3862 23.8053 68.2369 23.816C68.0875 23.816 67.9382 23.8213 67.7889 23.832V22.744L67.7729 21.784V21.32C67.7729 21.064 67.7355 20.8347 67.6609 20.632C67.5862 20.4187 67.3942 20.312 67.0849 20.312C66.8822 20.312 66.6955 20.3867 66.5249 20.536C66.3649 20.6853 66.2849 20.8667 66.2849 21.08C66.2849 21.4533 66.2902 21.832 66.3009 22.216C66.3115 22.5893 66.3169 22.968 66.3169 23.352V23.64L66.3009 23.912C66.1729 23.912 65.9809 23.9173 65.7249 23.928C65.4689 23.9387 65.2022 23.9547 64.9249 23.976C64.6582 23.9867 64.4075 24.0027 64.1729 24.024C63.9489 24.0453 63.8049 24.0667 63.7409 24.088C63.5915 24.1413 63.4635 24.232 63.3569 24.36C63.2502 24.488 63.1969 24.6373 63.1969 24.808C63.1969 25 63.2609 25.1547 63.3889 25.272C63.5275 25.3893 63.6875 25.448 63.8689 25.448C63.9862 25.448 64.1035 25.4427 64.2209 25.432C64.3489 25.4213 64.4715 25.4107 64.5889 25.4L66.1249 25.32C66.2742 25.3093 66.5089 25.2987 66.8289 25.288C67.1595 25.2667 67.5382 25.2453 67.9649 25.224C68.4022 25.2027 68.8662 25.1813 69.3569 25.16C69.8582 25.128 70.3435 25.096 70.8129 25.064C71.2929 25.032 71.7409 25.0053 72.1569 24.984C72.5729 24.952 72.9195 24.92 73.1969 24.888L73.1809 24.984V26.84C73.1809 27.032 73.2449 27.1867 73.3729 27.304C73.5115 27.4213 73.6715 27.48 73.8529 27.48C74.0235 27.48 74.1782 27.432 74.3169 27.336C74.4555 27.2293 74.5515 27.1013 74.6049 26.952C74.6262 26.8987 74.6422 26.808 74.6529 26.68C74.6635 26.5413 74.6689 26.4027 74.6689 26.264C74.6795 26.1147 74.6849 25.9707 74.6849 25.832C74.6849 25.6933 74.6849 25.5867 74.6849 25.512V23.288C75.0689 23.2987 75.4475 23.3093 75.8209 23.32C76.1942 23.3307 76.5355 23.336 76.8449 23.336C77.0475 23.336 77.2289 23.2613 77.3889 23.112C77.5595 22.9627 77.6449 22.7813 77.6449 22.568C77.6449 22.4187 77.6129 22.3013 77.5489 22.216C77.4849 22.1307 77.4049 22.0667 77.3089 22.024C77.2129 21.9813 77.1062 21.9547 76.9889 21.944C76.8715 21.9333 76.7542 21.928 76.6369 21.928C76.3595 21.9173 76.0555 21.912 75.7249 21.912C75.3942 21.9013 75.0529 21.8907 74.7009 21.88V17.768C74.7009 17.64 74.6955 17.5173 74.6849 17.4C74.6742 17.2827 74.6422 17.1813 74.5889 17.096C74.5462 17 74.4769 16.9253 74.3809 16.872C74.2955 16.8187 74.1729 16.792 74.0129 16.792C73.8102 16.792 73.6235 16.8667 73.4529 17.016C73.2929 17.1653 73.2129 17.3467 73.2129 17.56ZM64.9089 18.76C65.6235 18.76 66.3329 18.728 67.0369 18.664C67.7409 18.6 68.4502 18.568 69.1649 18.568C69.2715 18.568 69.3729 18.568 69.4689 18.568C69.5755 18.568 69.6822 18.5733 69.7889 18.584C69.8102 18.6373 69.8209 18.6853 69.8209 18.728C69.8209 18.76 69.8209 18.8027 69.8209 18.856C69.8209 18.9947 69.8155 19.128 69.8049 19.256C69.7942 19.384 69.7782 19.5173 69.7569 19.656L69.6289 21.256C69.6182 21.3733 69.6075 21.4853 69.5969 21.592C69.5862 21.688 69.5809 21.7893 69.5809 21.896C69.5809 22.088 69.6449 22.2427 69.7729 22.36C69.9115 22.4773 70.0715 22.536 70.2529 22.536C70.4342 22.536 70.5942 22.4827 70.7329 22.376C70.8822 22.2587 70.9835 22.1147 71.0369 21.944C71.0582 21.848 71.0689 21.7467 71.0689 21.64C71.0795 21.5333 71.0902 21.4267 71.1009 21.32L71.1649 20.44C71.1862 20.152 71.2129 19.864 71.2449 19.576C71.2875 19.288 71.3089 19 71.3089 18.712C71.3089 18.4133 71.2555 18.1413 71.1489 17.896C71.0742 17.6933 70.9675 17.544 70.8289 17.448C70.7009 17.352 70.5515 17.2827 70.3809 17.24C70.2209 17.1973 70.0449 17.176 69.8529 17.176C69.6715 17.176 69.4902 17.176 69.3089 17.176C68.8289 17.176 68.3489 17.1973 67.8689 17.24C67.3995 17.272 66.9249 17.2987 66.4449 17.32C66.1995 17.3307 65.9542 17.336 65.7089 17.336C65.4635 17.3253 65.2182 17.336 64.9729 17.368C64.8875 17.368 64.8022 17.3893 64.7169 17.432C64.5782 17.4853 64.4609 17.576 64.3649 17.704C64.2795 17.832 64.2369 17.9707 64.2369 18.12C64.2369 18.312 64.3009 18.4667 64.4289 18.584C64.5675 18.7013 64.7275 18.76 64.9089 18.76ZM67.8529 31.288C68.5995 31.288 69.3409 31.2773 70.0769 31.256C70.8235 31.2453 71.5702 31.2293 72.3169 31.208L73.7089 31.176C73.8262 31.1653 73.9435 31.16 74.0609 31.16C74.1782 31.1707 74.2955 31.1653 74.4129 31.144C74.4769 31.144 74.5515 31.128 74.6369 31.096C74.7862 31.0427 74.9089 30.952 75.0049 30.824C75.1009 30.696 75.1489 30.552 75.1489 30.392C75.1489 30.2 75.0795 30.0453 74.9409 29.928C74.8129 29.8107 74.6582 29.752 74.4769 29.752C74.1035 29.752 73.7302 29.7573 73.3569 29.768C72.9942 29.7893 72.6262 29.8053 72.2529 29.816C71.5275 29.8373 70.8075 29.8533 70.0929 29.864C69.3782 29.8853 68.6582 29.896 67.9329 29.896C67.8155 29.896 67.6982 29.8907 67.5809 29.88C67.4635 29.88 67.3462 29.8587 67.2289 29.816C67.2075 29.72 67.1969 29.6187 67.1969 29.512C67.1969 29.416 67.1969 29.32 67.1969 29.224C67.1755 28.9787 67.1542 28.744 67.1329 28.52C67.1222 28.2853 67.1062 28.0507 67.0849 27.816C67.0742 27.6773 67.0635 27.5333 67.0529 27.384C67.0422 27.2347 67.0155 27.096 66.9729 26.968C66.9409 26.84 66.8769 26.7387 66.7809 26.664C66.6849 26.5787 66.5409 26.536 66.3489 26.536C66.1462 26.536 65.9595 26.6107 65.7889 26.76C65.6289 26.9093 65.5489 27.0907 65.5489 27.304C65.5489 27.3893 65.5489 27.4693 65.5489 27.544C65.5595 27.6187 65.5702 27.6987 65.5809 27.784L65.6289 28.264C65.6502 28.5627 65.6662 28.8613 65.6769 29.16C65.6982 29.4587 65.7249 29.7627 65.7569 30.072C65.7782 30.3493 65.8582 30.568 65.9969 30.728C66.1355 30.8987 66.3009 31.0213 66.4929 31.096C66.6955 31.1813 66.9142 31.2347 67.1489 31.256C67.3942 31.2773 67.6289 31.288 67.8529 31.288ZM93.2521 21.128V21.944L93.3001 23.576V24.392C93.3001 24.584 93.3641 24.7387 93.4921 24.856C93.6308 24.9733 93.7908 25.032 93.9721 25.032C94.2388 25.032 94.4415 24.9413 94.5801 24.76C94.7188 24.568 94.7881 24.3493 94.7881 24.104C94.7881 23.6773 94.7775 23.256 94.7561 22.84C94.7455 22.424 94.7348 22.0027 94.7241 21.576V19.896C94.7241 19.5227 94.7135 19.1547 94.6921 18.792C94.6708 18.4187 94.6388 18.0453 94.5961 17.672C94.5748 17.4373 94.5215 17.24 94.4361 17.08C94.3508 16.9093 94.1695 16.824 93.8921 16.824C93.6788 16.824 93.4921 16.8987 93.3321 17.048C93.1721 17.1973 93.0921 17.3787 93.0921 17.592C93.0921 17.816 93.1081 18.04 93.1401 18.264C93.1721 18.488 93.1988 18.712 93.2201 18.936C93.2415 19.2987 93.2521 19.6613 93.2521 20.024C93.2521 20.3867 93.2521 20.7547 93.2521 21.128ZM88.6121 18.648C88.4521 18.8933 88.2975 19.1387 88.1481 19.384C88.0095 19.6187 87.8601 19.8533 87.7001 20.088C86.8041 21.3573 85.7268 22.4133 84.4681 23.256C84.3081 23.3627 84.1428 23.4587 83.9721 23.544C83.8121 23.6293 83.6575 23.7253 83.5081 23.832C83.4015 23.9173 83.3108 24.0133 83.2361 24.12C83.1721 24.216 83.1401 24.3333 83.1401 24.472C83.1401 24.664 83.2041 24.8187 83.3321 24.936C83.4708 25.0533 83.6308 25.112 83.8121 25.112C83.8975 25.112 83.9935 25.0907 84.1001 25.048C84.2068 25.0053 84.3135 24.952 84.4201 24.888C84.5268 24.824 84.6281 24.76 84.7241 24.696C84.8308 24.632 84.9215 24.5733 84.9961 24.52C85.3481 24.2853 85.6841 24.0507 86.0041 23.816C86.3241 23.5707 86.6281 23.3147 86.9161 23.048C87.1081 23.1653 87.3375 23.304 87.6041 23.464C87.8708 23.6133 88.1268 23.7627 88.3721 23.912C88.6281 24.0507 88.8521 24.1733 89.0441 24.28C89.2468 24.3867 89.3748 24.4507 89.4281 24.472C89.5135 24.5147 89.6095 24.536 89.7161 24.536C89.9188 24.536 90.1001 24.4613 90.2601 24.312C90.4308 24.1627 90.5161 23.9813 90.5161 23.768C90.5161 23.5867 90.4521 23.4373 90.3241 23.32C90.2815 23.2773 90.2175 23.2347 90.1321 23.192C90.0575 23.1387 89.9721 23.0907 89.8761 23.048C89.7908 22.9947 89.7001 22.9467 89.6041 22.904C89.5188 22.8507 89.4441 22.808 89.3801 22.776L89.0441 22.584L88.3721 22.184C88.3188 22.152 88.2601 22.12 88.1961 22.088C88.1428 22.056 88.0841 22.0187 88.0201 21.976H87.9881C88.1375 21.784 88.2868 21.592 88.4361 21.4C88.5961 21.1973 88.7508 20.9893 88.9001 20.776C89.0388 20.584 89.1668 20.3867 89.2841 20.184C89.4121 19.9813 89.5401 19.7787 89.6681 19.576C89.7855 19.3947 89.9135 19.1973 90.0521 18.984C90.1908 18.7707 90.2601 18.552 90.2601 18.328C90.2601 18.0507 90.1801 17.8373 90.0201 17.688C89.8601 17.5387 89.6628 17.4213 89.4281 17.336C89.3321 17.304 89.1615 17.2827 88.9161 17.272C88.6708 17.2507 88.4095 17.24 88.1321 17.24C87.8548 17.2293 87.5881 17.224 87.3321 17.224C87.0761 17.224 86.8895 17.224 86.7721 17.224H85.2841L84.3561 17.192H83.8921C83.6895 17.192 83.5028 17.2667 83.3321 17.416C83.1721 17.5653 83.0921 17.7467 83.0921 17.96C83.0921 18.2373 83.2201 18.4293 83.4761 18.536C83.5188 18.5573 83.6575 18.5733 83.8921 18.584C84.1375 18.5947 84.4308 18.6053 84.7721 18.616C85.1135 18.6267 85.4815 18.632 85.8761 18.632C86.2708 18.632 86.6495 18.632 87.0121 18.632C87.3748 18.632 87.7001 18.6373 87.9881 18.648C88.2868 18.648 88.4948 18.648 88.6121 18.648ZM85.3161 27.48C86.1908 27.48 87.0655 27.464 87.9401 27.432C88.8148 27.3893 89.6895 27.3467 90.5641 27.304C90.8841 27.2827 91.2041 27.2613 91.5241 27.24C91.8548 27.2187 92.1801 27.208 92.5001 27.208C92.5321 27.208 92.5801 27.2133 92.6441 27.224C92.7081 27.224 92.7721 27.2293 92.8361 27.24C92.9001 27.2507 92.9588 27.272 93.0121 27.304C93.0655 27.3253 93.0975 27.352 93.1081 27.384C93.1188 27.4053 93.1241 27.4427 93.1241 27.496C93.1241 27.5387 93.1241 27.5707 93.1241 27.592C93.1241 27.8267 93.1135 28.0613 93.0921 28.296C93.0815 28.5307 93.0708 28.7653 93.0601 29V29.272L93.0441 29.8V30.056C93.0335 30.1947 93.0228 30.328 93.0121 30.456C93.0015 30.584 92.9961 30.7173 92.9961 30.856C92.9961 31.048 93.0601 31.2027 93.1881 31.32C93.3268 31.4373 93.4868 31.496 93.6681 31.496C93.8068 31.496 93.9455 31.4533 94.0841 31.368C94.2975 31.24 94.4201 31.064 94.4521 30.84C94.4841 30.6267 94.5055 30.4133 94.5161 30.2C94.5268 30.0187 94.5321 29.8427 94.5321 29.672C94.5321 29.512 94.5321 29.3413 94.5321 29.16C94.5428 28.8933 94.5535 28.632 94.5641 28.376C94.5855 28.1093 94.5961 27.8427 94.5961 27.576C94.5961 27.4587 94.5908 27.3467 94.5801 27.24C94.5801 27.1227 94.5641 27.0053 94.5321 26.888C94.4681 26.6853 94.3721 26.5147 94.2441 26.376C94.1161 26.2267 93.9615 26.1147 93.7801 26.04C93.6095 25.9547 93.4228 25.896 93.2201 25.864C93.0281 25.8213 92.8361 25.8 92.6441 25.8C92.3348 25.8 92.0255 25.8107 91.7161 25.832C91.4175 25.8533 91.1135 25.8747 90.8041 25.896C90.1321 25.9387 89.4548 25.9707 88.7721 25.992C88.0895 26.0133 87.4121 26.0347 86.7401 26.056C86.6548 26.056 86.5375 26.056 86.3881 26.056C86.2388 26.056 86.0841 26.056 85.9241 26.056C85.7748 26.056 85.6308 26.0613 85.4921 26.072C85.3535 26.0827 85.2521 26.0987 85.1881 26.12C85.0388 26.1733 84.9108 26.264 84.8041 26.392C84.6975 26.52 84.6441 26.6693 84.6441 26.84C84.6441 27.032 84.7081 27.1867 84.8361 27.304C84.9748 27.4213 85.1348 27.48 85.3161 27.48ZM108.159 19.944V20.28H107.503L106.175 20.296H105.519C105.284 20.296 105.066 20.36 104.863 20.488C104.66 20.6053 104.559 20.7973 104.559 21.064C104.559 21.256 104.623 21.4107 104.751 21.528C104.89 21.6453 105.05 21.704 105.231 21.704L107.247 21.688C107.354 21.688 107.482 21.6933 107.631 21.704C107.791 21.704 107.951 21.704 108.111 21.704C108.111 21.7573 108.106 21.816 108.095 21.88C108.095 21.9333 108.095 21.9867 108.095 22.04L108.063 22.712C108.063 22.7653 108.058 22.824 108.047 22.888C108.047 22.9413 108.047 22.9947 108.047 23.048C108.036 23.176 108.026 23.3093 108.015 23.448C108.004 23.576 107.999 23.704 107.999 23.832C107.999 24.024 108.063 24.1787 108.191 24.296C108.33 24.4133 108.49 24.472 108.671 24.472C108.82 24.472 108.959 24.4293 109.087 24.344C109.226 24.2587 109.332 24.1467 109.407 24.008C109.428 23.9547 109.45 23.8853 109.471 23.8C109.524 23.5227 109.546 23.24 109.535 22.952C109.535 22.6533 109.54 22.3653 109.551 22.088C109.572 21.704 109.588 21.3253 109.599 20.952C109.62 20.568 109.631 20.1893 109.631 19.816C109.631 19.5813 109.626 19.3467 109.615 19.112C109.604 18.8773 109.594 18.6427 109.583 18.408C109.583 18.344 109.578 18.264 109.567 18.168C109.567 18.072 109.567 17.976 109.567 17.88C109.567 17.7733 109.562 17.6773 109.551 17.592C109.54 17.496 109.53 17.416 109.519 17.352C109.476 17.192 109.391 17.0693 109.263 16.984C109.146 16.8987 109.012 16.856 108.863 16.856C108.66 16.856 108.474 16.9307 108.303 17.08C108.143 17.2293 108.063 17.4107 108.063 17.624C108.063 18.0187 108.079 18.408 108.111 18.792C108.143 19.176 108.159 19.56 108.159 19.944ZM103.439 18.648C103.29 18.8613 103.146 19.08 103.007 19.304C102.868 19.5173 102.724 19.7307 102.575 19.944C102.202 20.456 101.791 20.9307 101.343 21.368C100.895 21.8053 100.415 22.2107 99.9031 22.584C99.5938 22.7973 99.2525 23.016 98.8791 23.24C98.7938 23.2933 98.7031 23.3413 98.6071 23.384C98.5218 23.4267 98.4365 23.48 98.3511 23.544C98.2551 23.6187 98.1751 23.7093 98.1111 23.816C98.0471 23.9227 98.0151 24.0347 98.0151 24.152C98.0151 24.344 98.0791 24.4987 98.2071 24.616C98.3458 24.7333 98.5058 24.792 98.6871 24.792C98.8578 24.792 99.0551 24.7227 99.2791 24.584C99.5031 24.4453 99.6898 24.328 99.8391 24.232C100.18 24.0187 100.511 23.7947 100.831 23.56C101.151 23.3147 101.466 23.064 101.775 22.808C101.967 22.9253 102.191 23.0587 102.447 23.208C102.714 23.3467 102.97 23.4853 103.215 23.624C103.471 23.7627 103.7 23.8853 103.903 23.992C104.106 24.088 104.239 24.1467 104.303 24.168C104.388 24.2107 104.484 24.232 104.591 24.232C104.794 24.232 104.975 24.1573 105.135 24.008C105.306 23.8587 105.391 23.6773 105.391 23.464C105.391 23.2827 105.327 23.1333 105.199 23.016C105.114 22.9307 104.97 22.8453 104.767 22.76C104.575 22.6747 104.42 22.6 104.303 22.536C104.079 22.408 103.855 22.28 103.631 22.152C103.407 22.024 103.178 21.8907 102.943 21.752H102.911C103.22 21.4 103.503 21.0427 103.759 20.68C104.015 20.3067 104.271 19.9227 104.527 19.528C104.644 19.3467 104.772 19.1547 104.911 18.952C105.06 18.7387 105.135 18.52 105.135 18.296C105.135 18.0187 105.055 17.8107 104.895 17.672C104.746 17.5333 104.548 17.4213 104.303 17.336C104.207 17.304 104.036 17.2827 103.791 17.272C103.546 17.2507 103.284 17.24 103.007 17.24C102.73 17.2293 102.463 17.224 102.207 17.224C101.951 17.224 101.764 17.224 101.647 17.224H100.159L99.2311 17.192H98.7671C98.5645 17.192 98.3778 17.2667 98.2071 17.416C98.0471 17.5653 97.9671 17.7467 97.9671 17.96C97.9671 18.2373 98.0951 18.4293 98.3511 18.536C98.3938 18.5573 98.5325 18.5733 98.7671 18.584C99.0125 18.5947 99.3005 18.6053 99.6311 18.616C99.9725 18.6267 100.34 18.632 100.735 18.632C101.13 18.632 101.503 18.632 101.855 18.632C102.218 18.632 102.543 18.6373 102.831 18.648C103.119 18.648 103.322 18.648 103.439 18.648ZM101.279 27.288V27.208L101.263 27.064V27C101.252 26.8187 101.247 26.6373 101.247 26.456C101.247 26.264 101.236 26.0773 101.215 25.896C101.194 25.8107 101.172 25.7467 101.151 25.704C101.012 25.4693 100.81 25.352 100.543 25.352C100.34 25.352 100.154 25.4267 99.9831 25.576C99.8231 25.7253 99.7431 25.9067 99.7431 26.12C99.7431 26.248 99.7485 26.424 99.7591 26.648C99.7698 26.872 99.7805 27.1227 99.7911 27.4C99.8125 27.6773 99.8338 27.9653 99.8551 28.264C99.8765 28.552 99.8978 28.8293 99.9191 29.096C99.9511 29.3627 99.9831 29.6027 100.015 29.816C100.047 30.0293 100.079 30.184 100.111 30.28C100.186 30.504 100.287 30.68 100.415 30.808C100.543 30.936 100.687 31.032 100.847 31.096C101.007 31.1707 101.178 31.2187 101.359 31.24C101.551 31.2613 101.754 31.2773 101.967 31.288C102.148 31.2987 102.319 31.304 102.479 31.304C102.65 31.304 102.826 31.304 103.007 31.304C103.647 31.304 104.276 31.2933 104.895 31.272C105.514 31.2507 106.138 31.2293 106.767 31.208C107.076 31.1973 107.391 31.1973 107.711 31.208C108.031 31.2187 108.346 31.2133 108.655 31.192C108.698 31.1813 108.74 31.1707 108.783 31.16C108.826 31.16 108.868 31.1493 108.911 31.128C109.06 31.0747 109.183 30.984 109.279 30.856C109.375 30.728 109.423 30.584 109.423 30.424C109.423 30.3173 109.418 30.2107 109.407 30.104C109.396 29.9973 109.386 29.8907 109.375 29.784C109.364 29.528 109.359 29.272 109.359 29.016C109.359 28.76 109.359 28.504 109.359 28.248C109.359 27.8427 109.37 27.432 109.391 27.016C109.412 26.6 109.423 26.1893 109.423 25.784C109.423 25.592 109.354 25.4373 109.215 25.32C109.087 25.2027 108.932 25.144 108.751 25.144C108.591 25.144 108.447 25.192 108.319 25.288C108.138 25.4053 108.031 25.5333 107.999 25.672C107.967 25.8107 107.946 25.9707 107.935 26.152C107.924 26.3013 107.919 26.4453 107.919 26.584C107.919 26.7227 107.914 26.8613 107.903 27C107.775 26.9893 107.647 26.984 107.519 26.984C107.391 26.984 107.263 26.984 107.135 26.984C106.655 26.984 106.175 26.9893 105.695 27C105.226 27 104.751 27.016 104.271 27.048C103.791 27.0693 103.322 27.1013 102.863 27.144C102.404 27.1867 101.94 27.2293 101.471 27.272H101.423L101.327 27.288H101.279ZM107.359 28.376L107.871 28.408C107.871 28.6427 107.871 28.872 107.871 29.096C107.882 29.3307 107.892 29.5653 107.903 29.8C107.103 29.8 106.303 29.816 105.503 29.848C104.703 29.8907 103.903 29.912 103.103 29.912C103.039 29.912 102.927 29.912 102.767 29.912C102.618 29.912 102.458 29.9067 102.287 29.896C102.127 29.896 101.972 29.8907 101.823 29.88C101.684 29.8693 101.594 29.848 101.551 29.816C101.498 29.6347 101.46 29.4533 101.439 29.272C101.428 29.0907 101.412 28.9093 101.391 28.728V28.68C101.636 28.6587 101.887 28.6373 102.143 28.616C102.399 28.584 102.65 28.5573 102.895 28.536C103.642 28.472 104.383 28.4293 105.119 28.408C105.866 28.3867 106.612 28.376 107.359 28.376ZM117.35 25.576C117.35 25.768 117.414 25.9227 117.542 26.04C117.681 26.1573 117.841 26.216 118.022 26.216C118.161 26.216 118.284 26.184 118.39 26.12C118.508 26.0453 118.614 25.96 118.71 25.864C118.806 25.7573 118.892 25.6453 118.966 25.528C119.041 25.4 119.116 25.288 119.19 25.192C119.425 24.872 119.654 24.552 119.878 24.232C120.113 23.912 120.321 23.576 120.502 23.224C120.524 23.1707 120.545 23.1227 120.566 23.08C120.598 23.0267 120.625 22.9733 120.646 22.92C120.806 23.0587 120.977 23.2027 121.158 23.352C121.35 23.5013 121.537 23.6453 121.718 23.784C121.9 23.9227 122.07 24.056 122.23 24.184C122.401 24.3013 122.545 24.3973 122.662 24.472C122.62 24.536 122.577 24.6 122.534 24.664C122.502 24.7173 122.465 24.7707 122.422 24.824C122.369 24.8987 122.3 24.984 122.214 25.08C122.14 25.1653 122.065 25.2613 121.99 25.368C121.926 25.464 121.868 25.5653 121.814 25.672C121.761 25.768 121.734 25.864 121.734 25.96C121.734 26.152 121.798 26.3067 121.926 26.424C122.065 26.5413 122.225 26.6 122.406 26.6C122.534 26.6 122.646 26.5733 122.742 26.52C122.849 26.456 122.945 26.3813 123.03 26.296C123.116 26.2 123.196 26.104 123.27 26.008C123.345 25.9013 123.414 25.8 123.478 25.704C124.118 24.7973 124.614 23.864 124.966 22.904C125.137 23.064 125.302 23.2293 125.462 23.4C125.633 23.56 125.798 23.72 125.958 23.88C126.14 24.0613 126.321 24.2427 126.502 24.424C126.684 24.6053 126.865 24.792 127.046 24.984C127.132 25.0693 127.212 25.1653 127.286 25.272C127.372 25.3787 127.468 25.4693 127.574 25.544C127.702 25.64 127.846 25.688 128.006 25.688C128.22 25.688 128.406 25.6133 128.566 25.464C128.726 25.3147 128.806 25.1333 128.806 24.92C128.806 24.7813 128.769 24.6587 128.694 24.552C128.662 24.5093 128.577 24.4133 128.438 24.264C128.31 24.1147 128.15 23.944 127.958 23.752C127.766 23.5493 127.553 23.3307 127.318 23.096C127.084 22.8507 126.849 22.616 126.614 22.392C126.39 22.1573 126.172 21.944 125.958 21.752C125.756 21.56 125.59 21.4 125.462 21.272C125.526 21.016 125.58 20.76 125.622 20.504C125.676 20.2373 125.729 19.9653 125.782 19.688C125.825 19.4213 125.868 19.1547 125.91 18.888C125.953 18.6213 125.974 18.3547 125.974 18.088C125.974 17.896 125.905 17.7413 125.766 17.624C125.638 17.5067 125.484 17.448 125.302 17.448C125.142 17.448 124.998 17.4907 124.87 17.576C124.742 17.6613 124.641 17.7733 124.566 17.912C124.545 17.9547 124.518 18.072 124.486 18.264C124.454 18.456 124.422 18.664 124.39 18.888C124.358 19.112 124.326 19.3307 124.294 19.544C124.273 19.7573 124.257 19.9067 124.246 19.992C124.161 20.504 124.044 21.0267 123.894 21.56C123.745 22.0933 123.564 22.616 123.35 23.128L123.318 23.096C123.148 22.9787 122.977 22.856 122.806 22.728C122.636 22.6 122.47 22.472 122.31 22.344C121.948 22.056 121.585 21.7307 121.222 21.368C121.35 20.92 121.452 20.472 121.526 20.024C121.601 19.5653 121.654 19.1173 121.686 18.68C121.697 18.584 121.702 18.4933 121.702 18.408C121.713 18.312 121.718 18.216 121.718 18.12C121.718 17.928 121.649 17.7733 121.51 17.656C121.382 17.5387 121.228 17.48 121.046 17.48C120.908 17.48 120.764 17.528 120.614 17.624C120.401 17.7627 120.278 17.9333 120.246 18.136C120.225 18.3387 120.209 18.552 120.198 18.776C120.166 19.224 120.108 19.672 120.022 20.12C119.948 20.5573 119.841 20.9947 119.702 21.432C119.617 21.6773 119.526 21.9227 119.43 22.168C119.334 22.4133 119.222 22.6533 119.094 22.888C118.934 23.1653 118.758 23.4373 118.566 23.704C118.385 23.96 118.198 24.216 118.006 24.472C117.91 24.6 117.809 24.728 117.702 24.856C117.596 24.9733 117.505 25.1067 117.43 25.256C117.377 25.3627 117.35 25.4693 117.35 25.576ZM129.222 30.648C129.436 30.648 129.622 30.5733 129.782 30.424C129.942 30.2747 130.022 30.0933 130.022 29.88C130.022 29.6027 129.884 29.4053 129.606 29.288C129.564 29.2667 129.377 29.2507 129.046 29.24C128.716 29.2293 128.31 29.2187 127.83 29.208C127.361 29.1973 126.849 29.1867 126.294 29.176C125.74 29.176 125.206 29.176 124.694 29.176C124.193 29.176 123.745 29.176 123.35 29.176C122.956 29.176 122.689 29.176 122.55 29.176C121.622 29.176 120.7 29.1493 119.782 29.096C118.876 29.0533 117.958 29.032 117.03 29.032C116.817 29.032 116.63 29.1067 116.47 29.256C116.31 29.4053 116.23 29.5867 116.23 29.8C116.23 29.9813 116.289 30.1253 116.406 30.232C116.524 30.3493 116.668 30.4187 116.838 30.44C117.18 30.472 117.521 30.4827 117.862 30.472C118.204 30.472 118.545 30.4773 118.886 30.488C119.654 30.5093 120.422 30.5253 121.19 30.536C121.958 30.5573 122.726 30.568 123.494 30.568C124.454 30.568 125.409 30.5787 126.358 30.6C127.308 30.632 128.262 30.648 129.222 30.648ZM142.067 28.12L142.019 29.72V30.52C142.019 30.712 142.083 30.8667 142.211 30.984C142.35 31.1013 142.51 31.16 142.691 31.16C142.883 31.16 143.049 31.096 143.187 30.968C143.337 30.8507 143.438 30.696 143.491 30.504C143.513 30.4293 143.518 30.3493 143.507 30.264C143.507 30.1787 143.507 30.0933 143.507 30.008C143.507 29.5387 143.513 29.0747 143.523 28.616C143.545 28.1467 143.555 27.672 143.555 27.192C143.555 25.8373 143.539 24.4933 143.507 23.16C143.486 21.816 143.454 20.4667 143.411 19.112C143.411 19.0373 143.411 18.92 143.411 18.76C143.411 18.5893 143.406 18.4187 143.395 18.248C143.385 18.0667 143.374 17.9013 143.363 17.752C143.353 17.6027 143.342 17.5067 143.331 17.464C143.278 17.3253 143.193 17.2187 143.075 17.144C142.969 17.0693 142.841 17.032 142.691 17.032C142.489 17.032 142.302 17.1067 142.131 17.256C141.971 17.4053 141.891 17.5867 141.891 17.8C141.891 18.3333 141.902 18.8613 141.923 19.384C141.945 19.9067 141.966 20.4347 141.987 20.968C142.03 22.1627 142.051 23.3573 142.051 24.552C142.062 25.736 142.067 26.9253 142.067 28.12ZM132.195 19.224C132.707 19.224 133.219 19.2187 133.731 19.208C134.254 19.1973 134.771 19.1813 135.283 19.16C135.518 19.1493 135.747 19.1387 135.971 19.128C136.206 19.1173 136.441 19.112 136.675 19.112H136.963C137.017 19.112 137.065 19.112 137.107 19.112C137.15 19.112 137.198 19.1173 137.251 19.128C137.262 19.1707 137.267 19.2133 137.267 19.256C137.278 19.288 137.283 19.3307 137.283 19.384C137.283 19.6827 137.251 19.9813 137.187 20.28C137.123 20.568 137.049 20.856 136.963 21.144C136.675 22.1787 136.297 23.1653 135.827 24.104C135.369 25.0427 134.787 25.9227 134.083 26.744C133.902 26.9467 133.715 27.144 133.523 27.336C133.342 27.528 133.15 27.7147 132.947 27.896C132.862 27.9707 132.771 28.04 132.675 28.104C132.579 28.168 132.494 28.2427 132.419 28.328C132.291 28.4773 132.227 28.6373 132.227 28.808C132.227 29 132.291 29.1547 132.419 29.272C132.558 29.3893 132.718 29.448 132.899 29.448C133.006 29.448 133.118 29.416 133.235 29.352C133.353 29.2987 133.465 29.2293 133.571 29.144C133.689 29.0587 133.795 28.968 133.891 28.872C133.987 28.776 134.078 28.6907 134.163 28.616C135.209 27.6453 136.078 26.5467 136.771 25.32C137.475 24.0933 138.014 22.7973 138.387 21.432C138.494 21.0693 138.585 20.7067 138.659 20.344C138.734 19.9707 138.771 19.5973 138.771 19.224C138.771 18.9893 138.718 18.7387 138.611 18.472C138.537 18.28 138.43 18.136 138.291 18.04C138.163 17.9333 138.019 17.8587 137.859 17.816C137.699 17.7627 137.529 17.7307 137.347 17.72C137.166 17.7093 136.99 17.704 136.819 17.704C136.446 17.704 136.073 17.7147 135.699 17.736C135.326 17.7573 134.953 17.7787 134.579 17.8H133.491C133.417 17.8 133.31 17.8 133.171 17.8C133.033 17.8 132.889 17.8053 132.739 17.816C132.601 17.816 132.462 17.8213 132.323 17.832C132.195 17.8427 132.099 17.8587 132.035 17.88C131.886 17.9333 131.763 18.024 131.667 18.152C131.571 18.28 131.523 18.424 131.523 18.584C131.523 18.776 131.587 18.9307 131.715 19.048C131.854 19.1653 132.014 19.224 132.195 19.224Z" fill="#14CD8A"/>
<rect x="1" y="1" width="160" height="46" rx="22" stroke="#5BF2AA" stroke-width="2"/>
</svg>
