<svg width="141" height="48" viewBox="0 0 141 48" fill="none" xmlns="http://www.w3.org/2000/svg">
<rect x="1" y="1" width="139" height="46" rx="22" fill="white"/>
<path d="M23.024 22.104C23.632 22.104 24.2293 22.104 24.816 22.104C25.4027 22.0933 26 22.0827 26.608 22.072C26.8533 22.0613 27.072 22.0347 27.264 21.992C27.456 21.9387 27.6 21.7787 27.696 21.512C27.7493 21.384 27.7867 21.2507 27.808 21.112C27.8293 20.9733 27.8507 20.8347 27.872 20.696C27.9467 20.3227 28.0053 19.9493 28.048 19.576C28.0907 19.192 28.112 18.8133 28.112 18.44C28.112 17.8853 27.9947 17.5067 27.76 17.304C27.536 17.1013 27.1573 16.9893 26.624 16.968C26.016 16.936 25.408 16.92 24.8 16.92C24.192 16.9093 23.584 16.904 22.976 16.904C22.816 16.904 22.5493 16.904 22.176 16.904C21.8133 16.904 21.4293 16.9147 21.024 16.936C20.6187 16.9467 20.2453 16.968 19.904 17C19.5627 17.0213 19.3387 17.0587 19.232 17.112C19.0933 17.1867 18.9813 17.2827 18.896 17.4C18.8107 17.5173 18.768 17.6507 18.768 17.8C18.768 18.28 18.784 18.7547 18.816 19.224C18.848 19.6827 18.9227 20.136 19.04 20.584C19.1253 20.9253 19.2213 21.192 19.328 21.384C19.4453 21.5653 19.584 21.7093 19.744 21.816C19.9147 21.912 20.112 21.976 20.336 22.008C20.5707 22.04 20.848 22.0613 21.168 22.072C21.4773 22.0827 21.7867 22.0933 22.096 22.104C22.4053 22.104 22.7147 22.104 23.024 22.104ZM20.256 18.36C20.7253 18.3387 21.1893 18.3227 21.648 18.312C22.1067 18.3013 22.5707 18.296 23.04 18.296C23.4347 18.296 23.824 18.3013 24.208 18.312C24.6027 18.312 24.9973 18.3173 25.392 18.328C25.6053 18.328 25.808 18.3333 26 18.344C26.2027 18.344 26.4107 18.3547 26.624 18.376V18.568C26.624 19.2613 26.5493 19.9653 26.4 20.68C25.856 20.6907 25.3173 20.7013 24.784 20.712C24.2507 20.712 23.712 20.712 23.168 20.712C23.072 20.712 22.896 20.712 22.64 20.712C22.384 20.712 22.1173 20.7067 21.84 20.696C21.5627 20.6853 21.3067 20.6747 21.072 20.664C20.848 20.6427 20.704 20.6213 20.64 20.6C20.5013 20.3013 20.4 19.9387 20.336 19.512C20.2827 19.0747 20.256 18.6907 20.256 18.36ZM22.608 25.432C22.608 25.5067 22.6133 25.56 22.624 25.592C22.2293 25.6133 21.84 25.6347 21.456 25.656C21.072 25.6667 20.72 25.6827 20.4 25.704C20.0907 25.7253 19.824 25.7467 19.6 25.768C19.3867 25.7893 19.2533 25.8107 19.2 25.832C19.0613 25.8853 18.9387 25.976 18.832 26.104C18.7253 26.232 18.672 26.376 18.672 26.536C18.672 26.7173 18.7307 26.8667 18.848 26.984C18.9653 27.0907 19.1147 27.144 19.296 27.144C19.6373 27.144 19.9787 27.128 20.32 27.096C20.672 27.064 21.024 27.0373 21.376 27.016C22.112 26.9733 22.8427 26.9413 23.568 26.92C24.304 26.888 25.04 26.872 25.776 26.872C25.8933 26.872 26.0053 26.872 26.112 26.872C26.2293 26.872 26.3467 26.8773 26.464 26.888V26.904C26.464 27.0533 26.4587 27.1973 26.448 27.336C26.448 27.4747 26.4427 27.6187 26.432 27.768C25.3973 27.7893 24.3627 27.8053 23.328 27.816C22.2933 27.8267 21.2533 27.832 20.208 27.832C19.8667 27.832 19.5787 27.912 19.344 28.072C19.1093 28.232 18.992 28.4987 18.992 28.872C18.992 28.9467 18.992 29.016 18.992 29.08C19.0027 29.1547 19.0133 29.224 19.024 29.288L19.072 29.688C19.0933 29.784 19.104 29.88 19.104 29.976C19.1147 30.072 19.1307 30.168 19.152 30.264C19.2053 30.4987 19.2853 30.6853 19.392 30.824C19.5093 30.9627 19.6427 31.0693 19.792 31.144C19.952 31.2187 20.1227 31.2667 20.304 31.288C20.496 31.32 20.6987 31.3413 20.912 31.352C21.2427 31.3733 21.5733 31.384 21.904 31.384C22.2347 31.3947 22.5707 31.4 22.912 31.4C23.04 31.4 23.2427 31.4 23.52 31.4C23.808 31.4 24.128 31.3947 24.48 31.384C24.8427 31.3733 25.2107 31.3627 25.584 31.352C25.968 31.3413 26.3253 31.3253 26.656 31.304C26.9973 31.2933 27.2907 31.272 27.536 31.24C27.792 31.2187 27.9573 31.1867 28.032 31.144C28.1707 31.0907 28.288 31 28.384 30.872C28.48 30.744 28.528 30.6053 28.528 30.456C28.528 30.2747 28.4693 30.1253 28.352 30.008C28.2347 29.9013 28.0853 29.848 27.904 29.848C27.808 29.848 27.712 29.8533 27.616 29.864C27.5307 29.8747 27.44 29.8853 27.344 29.896C27.1733 29.9173 27.0027 29.928 26.832 29.928C26.6613 29.9387 26.4853 29.9493 26.304 29.96C25.7707 29.992 25.2427 30.0133 24.72 30.024C24.1973 30.0347 23.664 30.04 23.12 30.04C23.0453 30.04 22.8747 30.04 22.608 30.04C22.3413 30.04 22.064 30.0347 21.776 30.024C21.488 30.0133 21.2267 29.9973 20.992 29.976C20.7573 29.9653 20.6347 29.9493 20.624 29.928C20.6027 29.896 20.5867 29.848 20.576 29.784C20.5653 29.72 20.5547 29.6507 20.544 29.576C20.544 29.5013 20.5387 29.4267 20.528 29.352C20.528 29.288 20.5227 29.24 20.512 29.208C21.2267 29.1973 21.936 29.1867 22.64 29.176C23.344 29.176 24.0533 29.1707 24.768 29.16C25.0773 29.1493 25.424 29.1493 25.808 29.16C26.2027 29.1707 26.544 29.144 26.832 29.08C26.9813 29.048 27.12 29 27.248 28.936C27.376 28.872 27.488 28.7813 27.584 28.664C27.68 28.5573 27.7493 28.424 27.792 28.264C27.8453 28.0933 27.8827 27.9227 27.904 27.752C27.9253 27.5707 27.936 27.3947 27.936 27.224C27.936 27.0427 27.936 26.8827 27.936 26.744C27.936 26.2533 27.8293 25.9333 27.616 25.784C27.4027 25.6347 27.072 25.5493 26.624 25.528C26.4427 25.5173 26.2613 25.512 26.08 25.512C25.9093 25.512 25.7333 25.512 25.552 25.512C25.4347 25.512 25.2373 25.5173 24.96 25.528C24.6933 25.528 24.384 25.5333 24.032 25.544C24.0747 25.4267 24.096 25.304 24.096 25.176C24.096 25.0373 24.096 24.8987 24.096 24.76V24.488V24.392C24.9813 24.392 25.8613 24.3973 26.736 24.408C27.6213 24.4187 28.512 24.424 29.408 24.424C29.6107 24.424 29.792 24.3493 29.952 24.2C30.1227 24.0507 30.208 23.8693 30.208 23.656C30.208 23.3787 30.0693 23.1813 29.792 23.064C29.76 23.0533 29.6533 23.0427 29.472 23.032C29.2907 23.0213 29.072 23.016 28.816 23.016C28.56 23.0053 28.2827 23 27.984 23C27.696 22.9893 27.4187 22.984 27.152 22.984C26.8853 22.984 26.6507 22.984 26.448 22.984C26.2453 22.984 26.112 22.984 26.048 22.984H24.4L21.088 23H19.424C19.0827 23 18.736 22.9947 18.384 22.984C18.032 22.9733 17.6853 22.9787 17.344 23C17.312 23.0107 17.2747 23.016 17.232 23.016C17.2 23.016 17.1627 23.0267 17.12 23.048C16.9707 23.1013 16.8427 23.192 16.736 23.32C16.6293 23.448 16.576 23.5973 16.576 23.768C16.576 23.9493 16.6187 24.088 16.704 24.184C16.7893 24.2693 16.896 24.328 17.024 24.36C17.152 24.392 17.2907 24.408 17.44 24.408C17.5893 24.408 17.7227 24.408 17.84 24.408C18.64 24.408 19.4347 24.408 20.224 24.408C21.024 24.3973 21.824 24.392 22.624 24.392V24.6L22.608 25.16V25.432ZM40.3131 18.728C40.5798 18.728 40.8465 18.76 41.1131 18.824C41.3905 18.888 41.6358 18.9947 41.8491 19.144C42.0625 19.2827 42.2331 19.464 42.3611 19.688C42.4998 19.912 42.5691 20.1787 42.5691 20.488C42.5691 20.7333 42.5051 20.9627 42.3771 21.176C42.2491 21.3893 42.0891 21.592 41.8971 21.784C41.7158 21.976 41.5131 22.152 41.2891 22.312C41.0758 22.472 40.8838 22.616 40.7131 22.744C40.4358 22.9467 40.1211 23.176 39.7691 23.432C39.4171 23.6773 39.0705 23.9387 38.7291 24.216C38.3985 24.4933 38.0891 24.7813 37.8011 25.08C37.5238 25.3787 37.3051 25.6827 37.1451 25.992C36.9211 26.44 36.7718 26.92 36.6971 27.432C36.6225 27.944 36.5851 28.4453 36.5851 28.936C36.5851 29.064 36.5851 29.192 36.5851 29.32C36.5958 29.4587 36.6171 29.5867 36.6491 29.704C36.6918 29.8213 36.7558 29.9173 36.8411 29.992C36.9371 30.0667 37.0705 30.104 37.2411 30.104H43.9611C44.1745 30.104 44.3665 30.0293 44.5371 29.88C44.7185 29.7307 44.8091 29.5493 44.8091 29.336C44.8091 29.1653 44.7611 29.0373 44.6651 28.952C44.5798 28.856 44.4731 28.792 44.3451 28.76C44.2171 28.728 44.0785 28.712 43.9291 28.712C43.7905 28.712 43.6625 28.712 43.5451 28.712C43.3105 28.712 43.0811 28.7173 42.8571 28.728C42.6331 28.728 42.4091 28.728 42.1851 28.728H38.0571C38.0571 28.5573 38.0625 28.3707 38.0731 28.168C38.0838 27.9653 38.0998 27.768 38.1211 27.576C38.1531 27.3733 38.1958 27.176 38.2491 26.984C38.3025 26.792 38.3718 26.616 38.4571 26.456C38.6065 26.168 38.8305 25.8907 39.1291 25.624C39.4278 25.3573 39.7105 25.1227 39.9771 24.92C40.2011 24.7387 40.4251 24.568 40.6491 24.408C40.8838 24.2373 41.1238 24.0667 41.3691 23.896C41.5931 23.736 41.8171 23.576 42.0411 23.416C42.2651 23.2453 42.4838 23.064 42.6971 22.872C42.8678 22.712 43.0331 22.536 43.1931 22.344C43.3531 22.152 43.4971 21.9493 43.6251 21.736C43.7531 21.512 43.8545 21.2827 43.9291 21.048C44.0038 20.8133 44.0411 20.5733 44.0411 20.328C44.0411 19.8373 43.9398 19.4053 43.7371 19.032C43.5451 18.6587 43.2838 18.3493 42.9531 18.104C42.6331 17.848 42.2598 17.6613 41.8331 17.544C41.4065 17.416 40.9691 17.352 40.5211 17.352C39.9878 17.352 39.4918 17.432 39.0331 17.592C38.5851 17.752 38.1905 17.9813 37.8491 18.28C37.5185 18.5787 37.2571 18.9467 37.0651 19.384C36.8731 19.8107 36.7771 20.296 36.7771 20.84C36.7771 21.0213 36.8358 21.1707 36.9531 21.288C37.0811 21.3947 37.2305 21.448 37.4011 21.448C37.5931 21.448 37.7691 21.3893 37.9291 21.272C38.0891 21.1547 38.1905 21 38.2331 20.808C38.2545 20.712 38.2651 20.616 38.2651 20.52C38.2651 20.4133 38.2758 20.3067 38.2971 20.2C38.3825 19.6667 38.6118 19.288 38.9851 19.064C39.3691 18.84 39.8118 18.728 40.3131 18.728ZM57.382 27.32C57.382 27.5227 57.382 27.7253 57.382 27.928C57.382 28.12 57.3767 28.3173 57.366 28.52L57.334 29.32C57.3233 29.5227 57.318 29.72 57.318 29.912C57.318 30.1147 57.318 30.3173 57.318 30.52C57.318 30.712 57.382 30.8613 57.51 30.968C57.6487 31.0853 57.8087 31.144 57.99 31.144C58.182 31.144 58.3527 31.08 58.502 30.952C58.6513 30.8347 58.7473 30.6853 58.79 30.504C58.8007 30.4507 58.806 30.3707 58.806 30.264V30.024V29.32L58.854 27.896V27.192C58.854 27.064 58.854 26.8293 58.854 26.488C58.854 26.1467 58.8487 25.7467 58.838 25.288C58.838 24.8187 58.8327 24.3067 58.822 23.752C58.8113 23.1973 58.8007 22.6373 58.79 22.072C58.7793 21.5067 58.7687 20.9573 58.758 20.424C58.7473 19.88 58.7313 19.3947 58.71 18.968C58.6993 18.5413 58.6833 18.1947 58.662 17.928C58.6513 17.6507 58.6353 17.4853 58.614 17.432C58.5607 17.304 58.4807 17.208 58.374 17.144C58.2673 17.08 58.1393 17.048 57.99 17.048C57.7873 17.048 57.6007 17.1227 57.43 17.272C57.27 17.4107 57.19 17.5867 57.19 17.8C57.19 18.3333 57.2007 18.8613 57.222 19.384C57.2433 19.9067 57.2647 20.4347 57.286 20.968C57.35 23.08 57.382 25.1973 57.382 27.32ZM52.454 19.976C52.454 20.1893 52.4487 20.408 52.438 20.632C52.438 20.8453 52.4327 21.0587 52.422 21.272L52.374 22.568C52.0647 22.5787 51.7607 22.5893 51.462 22.6C51.1633 22.6107 50.8593 22.616 50.55 22.616C50.2727 22.616 50.0007 22.616 49.734 22.616C49.478 22.6053 49.2167 22.5947 48.95 22.584C48.8007 22.5733 48.6567 22.5627 48.518 22.552C48.3793 22.5307 48.2353 22.52 48.086 22.52C47.9047 22.52 47.734 22.584 47.574 22.712C47.4247 22.8293 47.3287 22.9787 47.286 23.16C47.254 23.32 47.2433 23.5173 47.254 23.752C47.2647 23.976 47.27 24.1733 47.27 24.344C47.27 24.792 47.27 25.24 47.27 25.688C47.2807 26.1253 47.3073 26.568 47.35 27.016C47.382 27.4 47.4247 27.72 47.478 27.976C47.5313 28.232 47.622 28.44 47.75 28.6C47.8887 28.76 48.0807 28.872 48.326 28.936C48.5713 29 48.902 29.032 49.318 29.032C49.4033 29.032 49.5793 29.0267 49.846 29.016C50.1127 29.0053 50.4167 28.9893 50.758 28.968C51.0993 28.9467 51.462 28.92 51.846 28.888C52.23 28.856 52.5873 28.8293 52.918 28.808C53.2487 28.776 53.526 28.7493 53.75 28.728C53.9847 28.696 54.1287 28.6693 54.182 28.648C54.3207 28.5947 54.4327 28.504 54.518 28.376C54.614 28.248 54.662 28.1093 54.662 27.96C54.662 27.768 54.5927 27.6133 54.454 27.496C54.326 27.3787 54.1713 27.32 53.99 27.32C53.9047 27.32 53.814 27.3253 53.718 27.336C53.6327 27.336 53.5473 27.3413 53.462 27.352L52.934 27.4C52.5607 27.432 52.1927 27.464 51.83 27.496C51.478 27.5173 51.1153 27.5387 50.742 27.56C50.5073 27.5813 50.278 27.6027 50.054 27.624C49.83 27.6347 49.6007 27.64 49.366 27.64C49.302 27.64 49.2327 27.64 49.158 27.64C49.094 27.6293 49.0247 27.6187 48.95 27.608C48.8967 27.448 48.854 27.2347 48.822 26.968C48.8007 26.6907 48.7847 26.408 48.774 26.12C48.7633 25.8213 48.7527 25.5333 48.742 25.256C48.742 24.9787 48.742 24.7493 48.742 24.568V23.976C48.934 23.9973 49.126 24.008 49.318 24.008C49.5207 24.008 49.718 24.008 49.91 24.008C50.3153 24.008 50.726 24.0027 51.142 23.992C51.558 23.9813 51.9687 23.9707 52.374 23.96C52.5127 23.96 52.6567 23.96 52.806 23.96C52.966 23.9493 53.1153 23.928 53.254 23.896C53.3927 23.8533 53.51 23.7893 53.606 23.704C53.7127 23.608 53.782 23.4693 53.814 23.288C53.846 23.16 53.8567 23.032 53.846 22.904C53.846 22.7653 53.8513 22.6267 53.862 22.488C53.8727 22.04 53.8887 21.5973 53.91 21.16C53.9313 20.7227 53.942 20.28 53.942 19.832C53.942 19.3413 53.878 18.9627 53.75 18.696C53.6327 18.4187 53.4567 18.216 53.222 18.088C52.998 17.96 52.7207 17.8747 52.39 17.832C52.07 17.7893 51.702 17.752 51.286 17.72C50.2727 17.624 49.2593 17.576 48.246 17.576C48.0327 17.576 47.8407 17.6507 47.67 17.8C47.51 17.9493 47.43 18.1307 47.43 18.344C47.43 18.5253 47.4727 18.664 47.558 18.76C47.654 18.8453 47.7713 18.904 47.91 18.936C48.0487 18.968 48.1927 18.984 48.342 18.984C48.4913 18.984 48.63 18.984 48.758 18.984C48.8327 18.984 48.966 18.9893 49.158 19C49.3607 19 49.59 19.0107 49.846 19.032C50.102 19.0427 50.3687 19.0587 50.646 19.08C50.934 19.1013 51.1953 19.1227 51.43 19.144C51.6753 19.1653 51.8833 19.192 52.054 19.224C52.2247 19.2453 52.326 19.2667 52.358 19.288C52.4113 19.3307 52.438 19.4373 52.438 19.608C52.4487 19.7787 52.454 19.9013 52.454 19.976ZM72.753 31.16C72.9557 31.16 73.137 31.0853 73.297 30.936C73.4677 30.7867 73.553 30.6053 73.553 30.392V22.968C73.553 22.8613 73.5477 22.6533 73.537 22.344C73.5263 22.0347 73.5157 21.6827 73.505 21.288C73.4943 20.8933 73.4783 20.4827 73.457 20.056C73.4357 19.6187 73.4143 19.2133 73.393 18.84C73.3717 18.4667 73.3503 18.152 73.329 17.896C73.3077 17.64 73.2863 17.4907 73.265 17.448C73.137 17.192 72.929 17.064 72.641 17.064C72.4383 17.064 72.2517 17.1387 72.081 17.288C71.921 17.4373 71.841 17.6187 71.841 17.832C71.841 18.1093 71.8517 18.3813 71.873 18.648C71.8943 18.9147 71.9157 19.1867 71.937 19.464C71.9583 19.8267 71.9743 20.184 71.985 20.536C72.0063 20.888 72.0223 21.2453 72.033 21.608H72.001C71.6703 21.6293 71.3717 21.6453 71.105 21.656C70.8383 21.6667 70.545 21.6827 70.225 21.704C70.1183 21.7147 70.0063 21.7253 69.889 21.736C69.7823 21.736 69.6757 21.7467 69.569 21.768C69.473 21.7893 69.377 21.8267 69.281 21.88C69.1957 21.9333 69.121 22.008 69.057 22.104C68.9717 22.2213 68.929 22.3547 68.929 22.504C68.929 22.696 68.993 22.8507 69.121 22.968C69.2597 23.0853 69.4197 23.144 69.601 23.144C69.6863 23.144 69.777 23.1387 69.873 23.128C69.969 23.1173 70.0597 23.1067 70.145 23.096C70.465 23.0747 70.7583 23.0587 71.025 23.048C71.3023 23.0373 71.601 23.0213 71.921 23L72.065 22.984C72.0757 23.4 72.081 23.816 72.081 24.232C72.081 24.6373 72.081 25.048 72.081 25.464V30.44C72.081 30.6533 72.1343 30.824 72.241 30.952C72.3583 31.0907 72.529 31.16 72.753 31.16ZM65.105 27.16C64.9983 27.16 64.8703 27.16 64.721 27.16C64.5823 27.1493 64.4383 27.1387 64.289 27.128C64.1397 27.1173 63.9957 27.1013 63.857 27.08C63.7183 27.048 63.6063 27.0107 63.521 26.968C63.4997 26.6373 63.4837 26.312 63.473 25.992C63.4623 25.6613 63.457 25.3307 63.457 25V23.672C64.161 23.6613 64.8597 23.64 65.553 23.608C66.2463 23.576 66.945 23.56 67.649 23.56C67.8943 23.56 68.1183 23.5013 68.321 23.384C68.5237 23.2667 68.625 23.0693 68.625 22.792C68.625 22.6 68.5557 22.4453 68.417 22.328C68.289 22.2107 68.1343 22.152 67.953 22.152C67.281 22.152 66.6037 22.168 65.921 22.2C65.249 22.232 64.5717 22.248 63.889 22.248H63.473C63.4837 21.704 63.489 21.1707 63.489 20.648C63.4997 20.1253 63.5103 19.592 63.521 19.048H64.881C65.2437 19.048 65.6063 19.048 65.969 19.048C66.3317 19.048 66.6943 19.0533 67.057 19.064C67.2063 19.0747 67.3557 19.0853 67.505 19.096C67.6543 19.1067 67.8037 19.112 67.953 19.112C68.1557 19.112 68.337 19.0373 68.497 18.888C68.6677 18.7387 68.753 18.5573 68.753 18.344C68.753 18.088 68.6303 17.896 68.385 17.768C68.321 17.736 68.1663 17.7147 67.921 17.704C67.6757 17.6827 67.409 17.672 67.121 17.672C66.833 17.6613 66.5557 17.656 66.289 17.656C66.0223 17.656 65.841 17.656 65.745 17.656H63.681C63.5317 17.656 63.3717 17.656 63.201 17.656C63.0303 17.6453 62.865 17.656 62.705 17.688C62.5557 17.72 62.4223 17.7787 62.305 17.864C62.1877 17.9493 62.1077 18.088 62.065 18.28C62.0117 18.4613 61.9903 18.68 62.001 18.936C62.0223 19.192 62.033 19.4267 62.033 19.64V20.84L61.985 23.256V24.456C61.985 24.7973 61.985 25.1387 61.985 25.48C61.985 25.8213 61.9957 26.1627 62.017 26.504C62.017 26.632 62.017 26.808 62.017 27.032C62.0277 27.2453 62.0543 27.4107 62.097 27.528C62.1823 27.784 62.337 27.9813 62.561 28.12C62.7957 28.2587 63.0517 28.3653 63.329 28.44C63.617 28.504 63.905 28.5413 64.193 28.552C64.4917 28.5627 64.753 28.568 64.977 28.568C65.0943 28.568 65.2703 28.5627 65.505 28.552C65.7397 28.5307 66.001 28.5093 66.289 28.488C66.577 28.4667 66.8757 28.44 67.185 28.408C67.4943 28.3653 67.7877 28.3227 68.065 28.28C68.3423 28.2373 68.5823 28.1947 68.785 28.152C68.9983 28.0987 69.1477 28.0507 69.233 28.008C69.3503 27.9333 69.4463 27.8427 69.521 27.736C69.5957 27.6187 69.633 27.4907 69.633 27.352C69.633 27.16 69.5637 27.0053 69.425 26.888C69.297 26.7707 69.1423 26.712 68.961 26.712C68.7797 26.712 68.5877 26.7387 68.385 26.792C68.193 26.8453 68.0063 26.888 67.825 26.92C67.377 26.984 66.9237 27.0427 66.465 27.096C66.017 27.1387 65.5637 27.16 65.105 27.16ZM91.8323 30.424V26.376C91.8323 25.8427 91.8269 25.3147 91.8163 24.792C91.8163 24.2587 91.8109 23.7253 91.8003 23.192C91.8429 23.192 91.8803 23.192 91.9123 23.192C91.9443 23.1813 91.9816 23.176 92.0243 23.176H92.4563C92.4989 23.176 92.5363 23.176 92.5683 23.176C92.6109 23.1653 92.6483 23.16 92.6803 23.16L93.4003 23.128C93.6029 23.1173 93.7896 23.1013 93.9603 23.08C94.1309 23.048 94.2749 22.9413 94.3923 22.76C94.4776 22.6213 94.5203 22.488 94.5203 22.36C94.5203 22.168 94.4509 22.0133 94.3123 21.896C94.1843 21.7787 94.0296 21.72 93.8483 21.72C93.5923 21.72 93.3363 21.7253 93.0803 21.736C92.8349 21.7467 92.5843 21.7573 92.3283 21.768L91.7683 21.8C91.7469 21.2347 91.7256 20.6747 91.7043 20.12C91.6829 19.5547 91.6509 18.9893 91.6083 18.424C91.5976 18.3067 91.5869 18.1467 91.5763 17.944C91.5763 17.7413 91.5496 17.592 91.4963 17.496C91.3789 17.2507 91.1709 17.128 90.8723 17.128C90.6696 17.128 90.4829 17.2027 90.3123 17.352C90.1523 17.4907 90.0723 17.6667 90.0723 17.88C90.0723 18.0933 90.0829 18.3067 90.1043 18.52C90.1256 18.7227 90.1469 18.9307 90.1683 19.144C90.2003 19.6133 90.2216 20.0773 90.2323 20.536C90.2536 20.9947 90.2749 21.4587 90.2963 21.928C90.3496 23.2933 90.3709 24.6587 90.3603 26.024C90.3496 27.3787 90.3496 28.7387 90.3603 30.104C90.3603 30.2 90.3549 30.296 90.3443 30.392C90.3336 30.488 90.3389 30.5787 90.3603 30.664C90.3923 30.824 90.4723 30.9467 90.6003 31.032C90.7283 31.128 90.8723 31.176 91.0323 31.176C91.2349 31.176 91.4163 31.1013 91.5763 30.952C91.7469 30.8133 91.8323 30.6373 91.8323 30.424ZM87.7043 20.648C87.7043 20.4027 87.6989 20.1307 87.6883 19.832C87.6883 19.5333 87.6509 19.2453 87.5763 18.968C87.5123 18.68 87.4056 18.424 87.2563 18.2C87.1069 17.976 86.8883 17.8213 86.6003 17.736C86.4936 17.704 86.3549 17.6827 86.1843 17.672C86.0136 17.6507 85.8323 17.6347 85.6403 17.624C85.4589 17.6133 85.2776 17.608 85.0963 17.608C84.9149 17.608 84.7656 17.608 84.6483 17.608H83.8643L82.2963 17.656H81.5123C81.3096 17.656 81.1229 17.7307 80.9523 17.88C80.7922 18.0293 80.7122 18.2107 80.7122 18.424C80.7122 18.616 80.7176 18.9787 80.7283 19.512C80.7389 20.0453 80.7496 20.664 80.7603 21.368C80.7709 22.072 80.7869 22.8133 80.8083 23.592C80.8296 24.3707 80.8509 25.0907 80.8723 25.752C80.8936 26.4027 80.9149 26.9573 80.9363 27.416C80.9683 27.864 80.9949 28.1147 81.0163 28.168C81.0696 28.3067 81.1496 28.408 81.2563 28.472C81.3736 28.536 81.5069 28.568 81.6562 28.568C82.3283 28.568 82.9896 28.552 83.6403 28.52C84.2909 28.488 84.9523 28.472 85.6243 28.472H85.9603L86.6163 28.504H86.9523C87.1336 28.504 87.2989 28.4507 87.4483 28.344C87.5976 28.2267 87.6936 28.0773 87.7362 27.896C87.7789 27.7147 87.7949 27.5227 87.7843 27.32C87.7843 27.1067 87.7843 26.9093 87.7843 26.728C87.7843 25.704 87.7683 24.6907 87.7362 23.688C87.7149 22.6853 87.7043 21.672 87.7043 20.648ZM86.2963 27.08H85.7683C85.2029 27.08 84.6429 27.0907 84.0883 27.112C83.5443 27.1227 82.9896 27.1387 82.4243 27.16C82.3709 25.7947 82.3229 24.4453 82.2803 23.112C82.2483 21.7787 82.2216 20.4293 82.2003 19.064H82.2163C82.6003 19.0533 82.9843 19.0427 83.3683 19.032C83.7523 19.0213 84.1309 19.016 84.5043 19.016C84.7603 19.016 85.0163 19.0213 85.2723 19.032C85.5283 19.0427 85.7843 19.0587 86.0403 19.08C86.0936 19.208 86.1309 19.3947 86.1523 19.64C86.1843 19.8853 86.2056 20.1467 86.2163 20.424C86.2269 20.6907 86.2323 20.952 86.2323 21.208C86.2323 21.464 86.2323 21.672 86.2323 21.832C86.2323 22.1307 86.2323 22.4293 86.2323 22.728C86.2323 23.016 86.2376 23.3093 86.2483 23.608L86.2803 24.808C86.2909 25.1067 86.2963 25.4053 86.2963 25.704C86.2963 25.992 86.2963 26.2853 86.2963 26.584V27.08ZM106.195 28.12L106.147 29.72V30.52C106.147 30.712 106.211 30.8667 106.339 30.984C106.478 31.1013 106.638 31.16 106.819 31.16C107.011 31.16 107.177 31.096 107.315 30.968C107.465 30.8507 107.566 30.696 107.619 30.504C107.641 30.4293 107.646 30.3493 107.635 30.264C107.635 30.1787 107.635 30.0933 107.635 30.008C107.635 29.5387 107.641 29.0747 107.651 28.616C107.673 28.1467 107.683 27.672 107.683 27.192C107.683 25.8373 107.667 24.4933 107.635 23.16C107.614 21.816 107.582 20.4667 107.539 19.112C107.539 19.0373 107.539 18.92 107.539 18.76C107.539 18.5893 107.534 18.4187 107.523 18.248C107.513 18.0667 107.502 17.9013 107.491 17.752C107.481 17.6027 107.47 17.5067 107.459 17.464C107.406 17.3253 107.321 17.2187 107.203 17.144C107.097 17.0693 106.969 17.032 106.819 17.032C106.617 17.032 106.43 17.1067 106.259 17.256C106.099 17.4053 106.019 17.5867 106.019 17.8C106.019 18.3333 106.03 18.8613 106.051 19.384C106.073 19.9067 106.094 20.4347 106.115 20.968C106.158 22.1627 106.179 23.3573 106.179 24.552C106.19 25.736 106.195 26.9253 106.195 28.12ZM95.7473 28.84C95.7473 29.0213 95.8113 29.1707 95.9393 29.288C96.0779 29.4053 96.2379 29.464 96.4193 29.464C96.6539 29.464 96.8246 29.3947 96.9313 29.256C97.0486 29.128 97.1659 28.9733 97.2833 28.792L97.6833 28.184C98.0566 27.608 98.4086 27.032 98.7393 26.456C99.0806 25.8693 99.3739 25.256 99.6193 24.616C99.9606 25.1067 100.307 25.592 100.659 26.072C101.011 26.552 101.369 27.032 101.731 27.512C101.785 27.5867 101.865 27.6933 101.971 27.832C102.078 27.9707 102.185 28.1147 102.291 28.264C102.409 28.4133 102.521 28.552 102.627 28.68C102.734 28.808 102.814 28.8933 102.867 28.936C102.995 29.064 103.155 29.128 103.347 29.128C103.55 29.128 103.731 29.0533 103.891 28.904C104.062 28.7547 104.147 28.5733 104.147 28.36C104.147 28.232 104.115 28.12 104.051 28.024C103.934 27.832 103.801 27.656 103.651 27.496C103.502 27.3253 103.358 27.1493 103.219 26.968C102.974 26.648 102.729 26.328 102.483 26.008C102.249 25.6773 102.009 25.3413 101.763 25C101.561 24.7227 101.358 24.4453 101.155 24.168C100.963 23.8907 100.766 23.6133 100.563 23.336C100.542 23.3147 100.521 23.288 100.499 23.256C100.489 23.224 100.473 23.1973 100.451 23.176L100.259 22.856C100.238 22.8347 100.217 22.808 100.195 22.776C100.185 22.744 100.169 22.7173 100.147 22.696C100.222 22.2907 100.281 21.8907 100.323 21.496C100.366 21.1013 100.414 20.7067 100.467 20.312C100.499 20.0667 100.531 19.8267 100.563 19.592C100.595 19.3467 100.627 19.1013 100.659 18.856C100.681 18.728 100.702 18.6053 100.723 18.488C100.745 18.36 100.755 18.232 100.755 18.104C100.755 17.9227 100.686 17.7733 100.547 17.656C100.419 17.5387 100.265 17.48 100.083 17.48C99.9339 17.48 99.7953 17.5227 99.6673 17.608C99.5499 17.6827 99.4486 17.784 99.3633 17.912C99.3313 17.976 99.2886 18.1573 99.2352 18.456C99.1926 18.744 99.1446 19.0693 99.0913 19.432C99.0486 19.784 99.0059 20.1253 98.9633 20.456C98.9206 20.7867 98.8939 21.0107 98.8833 21.128C98.8406 21.448 98.7926 21.768 98.7393 22.088C98.6966 22.408 98.6433 22.7227 98.5793 23.032C98.4939 23.4053 98.3873 23.768 98.2593 24.12C98.1419 24.4613 98.0033 24.7973 97.8433 25.128C97.6513 25.5227 97.4433 25.9067 97.2193 26.28C97.0059 26.6533 96.7819 27.0213 96.5473 27.384C96.4299 27.5653 96.3019 27.752 96.1633 27.944C96.0353 28.1253 95.9233 28.312 95.8273 28.504C95.8059 28.5573 95.7846 28.6107 95.7633 28.664C95.7526 28.7173 95.7473 28.776 95.7473 28.84ZM120.942 28.12L120.894 29.72V30.52C120.894 30.712 120.958 30.8667 121.086 30.984C121.225 31.1013 121.385 31.16 121.566 31.16C121.758 31.16 121.924 31.096 122.062 30.968C122.212 30.8507 122.313 30.696 122.366 30.504C122.388 30.4293 122.393 30.3493 122.382 30.264C122.382 30.1787 122.382 30.0933 122.382 30.008C122.382 29.5387 122.388 29.0747 122.398 28.616C122.42 28.1467 122.43 27.672 122.43 27.192C122.43 25.8373 122.414 24.4933 122.382 23.16C122.361 21.816 122.329 20.4667 122.286 19.112C122.286 19.0373 122.286 18.92 122.286 18.76C122.286 18.5893 122.281 18.4187 122.27 18.248C122.26 18.0667 122.249 17.9013 122.238 17.752C122.228 17.6027 122.217 17.5067 122.206 17.464C122.153 17.3253 122.068 17.2187 121.95 17.144C121.844 17.0693 121.716 17.032 121.566 17.032C121.364 17.032 121.177 17.1067 121.006 17.256C120.846 17.4053 120.766 17.5867 120.766 17.8C120.766 18.3333 120.777 18.8613 120.798 19.384C120.82 19.9067 120.841 20.4347 120.862 20.968C120.905 22.1627 120.926 23.3573 120.926 24.552C120.937 25.736 120.942 26.9253 120.942 28.12ZM111.07 19.224C111.582 19.224 112.094 19.2187 112.606 19.208C113.129 19.1973 113.646 19.1813 114.158 19.16C114.393 19.1493 114.622 19.1387 114.846 19.128C115.081 19.1173 115.316 19.112 115.55 19.112H115.838C115.892 19.112 115.94 19.112 115.982 19.112C116.025 19.112 116.073 19.1173 116.126 19.128C116.137 19.1707 116.142 19.2133 116.142 19.256C116.153 19.288 116.158 19.3307 116.158 19.384C116.158 19.6827 116.126 19.9813 116.062 20.28C115.998 20.568 115.924 20.856 115.838 21.144C115.55 22.1787 115.172 23.1653 114.702 24.104C114.244 25.0427 113.662 25.9227 112.958 26.744C112.777 26.9467 112.59 27.144 112.398 27.336C112.217 27.528 112.025 27.7147 111.822 27.896C111.737 27.9707 111.646 28.04 111.55 28.104C111.454 28.168 111.369 28.2427 111.294 28.328C111.166 28.4773 111.102 28.6373 111.102 28.808C111.102 29 111.166 29.1547 111.294 29.272C111.433 29.3893 111.593 29.448 111.774 29.448C111.881 29.448 111.993 29.416 112.11 29.352C112.228 29.2987 112.34 29.2293 112.446 29.144C112.564 29.0587 112.67 28.968 112.766 28.872C112.862 28.776 112.953 28.6907 113.038 28.616C114.084 27.6453 114.953 26.5467 115.646 25.32C116.35 24.0933 116.889 22.7973 117.262 21.432C117.369 21.0693 117.46 20.7067 117.534 20.344C117.609 19.9707 117.646 19.5973 117.646 19.224C117.646 18.9893 117.593 18.7387 117.486 18.472C117.412 18.28 117.305 18.136 117.166 18.04C117.038 17.9333 116.894 17.8587 116.734 17.816C116.574 17.7627 116.404 17.7307 116.222 17.72C116.041 17.7093 115.865 17.704 115.694 17.704C115.321 17.704 114.948 17.7147 114.574 17.736C114.201 17.7573 113.828 17.7787 113.454 17.8H112.366C112.292 17.8 112.185 17.8 112.046 17.8C111.908 17.8 111.764 17.8053 111.614 17.816C111.476 17.816 111.337 17.8213 111.198 17.832C111.07 17.8427 110.974 17.8587 110.91 17.88C110.761 17.9333 110.638 18.024 110.542 18.152C110.446 18.28 110.398 18.424 110.398 18.584C110.398 18.776 110.462 18.9307 110.59 19.048C110.729 19.1653 110.889 19.224 111.07 19.224Z" fill="#2A3524"/>
<rect x="1" y="1" width="139" height="46" rx="22" stroke="#5BF2AA" stroke-width="2"/>
</svg>
