<svg width="96" height="48" viewBox="0 0 96 48" fill="none" xmlns="http://www.w3.org/2000/svg">
<rect x="1" y="1" width="94" height="46" rx="22" fill="white"/>
<path d="M23.024 22.104C23.632 22.104 24.2293 22.104 24.816 22.104C25.4027 22.0933 26 22.0827 26.608 22.072C26.8533 22.0613 27.072 22.0347 27.264 21.992C27.456 21.9387 27.6 21.7787 27.696 21.512C27.7493 21.384 27.7867 21.2507 27.808 21.112C27.8293 20.9733 27.8507 20.8347 27.872 20.696C27.9467 20.3227 28.0053 19.9493 28.048 19.576C28.0907 19.192 28.112 18.8133 28.112 18.44C28.112 17.8853 27.9947 17.5067 27.76 17.304C27.536 17.1013 27.1573 16.9893 26.624 16.968C26.016 16.936 25.408 16.92 24.8 16.92C24.192 16.9093 23.584 16.904 22.976 16.904C22.816 16.904 22.5493 16.904 22.176 16.904C21.8133 16.904 21.4293 16.9147 21.024 16.936C20.6187 16.9467 20.2453 16.968 19.904 17C19.5627 17.0213 19.3387 17.0587 19.232 17.112C19.0933 17.1867 18.9813 17.2827 18.896 17.4C18.8107 17.5173 18.768 17.6507 18.768 17.8C18.768 18.28 18.784 18.7547 18.816 19.224C18.848 19.6827 18.9227 20.136 19.04 20.584C19.1253 20.9253 19.2213 21.192 19.328 21.384C19.4453 21.5653 19.584 21.7093 19.744 21.816C19.9147 21.912 20.112 21.976 20.336 22.008C20.5707 22.04 20.848 22.0613 21.168 22.072C21.4773 22.0827 21.7867 22.0933 22.096 22.104C22.4053 22.104 22.7147 22.104 23.024 22.104ZM20.256 18.36C20.7253 18.3387 21.1893 18.3227 21.648 18.312C22.1067 18.3013 22.5707 18.296 23.04 18.296C23.4347 18.296 23.824 18.3013 24.208 18.312C24.6027 18.312 24.9973 18.3173 25.392 18.328C25.6053 18.328 25.808 18.3333 26 18.344C26.2027 18.344 26.4107 18.3547 26.624 18.376V18.568C26.624 19.2613 26.5493 19.9653 26.4 20.68C25.856 20.6907 25.3173 20.7013 24.784 20.712C24.2507 20.712 23.712 20.712 23.168 20.712C23.072 20.712 22.896 20.712 22.64 20.712C22.384 20.712 22.1173 20.7067 21.84 20.696C21.5627 20.6853 21.3067 20.6747 21.072 20.664C20.848 20.6427 20.704 20.6213 20.64 20.6C20.5013 20.3013 20.4 19.9387 20.336 19.512C20.2827 19.0747 20.256 18.6907 20.256 18.36ZM22.608 25.432C22.608 25.5067 22.6133 25.56 22.624 25.592C22.2293 25.6133 21.84 25.6347 21.456 25.656C21.072 25.6667 20.72 25.6827 20.4 25.704C20.0907 25.7253 19.824 25.7467 19.6 25.768C19.3867 25.7893 19.2533 25.8107 19.2 25.832C19.0613 25.8853 18.9387 25.976 18.832 26.104C18.7253 26.232 18.672 26.376 18.672 26.536C18.672 26.7173 18.7307 26.8667 18.848 26.984C18.9653 27.0907 19.1147 27.144 19.296 27.144C19.6373 27.144 19.9787 27.128 20.32 27.096C20.672 27.064 21.024 27.0373 21.376 27.016C22.112 26.9733 22.8427 26.9413 23.568 26.92C24.304 26.888 25.04 26.872 25.776 26.872C25.8933 26.872 26.0053 26.872 26.112 26.872C26.2293 26.872 26.3467 26.8773 26.464 26.888V26.904C26.464 27.0533 26.4587 27.1973 26.448 27.336C26.448 27.4747 26.4427 27.6187 26.432 27.768C25.3973 27.7893 24.3627 27.8053 23.328 27.816C22.2933 27.8267 21.2533 27.832 20.208 27.832C19.8667 27.832 19.5787 27.912 19.344 28.072C19.1093 28.232 18.992 28.4987 18.992 28.872C18.992 28.9467 18.992 29.016 18.992 29.08C19.0027 29.1547 19.0133 29.224 19.024 29.288L19.072 29.688C19.0933 29.784 19.104 29.88 19.104 29.976C19.1147 30.072 19.1307 30.168 19.152 30.264C19.2053 30.4987 19.2853 30.6853 19.392 30.824C19.5093 30.9627 19.6427 31.0693 19.792 31.144C19.952 31.2187 20.1227 31.2667 20.304 31.288C20.496 31.32 20.6987 31.3413 20.912 31.352C21.2427 31.3733 21.5733 31.384 21.904 31.384C22.2347 31.3947 22.5707 31.4 22.912 31.4C23.04 31.4 23.2427 31.4 23.52 31.4C23.808 31.4 24.128 31.3947 24.48 31.384C24.8427 31.3733 25.2107 31.3627 25.584 31.352C25.968 31.3413 26.3253 31.3253 26.656 31.304C26.9973 31.2933 27.2907 31.272 27.536 31.24C27.792 31.2187 27.9573 31.1867 28.032 31.144C28.1707 31.0907 28.288 31 28.384 30.872C28.48 30.744 28.528 30.6053 28.528 30.456C28.528 30.2747 28.4693 30.1253 28.352 30.008C28.2347 29.9013 28.0853 29.848 27.904 29.848C27.808 29.848 27.712 29.8533 27.616 29.864C27.5307 29.8747 27.44 29.8853 27.344 29.896C27.1733 29.9173 27.0027 29.928 26.832 29.928C26.6613 29.9387 26.4853 29.9493 26.304 29.96C25.7707 29.992 25.2427 30.0133 24.72 30.024C24.1973 30.0347 23.664 30.04 23.12 30.04C23.0453 30.04 22.8747 30.04 22.608 30.04C22.3413 30.04 22.064 30.0347 21.776 30.024C21.488 30.0133 21.2267 29.9973 20.992 29.976C20.7573 29.9653 20.6347 29.9493 20.624 29.928C20.6027 29.896 20.5867 29.848 20.576 29.784C20.5653 29.72 20.5547 29.6507 20.544 29.576C20.544 29.5013 20.5387 29.4267 20.528 29.352C20.528 29.288 20.5227 29.24 20.512 29.208C21.2267 29.1973 21.936 29.1867 22.64 29.176C23.344 29.176 24.0533 29.1707 24.768 29.16C25.0773 29.1493 25.424 29.1493 25.808 29.16C26.2027 29.1707 26.544 29.144 26.832 29.08C26.9813 29.048 27.12 29 27.248 28.936C27.376 28.872 27.488 28.7813 27.584 28.664C27.68 28.5573 27.7493 28.424 27.792 28.264C27.8453 28.0933 27.8827 27.9227 27.904 27.752C27.9253 27.5707 27.936 27.3947 27.936 27.224C27.936 27.0427 27.936 26.8827 27.936 26.744C27.936 26.2533 27.8293 25.9333 27.616 25.784C27.4027 25.6347 27.072 25.5493 26.624 25.528C26.4427 25.5173 26.2613 25.512 26.08 25.512C25.9093 25.512 25.7333 25.512 25.552 25.512C25.4347 25.512 25.2373 25.5173 24.96 25.528C24.6933 25.528 24.384 25.5333 24.032 25.544C24.0747 25.4267 24.096 25.304 24.096 25.176C24.096 25.0373 24.096 24.8987 24.096 24.76V24.488V24.392C24.9813 24.392 25.8613 24.3973 26.736 24.408C27.6213 24.4187 28.512 24.424 29.408 24.424C29.6107 24.424 29.792 24.3493 29.952 24.2C30.1227 24.0507 30.208 23.8693 30.208 23.656C30.208 23.3787 30.0693 23.1813 29.792 23.064C29.76 23.0533 29.6533 23.0427 29.472 23.032C29.2907 23.0213 29.072 23.016 28.816 23.016C28.56 23.0053 28.2827 23 27.984 23C27.696 22.9893 27.4187 22.984 27.152 22.984C26.8853 22.984 26.6507 22.984 26.448 22.984C26.2453 22.984 26.112 22.984 26.048 22.984H24.4L21.088 23H19.424C19.0827 23 18.736 22.9947 18.384 22.984C18.032 22.9733 17.6853 22.9787 17.344 23C17.312 23.0107 17.2747 23.016 17.232 23.016C17.2 23.016 17.1627 23.0267 17.12 23.048C16.9707 23.1013 16.8427 23.192 16.736 23.32C16.6293 23.448 16.576 23.5973 16.576 23.768C16.576 23.9493 16.6187 24.088 16.704 24.184C16.7893 24.2693 16.896 24.328 17.024 24.36C17.152 24.392 17.2907 24.408 17.44 24.408C17.5893 24.408 17.7227 24.408 17.84 24.408C18.64 24.408 19.4347 24.408 20.224 24.408C21.024 24.3973 21.824 24.392 22.624 24.392V24.6L22.608 25.16V25.432ZM47.1291 30.424V26.376C47.1291 25.8427 47.1238 25.3147 47.1131 24.792C47.1131 24.2587 47.1078 23.7253 47.0971 23.192C47.1398 23.192 47.1771 23.192 47.2091 23.192C47.2411 23.1813 47.2785 23.176 47.3211 23.176H47.7531C47.7958 23.176 47.8331 23.176 47.8651 23.176C47.9078 23.1653 47.9451 23.16 47.9771 23.16L48.6971 23.128C48.8998 23.1173 49.0865 23.1013 49.2571 23.08C49.4278 23.048 49.5718 22.9413 49.6891 22.76C49.7745 22.6213 49.8171 22.488 49.8171 22.36C49.8171 22.168 49.7478 22.0133 49.6091 21.896C49.4811 21.7787 49.3265 21.72 49.1451 21.72C48.8891 21.72 48.6331 21.7253 48.3771 21.736C48.1318 21.7467 47.8811 21.7573 47.6251 21.768L47.0651 21.8C47.0438 21.2347 47.0225 20.6747 47.0011 20.12C46.9798 19.5547 46.9478 18.9893 46.9051 18.424C46.8945 18.3067 46.8838 18.1467 46.8731 17.944C46.8731 17.7413 46.8465 17.592 46.7931 17.496C46.6758 17.2507 46.4678 17.128 46.1691 17.128C45.9665 17.128 45.7798 17.2027 45.6091 17.352C45.4491 17.4907 45.3691 17.6667 45.3691 17.88C45.3691 18.0933 45.3798 18.3067 45.4011 18.52C45.4225 18.7227 45.4438 18.9307 45.4651 19.144C45.4971 19.6133 45.5185 20.0773 45.5291 20.536C45.5505 20.9947 45.5718 21.4587 45.5931 21.928C45.6465 23.2933 45.6678 24.6587 45.6571 26.024C45.6465 27.3787 45.6465 28.7387 45.6571 30.104C45.6571 30.2 45.6518 30.296 45.6411 30.392C45.6305 30.488 45.6358 30.5787 45.6571 30.664C45.6891 30.824 45.7691 30.9467 45.8971 31.032C46.0251 31.128 46.1691 31.176 46.3291 31.176C46.5318 31.176 46.7131 31.1013 46.8731 30.952C47.0438 30.8133 47.1291 30.6373 47.1291 30.424ZM43.0011 20.648C43.0011 20.4027 42.9958 20.1307 42.9851 19.832C42.9851 19.5333 42.9478 19.2453 42.8731 18.968C42.8091 18.68 42.7025 18.424 42.5531 18.2C42.4038 17.976 42.1851 17.8213 41.8971 17.736C41.7905 17.704 41.6518 17.6827 41.4811 17.672C41.3105 17.6507 41.1291 17.6347 40.9371 17.624C40.7558 17.6133 40.5745 17.608 40.3931 17.608C40.2118 17.608 40.0625 17.608 39.9451 17.608H39.1611L37.5931 17.656H36.8091C36.6065 17.656 36.4198 17.7307 36.2491 17.88C36.0891 18.0293 36.0091 18.2107 36.0091 18.424C36.0091 18.616 36.0145 18.9787 36.0251 19.512C36.0358 20.0453 36.0465 20.664 36.0571 21.368C36.0678 22.072 36.0838 22.8133 36.1051 23.592C36.1265 24.3707 36.1478 25.0907 36.1691 25.752C36.1905 26.4027 36.2118 26.9573 36.2331 27.416C36.2651 27.864 36.2918 28.1147 36.3131 28.168C36.3665 28.3067 36.4465 28.408 36.5531 28.472C36.6705 28.536 36.8038 28.568 36.9531 28.568C37.6251 28.568 38.2865 28.552 38.9371 28.52C39.5878 28.488 40.2491 28.472 40.9211 28.472H41.2571L41.9131 28.504H42.2491C42.4305 28.504 42.5958 28.4507 42.7451 28.344C42.8945 28.2267 42.9905 28.0773 43.0331 27.896C43.0758 27.7147 43.0918 27.5227 43.0811 27.32C43.0811 27.1067 43.0811 26.9093 43.0811 26.728C43.0811 25.704 43.0651 24.6907 43.0331 23.688C43.0118 22.6853 43.0011 21.672 43.0011 20.648ZM41.5931 27.08H41.0651C40.4998 27.08 39.9398 27.0907 39.3851 27.112C38.8411 27.1227 38.2865 27.1387 37.7211 27.16C37.6678 25.7947 37.6198 24.4453 37.5771 23.112C37.5451 21.7787 37.5185 20.4293 37.4971 19.064H37.5131C37.8971 19.0533 38.2811 19.0427 38.6651 19.032C39.0491 19.0213 39.4278 19.016 39.8011 19.016C40.0571 19.016 40.3131 19.0213 40.5691 19.032C40.8251 19.0427 41.0811 19.0587 41.3371 19.08C41.3905 19.208 41.4278 19.3947 41.4491 19.64C41.4811 19.8853 41.5025 20.1467 41.5131 20.424C41.5238 20.6907 41.5291 20.952 41.5291 21.208C41.5291 21.464 41.5291 21.672 41.5291 21.832C41.5291 22.1307 41.5291 22.4293 41.5291 22.728C41.5291 23.016 41.5345 23.3093 41.5451 23.608L41.5771 24.808C41.5878 25.1067 41.5931 25.4053 41.5931 25.704C41.5931 25.992 41.5931 26.2853 41.5931 26.584V27.08ZM61.4921 28.12L61.4441 29.72V30.52C61.4441 30.712 61.5081 30.8667 61.6361 30.984C61.7748 31.1013 61.9348 31.16 62.1161 31.16C62.3081 31.16 62.4735 31.096 62.6121 30.968C62.7615 30.8507 62.8628 30.696 62.9161 30.504C62.9375 30.4293 62.9428 30.3493 62.9321 30.264C62.9321 30.1787 62.9321 30.0933 62.9321 30.008C62.9321 29.5387 62.9375 29.0747 62.9481 28.616C62.9695 28.1467 62.9801 27.672 62.9801 27.192C62.9801 25.8373 62.9641 24.4933 62.9321 23.16C62.9108 21.816 62.8788 20.4667 62.8361 19.112C62.8361 19.0373 62.8361 18.92 62.8361 18.76C62.8361 18.5893 62.8308 18.4187 62.8201 18.248C62.8095 18.0667 62.7988 17.9013 62.7881 17.752C62.7775 17.6027 62.7668 17.5067 62.7561 17.464C62.7028 17.3253 62.6175 17.2187 62.5001 17.144C62.3935 17.0693 62.2655 17.032 62.1161 17.032C61.9135 17.032 61.7268 17.1067 61.5561 17.256C61.3961 17.4053 61.3161 17.5867 61.3161 17.8C61.3161 18.3333 61.3268 18.8613 61.3481 19.384C61.3695 19.9067 61.3908 20.4347 61.4121 20.968C61.4548 22.1627 61.4761 23.3573 61.4761 24.552C61.4868 25.736 61.4921 26.9253 61.4921 28.12ZM51.0441 28.84C51.0441 29.0213 51.1081 29.1707 51.2361 29.288C51.3748 29.4053 51.5348 29.464 51.7161 29.464C51.9508 29.464 52.1215 29.3947 52.2281 29.256C52.3455 29.128 52.4628 28.9733 52.5801 28.792L52.9801 28.184C53.3535 27.608 53.7055 27.032 54.0361 26.456C54.3775 25.8693 54.6708 25.256 54.9161 24.616C55.2575 25.1067 55.6041 25.592 55.9561 26.072C56.3081 26.552 56.6655 27.032 57.0281 27.512C57.0815 27.5867 57.1615 27.6933 57.2681 27.832C57.3748 27.9707 57.4815 28.1147 57.5881 28.264C57.7055 28.4133 57.8175 28.552 57.9241 28.68C58.0308 28.808 58.1108 28.8933 58.1641 28.936C58.2921 29.064 58.4521 29.128 58.6441 29.128C58.8468 29.128 59.0281 29.0533 59.1881 28.904C59.3588 28.7547 59.4441 28.5733 59.4441 28.36C59.4441 28.232 59.4121 28.12 59.3481 28.024C59.2308 27.832 59.0975 27.656 58.9481 27.496C58.7988 27.3253 58.6548 27.1493 58.5161 26.968C58.2708 26.648 58.0255 26.328 57.7801 26.008C57.5455 25.6773 57.3055 25.3413 57.0601 25C56.8575 24.7227 56.6548 24.4453 56.4521 24.168C56.2601 23.8907 56.0628 23.6133 55.8601 23.336C55.8388 23.3147 55.8175 23.288 55.7961 23.256C55.7855 23.224 55.7695 23.1973 55.7481 23.176L55.5561 22.856C55.5348 22.8347 55.5135 22.808 55.4921 22.776C55.4815 22.744 55.4655 22.7173 55.4441 22.696C55.5188 22.2907 55.5775 21.8907 55.6201 21.496C55.6628 21.1013 55.7108 20.7067 55.7641 20.312C55.7961 20.0667 55.8281 19.8267 55.8601 19.592C55.8921 19.3467 55.9241 19.1013 55.9561 18.856C55.9775 18.728 55.9988 18.6053 56.0201 18.488C56.0415 18.36 56.0521 18.232 56.0521 18.104C56.0521 17.9227 55.9828 17.7733 55.8441 17.656C55.7161 17.5387 55.5615 17.48 55.3801 17.48C55.2308 17.48 55.0921 17.5227 54.9641 17.608C54.8468 17.6827 54.7455 17.784 54.6601 17.912C54.6281 17.976 54.5855 18.1573 54.5321 18.456C54.4895 18.744 54.4415 19.0693 54.3881 19.432C54.3455 19.784 54.3028 20.1253 54.2601 20.456C54.2175 20.7867 54.1908 21.0107 54.1801 21.128C54.1375 21.448 54.0895 21.768 54.0361 22.088C53.9935 22.408 53.9401 22.7227 53.8761 23.032C53.7908 23.4053 53.6841 23.768 53.5561 24.12C53.4388 24.4613 53.3001 24.7973 53.1401 25.128C52.9481 25.5227 52.7401 25.9067 52.5161 26.28C52.3028 26.6533 52.0788 27.0213 51.8441 27.384C51.7268 27.5653 51.5988 27.752 51.4601 27.944C51.3321 28.1253 51.2201 28.312 51.1241 28.504C51.1028 28.5573 51.0815 28.6107 51.0601 28.664C51.0495 28.7173 51.0441 28.776 51.0441 28.84ZM76.2391 28.12L76.1911 29.72V30.52C76.1911 30.712 76.2551 30.8667 76.3831 30.984C76.5218 31.1013 76.6818 31.16 76.8631 31.16C77.0551 31.16 77.2205 31.096 77.3591 30.968C77.5085 30.8507 77.6098 30.696 77.6631 30.504C77.6845 30.4293 77.6898 30.3493 77.6791 30.264C77.6791 30.1787 77.6791 30.0933 77.6791 30.008C77.6791 29.5387 77.6845 29.0747 77.6951 28.616C77.7165 28.1467 77.7271 27.672 77.7271 27.192C77.7271 25.8373 77.7111 24.4933 77.6791 23.16C77.6578 21.816 77.6258 20.4667 77.5831 19.112C77.5831 19.0373 77.5831 18.92 77.5831 18.76C77.5831 18.5893 77.5778 18.4187 77.5671 18.248C77.5565 18.0667 77.5458 17.9013 77.5351 17.752C77.5245 17.6027 77.5138 17.5067 77.5031 17.464C77.4498 17.3253 77.3645 17.2187 77.2471 17.144C77.1405 17.0693 77.0125 17.032 76.8631 17.032C76.6605 17.032 76.4738 17.1067 76.3031 17.256C76.1431 17.4053 76.0631 17.5867 76.0631 17.8C76.0631 18.3333 76.0738 18.8613 76.0951 19.384C76.1165 19.9067 76.1378 20.4347 76.1591 20.968C76.2018 22.1627 76.2231 23.3573 76.2231 24.552C76.2338 25.736 76.2391 26.9253 76.2391 28.12ZM66.3671 19.224C66.8791 19.224 67.3911 19.2187 67.9031 19.208C68.4258 19.1973 68.9431 19.1813 69.4551 19.16C69.6898 19.1493 69.9191 19.1387 70.1431 19.128C70.3778 19.1173 70.6125 19.112 70.8471 19.112H71.1351C71.1885 19.112 71.2365 19.112 71.2791 19.112C71.3218 19.112 71.3698 19.1173 71.4231 19.128C71.4338 19.1707 71.4391 19.2133 71.4391 19.256C71.4498 19.288 71.4551 19.3307 71.4551 19.384C71.4551 19.6827 71.4231 19.9813 71.3591 20.28C71.2951 20.568 71.2205 20.856 71.1351 21.144C70.8471 22.1787 70.4685 23.1653 69.9991 24.104C69.5405 25.0427 68.9591 25.9227 68.2551 26.744C68.0738 26.9467 67.8871 27.144 67.6951 27.336C67.5138 27.528 67.3218 27.7147 67.1191 27.896C67.0338 27.9707 66.9431 28.04 66.8471 28.104C66.7511 28.168 66.6658 28.2427 66.5911 28.328C66.4631 28.4773 66.3991 28.6373 66.3991 28.808C66.3991 29 66.4631 29.1547 66.5911 29.272C66.7298 29.3893 66.8898 29.448 67.0711 29.448C67.1778 29.448 67.2898 29.416 67.4071 29.352C67.5245 29.2987 67.6365 29.2293 67.7431 29.144C67.8605 29.0587 67.9671 28.968 68.0631 28.872C68.1591 28.776 68.2498 28.6907 68.3351 28.616C69.3805 27.6453 70.2498 26.5467 70.9431 25.32C71.6471 24.0933 72.1858 22.7973 72.5591 21.432C72.6658 21.0693 72.7565 20.7067 72.8311 20.344C72.9058 19.9707 72.9431 19.5973 72.9431 19.224C72.9431 18.9893 72.8898 18.7387 72.7831 18.472C72.7085 18.28 72.6018 18.136 72.4631 18.04C72.3351 17.9333 72.1911 17.8587 72.0311 17.816C71.8711 17.7627 71.7005 17.7307 71.5191 17.72C71.3378 17.7093 71.1618 17.704 70.9911 17.704C70.6178 17.704 70.2445 17.7147 69.8711 17.736C69.4978 17.7573 69.1245 17.7787 68.7511 17.8H67.6631C67.5885 17.8 67.4818 17.8 67.3431 17.8C67.2045 17.8 67.0605 17.8053 66.9111 17.816C66.7725 17.816 66.6338 17.8213 66.4951 17.832C66.3671 17.8427 66.2711 17.8587 66.2071 17.88C66.0578 17.9333 65.9351 18.024 65.8391 18.152C65.7431 18.28 65.6951 18.424 65.6951 18.584C65.6951 18.776 65.7591 18.9307 65.8871 19.048C66.0258 19.1653 66.1858 19.224 66.3671 19.224Z" fill="#2A3524"/>
<rect x="1" y="1" width="94" height="46" rx="22" stroke="#5BF2AA" stroke-width="2"/>
</svg>
