<svg width="37" height="36" viewBox="0 0 37 36" fill="none" xmlns="http://www.w3.org/2000/svg">
<path d="M5.55002 27.4528V26.5568C5.61588 25.6608 5.55002 24.7329 5.74741 23.8688C6.14198 22.2366 7.4576 21.1807 9.20067 21.0846C10.7465 21.0206 12.2594 21.0527 13.805 21.0527C14.1339 21.0527 14.4956 21.0527 14.8246 20.9886C15.7126 20.8287 16.2059 20.3167 16.4361 19.4845C16.7978 18.1725 16.5676 16.9246 15.877 15.7724C15.4165 15.0364 14.8902 14.3005 14.3641 13.6285C13.0156 11.9325 12.8841 10.0765 13.7063 8.15647C14.3313 6.62045 15.6798 5.82048 17.3241 5.50044C18.508 5.27645 19.6594 5.43636 20.7446 5.88435C23.8361 7.16446 24.2965 11.1645 22.685 13.3086C22.0602 14.1726 21.4024 15.0367 20.8433 15.9326C20.2513 16.8927 20.0539 17.9486 20.2513 19.0366C20.5144 20.4766 21.3037 21.0845 22.7837 21.0525C23.8691 21.0206 24.9872 20.9884 26.0726 20.9884C26.6974 20.9884 27.3553 20.9884 27.9472 21.0845C29.7561 21.4045 30.9072 22.5564 31.1046 24.3484C31.2033 25.3085 31.1704 26.3005 31.1704 27.2925C31.1704 27.3244 31.1376 27.3566 31.1376 27.4204C22.6519 27.4528 14.134 27.4528 5.54999 27.4528L5.55002 27.4528Z" fill="#14CD8A"/>
<path d="M29.9864 28.3167C29.9864 28.6687 30.0193 29.0207 29.9864 29.3406C29.9206 29.9485 29.4932 30.3007 28.8354 30.3007H19.8565H8.11535C7.16165 30.3007 6.79968 29.9487 6.79968 29.0527V28.3488C14.5285 28.3167 22.2245 28.3167 29.9865 28.3167L29.9864 28.3167Z" fill="#14CD8A"/>
</svg>
