<svg width="80" height="60" viewBox="0 0 80 60" fill="none" xmlns="http://www.w3.org/2000/svg">
<path d="M18.0188 24.403C17.7675 24.477 17.3654 24.5509 16.8125 24.6249C16.2848 24.6988 15.7319 24.7358 15.1539 24.7358C14.601 24.7358 14.0984 24.6988 13.646 24.6249C13.2188 24.5509 12.8544 24.403 12.5529 24.1812C12.2513 23.9593 12.0125 23.6635 11.8366 23.2938C11.6858 22.8994 11.6104 22.3941 11.6104 21.7778V13.5696C11.6104 12.5589 11.3466 11.8564 10.8188 11.462C10.3162 11.043 9.68794 10.8335 8.93401 10.8335C8.4314 10.8335 7.95391 10.8951 7.50156 11.0183C7.0492 11.1416 6.6848 11.2895 6.40836 11.462V24.403C6.15706 24.477 5.75496 24.5509 5.20208 24.6249C4.67434 24.6988 4.12146 24.7358 3.54345 24.7358C2.99057 24.7358 2.48795 24.6988 2.0356 24.6249C1.60837 24.5509 1.24398 24.403 0.942406 24.1812C0.640836 23.9593 0.402093 23.6635 0.226178 23.2938C0.0753925 22.8994 0 22.3941 0 21.7778V0.332769C0.276439 0.283469 0.678533 0.221845 1.20628 0.147897C1.75916 0.0492992 2.31204 0 2.86492 0C3.41779 0 3.90785 0.0369739 4.33507 0.110921C4.78743 0.184871 5.16439 0.332768 5.46596 0.554613C5.76753 0.776459 5.99371 1.08458 6.14449 1.47897C6.32041 1.84871 6.40836 2.3417 6.40836 2.95794V6.58142C6.73506 6.45817 7.22512 6.3226 7.87852 6.1747C8.55705 6.00216 9.29841 5.91588 10.1026 5.91588C12.5906 5.91588 14.5256 6.53212 15.9078 7.7646C17.3151 8.97242 18.0188 10.7842 18.0188 13.1998V24.403Z" fill="#F2FFA5"/>
<path d="M29.8163 20.4468C30.2435 20.4468 30.7084 20.4098 31.211 20.3358C31.7388 20.2373 32.1283 20.114 32.3796 19.9661V17.0082L29.6655 17.23C28.9618 17.2793 28.3838 17.4272 27.9315 17.6737C27.4791 17.9202 27.2529 18.2899 27.2529 18.7829C27.2529 19.2759 27.4414 19.6826 27.8184 20.0031C28.2205 20.2989 28.8864 20.4468 29.8163 20.4468ZM29.5147 5.91588C30.8718 5.91588 32.1032 6.05146 33.2089 6.3226C34.3398 6.59374 35.2948 7.01279 36.0738 7.57973C36.878 8.12201 37.4937 8.82453 37.921 9.68726C38.3482 10.5253 38.5618 11.5236 38.5618 12.6822V20.9644C38.5618 21.6053 38.3733 22.1353 37.9964 22.5543C37.6445 22.9487 37.2173 23.2938 36.7147 23.5896C35.0812 24.5509 32.7817 25.0316 29.8163 25.0316C28.4843 25.0316 27.2781 24.9083 26.1974 24.6618C25.1419 24.4153 24.2247 24.0456 23.4456 23.5526C22.6917 23.0596 22.1011 22.4311 21.6739 21.6669C21.2718 20.9028 21.0707 20.0154 21.0707 19.0048C21.0707 17.304 21.5859 15.9975 22.6163 15.0855C23.6466 14.1735 25.2425 13.6065 27.4037 13.3847L32.3419 12.867V12.6082C32.3419 11.8934 32.0152 11.3881 31.3618 11.0923C30.7335 10.7718 29.8163 10.6116 28.61 10.6116C27.655 10.6116 26.7252 10.7102 25.8205 10.9074C24.9158 11.1046 24.099 11.3511 23.3702 11.6469C23.0435 11.4251 22.7671 11.0923 22.5409 10.6486C22.3147 10.1802 22.2016 9.69958 22.2016 9.20659C22.2016 8.56571 22.3524 8.06039 22.654 7.69065C22.9807 7.29626 23.4707 6.96349 24.1241 6.69234C24.8529 6.4212 25.7074 6.224 26.6875 6.10076C27.6927 5.97751 28.6351 5.91588 29.5147 5.91588Z" fill="#F2FFA5"/>
<path d="M54.2897 23.9593C53.9379 24.2305 53.4227 24.4523 52.7441 24.6249C52.0656 24.7974 51.2991 24.8837 50.4447 24.8837C49.4646 24.8837 48.6101 24.7604 47.8813 24.5139C47.1777 24.2674 46.6876 23.8731 46.4112 23.3308C46.185 22.9117 45.9085 22.3325 45.5818 21.593C45.2803 20.8288 44.9536 19.9908 44.6017 19.0787C44.2499 18.142 43.8855 17.1437 43.5086 16.0838C43.1316 15.0239 42.7672 13.9763 42.4154 12.941C42.0887 11.9057 41.7871 10.9074 41.5106 9.94608C41.2342 8.98475 41.008 8.13434 40.8321 7.39485C41.1839 7.04976 41.6489 6.75397 42.2269 6.50747C42.83 6.23633 43.4834 6.10076 44.1871 6.10076C45.0667 6.10076 45.7829 6.28563 46.3358 6.65537C46.9138 7.00046 47.341 7.666 47.6174 8.65198L49.0876 14.309C49.364 15.4183 49.6279 16.4289 49.8792 17.3409C50.1305 18.2283 50.319 18.9185 50.4447 19.4115H50.6331C51.1106 17.5874 51.6132 15.5662 52.141 13.3477C52.6687 11.1293 53.1462 8.94777 53.5734 6.80327C54.0007 6.58142 54.4782 6.40887 55.0059 6.28563C55.5588 6.16238 56.0865 6.10076 56.5892 6.10076C57.4687 6.10076 58.2101 6.28563 58.8132 6.65537C59.4164 7.02511 59.7179 7.666 59.7179 8.57803C59.7179 8.97242 59.6174 9.55169 59.4164 10.3158C59.2405 11.0553 59.0017 11.9057 58.7001 12.867C58.4237 13.8037 58.0844 14.802 57.6823 15.862C57.3054 16.9219 56.9159 17.9572 56.5138 18.9678C56.1117 19.9784 55.7096 20.9274 55.3075 21.8148C54.9305 22.6776 54.5913 23.3924 54.2897 23.9593Z" fill="#F2FFA5"/>
<path d="M72.0838 25.0316C70.6011 25.0316 69.2189 24.8344 67.9372 24.44C66.6806 24.021 65.5749 23.4047 64.6199 22.5913C63.6901 21.7778 62.9487 20.7549 62.3958 19.5224C61.8681 18.2899 61.6042 16.8479 61.6042 15.1964C61.6042 13.5696 61.8681 12.1769 62.3958 11.0183C62.9487 9.83516 63.665 8.87383 64.5445 8.13434C65.4241 7.37021 66.4293 6.81559 67.5602 6.4705C68.6911 6.10075 69.8471 5.91588 71.0283 5.91588C72.3602 5.91588 73.5665 6.11308 74.6471 6.50747C75.7529 6.90187 76.6953 7.44415 77.4743 8.13434C78.2785 8.82453 78.8942 9.65028 79.3215 10.6116C79.7738 11.5729 80 12.6206 80 13.7544C80 14.5925 79.7613 15.2334 79.2838 15.6771C78.8063 16.1208 78.1403 16.4043 77.2859 16.5275L67.9749 17.8955C68.2513 18.709 68.8168 19.3252 69.6712 19.7443C70.5257 20.1387 71.5058 20.3358 72.6115 20.3358C73.6419 20.3358 74.6094 20.2126 75.5141 19.9661C76.444 19.695 77.1979 19.3868 77.7759 19.0417C78.178 19.2882 78.5173 19.6333 78.7937 20.077C79.0702 20.5207 79.2084 20.9891 79.2084 21.4821C79.2084 22.5913 78.6806 23.417 77.6251 23.9593C76.8209 24.3784 75.9162 24.6618 74.911 24.8097C73.9058 24.9576 72.9634 25.0316 72.0838 25.0316ZM71.0283 10.5007C70.4251 10.5007 69.8974 10.5993 69.445 10.7965C69.0178 10.9937 68.666 11.2525 68.3896 11.5729C68.1131 11.8687 67.8995 12.2138 67.7487 12.6082C67.6231 12.978 67.5477 13.36 67.5225 13.7544L73.9686 12.7191C73.8932 12.2262 73.6168 11.7332 73.1393 11.2402C72.6618 10.7472 71.9581 10.5007 71.0283 10.5007Z" fill="#F2FFA5"/>
<path d="M47.0237 52.9009C47.0237 53.5418 47.2248 53.9978 47.6269 54.269C48.0541 54.5401 48.6447 54.6757 49.3986 54.6757C49.7756 54.6757 50.1651 54.6511 50.5672 54.6018C50.9693 54.5278 51.3211 54.4415 51.6227 54.3429C51.8489 54.6141 52.0373 54.9222 52.1881 55.2673C52.364 55.5877 52.452 55.9821 52.452 56.4505C52.452 57.3871 52.0876 58.1513 51.3588 58.7429C50.6551 59.3345 49.3986 59.6303 47.5892 59.6303C45.3777 59.6303 43.6688 59.1373 42.4625 58.1513C41.2813 57.1653 40.6908 55.5631 40.6908 53.3446V43.4032V37.5196C40.9672 37.4457 41.3567 37.3717 41.8593 37.2978C42.3871 37.1992 42.94 37.1499 43.518 37.1499C44.6237 37.1499 45.4782 37.3471 46.0813 37.7415C46.7096 38.1112 47.0237 38.9123 47.0237 40.1448V42.5112H51.9619C52.1127 42.7823 52.2509 43.1274 52.3766 43.5464C52.5274 43.9408 52.6028 44.3845 52.6028 44.8775C52.6028 45.7403 52.4017 46.3688 51.9996 46.7632C51.6227 47.133 51.1075 47.3178 50.4541 47.3178H47.0237V52.9009Z" fill="#F2FFA5"/>
<path d="M37.2047 56.6445C37.2047 57.589 36.867 58.3844 36.1914 59.0307C35.4888 59.6769 34.57 60 33.4351 60C32.3002 60 31.3949 59.6769 30.7194 59.0307C30.0168 58.3844 29.6655 57.589 29.6655 56.6445C29.6655 55.7 30.0168 54.9047 30.7194 54.2584C31.3949 53.6122 32.3002 53.2891 33.4351 53.2891C34.57 53.2891 35.4888 53.6122 36.1914 54.2584C36.867 54.9047 37.2047 55.7 37.2047 56.6445ZM29.9897 33.5292C30.287 33.4795 30.7329 33.4174 31.3274 33.3428C31.8948 33.2434 32.4758 33.1937 33.0703 33.1937C33.6648 33.1937 34.2052 33.2309 34.6917 33.3055C35.151 33.3801 35.5429 33.5292 35.8671 33.7529C36.1914 33.9766 36.4481 34.2749 36.6373 34.6477C36.7994 35.0454 36.8805 35.5549 36.8805 36.1763V51.3504C36.5832 51.4001 36.1509 51.4622 35.5834 51.5368C34.9889 51.6362 34.3944 51.6859 33.7999 51.6859C33.2054 51.6859 32.6785 51.6487 32.2191 51.5741C31.7327 51.4995 31.3274 51.3504 31.0031 51.1267C30.6788 50.903 30.4356 50.5923 30.2735 50.1946C30.0843 49.8218 29.9897 49.3247 29.9897 48.7033V33.5292Z" fill="#F2FFA5"/>
</svg>
