<svg width="26" height="14" viewBox="0 0 26 14" fill="none" xmlns="http://www.w3.org/2000/svg">
<path d="M9.884 7.528C10.0613 7.528 10.22 7.46267 10.36 7.332C10.5093 7.20133 10.584 7.04267 10.584 6.856C10.584 6.72533 10.5793 6.59467 10.57 6.464C10.5607 6.324 10.5513 6.18867 10.542 6.058C10.5327 5.93667 10.5233 5.736 10.514 5.456C10.514 5.16667 10.5047 4.83533 10.486 4.462L10.962 4.448H11.298L11.97 4.462H12.306C12.4833 4.462 12.642 4.39667 12.782 4.266C12.9313 4.13533 13.006 3.97667 13.006 3.79C13.006 3.65 12.9593 3.52867 12.866 3.426C12.782 3.32333 12.67 3.26267 12.53 3.244C12.4647 3.22533 12.3993 3.22067 12.334 3.23C12.2687 3.23 12.2033 3.23 12.138 3.23H11.242L10.57 3.216H10.444C10.4253 2.908 10.4067 2.614 10.388 2.334C10.3787 2.04467 10.3647 1.788 10.346 1.564C10.3367 1.33067 10.3227 1.13933 10.304 0.99C10.2947 0.840666 10.2807 0.747333 10.262 0.71C10.15 0.485999 9.968 0.373999 9.716 0.373999C9.53867 0.373999 9.37533 0.439332 9.226 0.569999C9.086 0.700666 9.016 0.859333 9.016 1.046C9.016 1.16733 9.02067 1.28867 9.03 1.41C9.03933 1.522 9.04867 1.63867 9.058 1.76C9.07667 1.97467 9.09067 2.18933 9.1 2.404C9.10933 2.60933 9.11867 2.81933 9.128 3.034C9.128 3.12733 9.13267 3.29067 9.142 3.524C9.15133 3.75733 9.16067 4.02333 9.17 4.322C9.17933 4.61133 9.18867 4.91933 9.198 5.246C9.20733 5.56333 9.21667 5.862 9.226 6.142C9.24467 6.41267 9.25867 6.646 9.268 6.842C9.28667 7.02867 9.30533 7.14067 9.324 7.178C9.436 7.41133 9.62267 7.528 9.884 7.528ZM0.504 6.842C0.504 7.01 0.56 7.14533 0.672 7.248C0.793333 7.35067 0.933333 7.402 1.092 7.402C1.25067 7.402 1.4 7.346 1.54 7.234C1.58667 7.19667 1.68 7.09867 1.82 6.94C1.96 6.78133 2.12333 6.59467 2.31 6.38C2.49667 6.16533 2.69267 5.932 2.898 5.68C3.10333 5.428 3.29467 5.19467 3.472 4.98C3.64933 5.176 3.822 5.35333 3.99 5.512C4.16733 5.66133 4.34467 5.806 4.522 5.946C4.69933 6.086 4.886 6.22133 5.082 6.352C5.28733 6.47333 5.51133 6.59933 5.754 6.73C5.85667 6.786 5.95933 6.842 6.062 6.898C6.16467 6.954 6.27667 6.982 6.398 6.982C6.57533 6.982 6.734 6.91667 6.874 6.786C7.02333 6.65533 7.098 6.49667 7.098 6.31C7.098 6.198 7.07 6.10467 7.014 6.03C6.96733 5.95533 6.90667 5.89467 6.832 5.848C6.75733 5.792 6.67333 5.74533 6.58 5.708C6.496 5.67067 6.412 5.62867 6.328 5.582C6.00133 5.414 5.69333 5.22267 5.404 5.008C5.124 4.784 4.858 4.53667 4.606 4.266C4.55933 4.21933 4.50333 4.15867 4.438 4.084C4.382 4 4.31667 3.92067 4.242 3.846C4.382 3.49133 4.48933 3.12267 4.564 2.74C4.63867 2.348 4.71333 1.96533 4.788 1.592C4.80667 1.508 4.82533 1.424 4.844 1.34C4.86267 1.256 4.872 1.172 4.872 1.088C4.872 0.92 4.81133 0.784666 4.69 0.681999C4.578 0.579333 4.44267 0.528 4.284 0.528C4.144 0.528 4.00867 0.574666 3.878 0.668C3.75667 0.752 3.67267 0.859333 3.626 0.99C3.598 1.06467 3.57933 1.144 3.57 1.228C3.56067 1.30267 3.54667 1.37733 3.528 1.452C3.5 1.61067 3.46267 1.79267 3.416 1.998C3.37867 2.20333 3.33667 2.41333 3.29 2.628C3.24333 2.83333 3.18733 3.034 3.122 3.23C3.066 3.41667 3.00533 3.58 2.94 3.72C2.87467 3.84133 2.79067 3.958 2.688 4.07C2.59467 4.17267 2.506 4.27533 2.422 4.378C2.20733 4.62067 1.99733 4.86333 1.792 5.106C1.596 5.33933 1.39533 5.57733 1.19 5.82C1.08733 5.94133 0.98 6.058 0.868 6.17C0.756 6.282 0.662667 6.40333 0.588 6.534C0.532 6.63667 0.504 6.73933 0.504 6.842ZM2.632 9.67C3.39733 9.67 4.16267 9.656 4.928 9.628C5.69333 9.59067 6.45867 9.55333 7.224 9.516C7.504 9.49733 7.784 9.47867 8.064 9.46C8.344 9.44133 8.62867 9.432 8.918 9.432C8.974 9.432 9.06733 9.44133 9.198 9.46C9.338 9.46933 9.422 9.51133 9.45 9.586C9.45933 9.60467 9.464 9.63733 9.464 9.684C9.464 9.72133 9.464 9.74933 9.464 9.768C9.464 9.98267 9.45467 10.1927 9.436 10.398C9.42667 10.594 9.41733 10.7947 9.408 11V11.238L9.394 11.7V11.924C9.38467 12.0453 9.37533 12.162 9.366 12.274C9.35667 12.386 9.352 12.5027 9.352 12.624C9.352 12.792 9.408 12.9273 9.52 13.03C9.64133 13.1327 9.78133 13.184 9.94 13.184C10.0613 13.184 10.1827 13.1467 10.304 13.072C10.4907 12.96 10.598 12.8107 10.626 12.624C10.654 12.4373 10.6727 12.246 10.682 12.05C10.6913 11.9007 10.696 11.7513 10.696 11.602C10.696 11.4527 10.696 11.2987 10.696 11.14C10.7053 10.9067 10.7147 10.678 10.724 10.454C10.7427 10.2207 10.752 9.98733 10.752 9.754C10.752 9.65133 10.7473 9.55333 10.738 9.46C10.738 9.35733 10.724 9.25467 10.696 9.152C10.6493 8.97467 10.5653 8.82533 10.444 8.704C10.332 8.58267 10.1967 8.48467 10.038 8.41C9.88867 8.33533 9.72533 8.284 9.548 8.256C9.38 8.21867 9.212 8.2 9.044 8.2C8.77333 8.2 8.50267 8.20933 8.232 8.228C7.97067 8.24667 7.70467 8.26533 7.434 8.284C6.83667 8.312 6.244 8.34 5.656 8.368C5.068 8.38667 4.47533 8.40533 3.878 8.424C3.80333 8.424 3.70067 8.424 3.57 8.424C3.44867 8.424 3.318 8.42867 3.178 8.438C3.038 8.438 2.90733 8.44267 2.786 8.452C2.66467 8.452 2.576 8.46133 2.52 8.48C2.38933 8.52667 2.27733 8.61067 2.184 8.732C2.09067 8.844 2.044 8.97 2.044 9.11C2.044 9.278 2.1 9.41333 2.212 9.516C2.33333 9.61867 2.47333 9.67 2.632 9.67ZM24.3136 12.89C24.491 12.89 24.6496 12.8247 24.7896 12.694C24.939 12.5727 25.0136 12.4187 25.0136 12.232C25.0136 11.616 25.0043 11.0093 24.9856 10.412C24.967 9.80533 24.9483 9.194 24.9296 8.578C24.8923 7.35533 24.855 6.13733 24.8176 4.924C24.7803 3.70133 24.743 2.474 24.7056 1.242C24.7056 1.05533 24.6683 0.892 24.5936 0.751999C24.519 0.611999 24.3603 0.541999 24.1176 0.541999C23.931 0.541999 23.763 0.607333 23.6136 0.737999C23.4736 0.859333 23.4036 1.01333 23.4036 1.2C23.4036 1.40533 23.4083 1.606 23.4176 1.802C23.427 1.998 23.4363 2.194 23.4456 2.39L23.5156 4.798C23.5436 5.638 23.567 6.47333 23.5856 7.304C23.6136 8.13467 23.637 8.97 23.6556 9.81C23.6743 10.2113 23.6836 10.608 23.6836 11C23.693 11.4013 23.707 11.8027 23.7256 12.204C23.735 12.4 23.777 12.5633 23.8516 12.694C23.9263 12.8247 24.0803 12.89 24.3136 12.89ZM21.0796 1.214V3.874L21.0936 4.63C21.0656 4.63 21.0376 4.63467 21.0096 4.644C20.9816 4.644 20.9536 4.644 20.9256 4.644H20.5756C20.5476 4.644 20.5196 4.64867 20.4916 4.658C20.4636 4.658 20.4356 4.658 20.4076 4.658L19.8056 4.686C19.6283 4.69533 19.465 4.714 19.3156 4.742C19.1756 4.76067 19.0496 4.84933 18.9376 5.008C18.863 5.11067 18.8256 5.22733 18.8256 5.358C18.8256 5.526 18.8816 5.66133 18.9936 5.764C19.115 5.86667 19.255 5.918 19.4136 5.918C19.6283 5.918 19.8383 5.91333 20.0436 5.904C20.2583 5.89467 20.473 5.88533 20.6876 5.876L21.0936 5.862L21.1216 9.208V11.882C21.1216 12.0687 21.1683 12.218 21.2616 12.33C21.3643 12.4513 21.5136 12.512 21.7096 12.512C21.8963 12.512 22.0596 12.4467 22.1996 12.316C22.349 12.1853 22.4236 12.0267 22.4236 11.84V9.18L22.3816 3.846V1.186C22.3816 0.999333 22.3303 0.85 22.2276 0.737999C22.1343 0.616666 21.9896 0.555999 21.7936 0.555999C21.607 0.555999 21.439 0.621333 21.2896 0.751999C21.1496 0.873333 21.0796 1.02733 21.0796 1.214ZM17.4816 2.362C17.435 2.88467 17.337 3.44933 17.1876 4.056C17.0383 4.65333 16.847 5.25067 16.6136 5.848C16.3896 6.436 16.1283 7.00067 15.8296 7.542C15.5403 8.08333 15.223 8.55467 14.8776 8.956C14.7843 9.05867 14.6863 9.166 14.5836 9.278C14.481 9.38067 14.3736 9.48333 14.2616 9.586C14.187 9.642 14.1076 9.70267 14.0236 9.768C13.9396 9.824 13.8603 9.88933 13.7856 9.964C13.711 10.0293 13.6456 10.104 13.5896 10.188C13.543 10.2627 13.5196 10.356 13.5196 10.468C13.5196 10.636 13.5756 10.7713 13.6876 10.874C13.7996 10.9767 13.935 11.028 14.0936 11.028C14.187 11.028 14.285 11.0047 14.3876 10.958C14.4903 10.9113 14.5883 10.8553 14.6816 10.79C14.775 10.7153 14.8636 10.6407 14.9476 10.566C15.0316 10.482 15.1063 10.412 15.1716 10.356C15.5076 10.0387 15.811 9.70733 16.0816 9.362C16.3616 9.00733 16.6183 8.634 16.8516 8.242C17.1036 8.53133 17.365 8.80667 17.6356 9.068C17.9063 9.32933 18.191 9.58133 18.4896 9.824C18.5643 9.89867 18.6436 9.96867 18.7276 10.034C18.8116 10.0993 18.9003 10.1553 18.9936 10.202C19.1056 10.2487 19.2036 10.272 19.2876 10.272C19.4743 10.272 19.6376 10.2067 19.7776 10.076C19.927 9.94533 20.0016 9.78667 20.0016 9.6C20.0016 9.46933 19.955 9.348 19.8616 9.236C19.8056 9.16133 19.7356 9.10067 19.6516 9.054C19.577 9.00733 19.5023 8.956 19.4276 8.9C19.269 8.76933 19.1103 8.63867 18.9516 8.508C18.8023 8.368 18.653 8.22333 18.5036 8.074C18.345 7.91533 18.191 7.752 18.0416 7.584C17.8923 7.416 17.743 7.248 17.5936 7.08L17.5096 6.954C17.715 6.48733 17.8923 6.016 18.0416 5.54C18.2003 5.064 18.3403 4.57867 18.4616 4.084C18.5363 3.75733 18.6063 3.43067 18.6716 3.104C18.7463 2.77733 18.7836 2.446 18.7836 2.11C18.7836 1.97 18.7603 1.82533 18.7136 1.676C18.6763 1.51733 18.5923 1.396 18.4616 1.312C18.4056 1.26533 18.345 1.23733 18.2796 1.228C18.2236 1.20933 18.1583 1.19533 18.0836 1.186C17.7756 1.13 17.463 1.102 17.1456 1.102C16.8283 1.102 16.5156 1.09733 16.2076 1.088C16.0023 1.07867 15.797 1.074 15.5916 1.074C15.3956 1.06467 15.195 1.05067 14.9896 1.032C14.887 1.02267 14.7843 1.01333 14.6816 1.004C14.579 0.994666 14.4763 0.99 14.3736 0.99C14.187 0.99 14.019 1.05533 13.8696 1.186C13.7296 1.31667 13.6596 1.47533 13.6596 1.662C13.6596 1.87667 13.767 2.04467 13.9816 2.166C14.019 2.18467 14.1216 2.20333 14.2896 2.222C14.4576 2.23133 14.6536 2.24533 14.8776 2.264C15.111 2.27333 15.363 2.28267 15.6336 2.292C15.9043 2.30133 16.161 2.31067 16.4036 2.32C16.6463 2.32933 16.8656 2.33867 17.0616 2.348C17.2576 2.348 17.3976 2.35267 17.4816 2.362Z" fill="#FF3737"/>
</svg>
