<svg width="24" height="24" viewBox="0 0 24 24" fill="none" xmlns="http://www.w3.org/2000/svg">
<path d="M12.4826 23C9.8098 23 7.45281 21.7507 6.17872 19.6581C5.2926 18.2031 4.91907 16.5515 4.67058 15.1275L4.66978 15.1234C4.60445 14.726 4.54514 14.434 4.48783 14.1514L4.45176 13.9735C4.3728 13.5797 4.29144 13.1729 4.20768 12.5556L4.01931 11.1882C3.94517 10.6596 4.08664 10.1124 4.40687 9.68804C4.7323 9.24907 5.22607 8.9567 5.76231 8.88544L6.01721 8.84961C6.11059 8.83617 6.20758 8.82925 6.30337 8.82925C6.56628 8.82925 6.82158 8.87933 7.05844 8.97543V5.22344C7.06285 4.67005 7.27767 4.15452 7.66282 3.76849C8.04516 3.38531 8.55175 3.17438 9.0888 3.17438H9.36013C9.6046 3.17438 9.84307 3.21754 10.0675 3.30143C10.1821 3.00946 10.3617 2.74559 10.5957 2.5314C10.9705 2.18894 11.4542 2 11.958 2H12.2381C12.77 2 13.2726 2.20727 13.6537 2.58434C13.8926 2.82011 14.0673 3.10597 14.1679 3.41911C14.3779 3.34622 14.5991 3.30876 14.8256 3.30876H15.1041C15.6404 3.30876 16.1462 3.51928 16.5285 3.90165C16.9137 4.28727 17.1289 4.80198 17.1341 5.3513V5.85257C17.3144 5.80045 17.5024 5.77398 17.694 5.77398H18.1457L18.1525 5.78213C18.6206 5.82366 19.0566 6.02767 19.3953 6.36647C19.7808 6.7525 19.9957 7.26761 20.0001 7.81775V14.6621C20.0001 17.1045 19.6674 19.0827 18.0435 20.7978L18.0382 20.8031C16.987 21.8724 15.6568 22.5737 14.1915 22.8314C13.6301 22.943 13.0549 22.9996 12.483 23H12.4826ZM5.66813 12.3434C5.75069 12.9465 5.82443 13.3101 5.9098 13.7312L5.91261 13.7458C5.98394 14.0936 6.04927 14.4185 6.12382 14.8661C6.34705 16.1508 6.6769 17.633 7.43117 18.8624C8.43993 20.5156 10.3292 21.5023 12.4858 21.5023C12.9571 21.5023 13.4377 21.4551 13.9142 21.3618L13.9226 21.3602C15.0873 21.1586 16.1446 20.6044 16.9806 19.757C18.2619 18.4047 18.5244 16.7421 18.5244 14.6629L18.5228 7.82589C18.52 7.67685 18.4607 7.53759 18.3557 7.43334C18.2519 7.33073 18.1148 7.27413 17.9697 7.27413H17.6848C17.5397 7.27413 17.4026 7.33073 17.2984 7.43375C17.1934 7.53759 17.1341 7.67726 17.1313 7.82589V12.0458C17.1313 12.4591 16.8006 12.795 16.3938 12.795C15.987 12.795 15.6564 12.4591 15.6564 12.0458V5.36881C15.654 5.22018 15.5947 5.08092 15.4893 4.97708C15.3855 4.87406 15.2484 4.81746 15.1033 4.81746H14.8184C14.6733 4.81746 14.5362 4.87406 14.4324 4.97708C14.3274 5.08132 14.2681 5.22018 14.2653 5.36922V12.0445C14.2653 12.4579 13.9346 12.7938 13.5279 12.7938C13.1211 12.7938 12.7904 12.4579 12.7904 12.0445V4.05272C12.788 3.90531 12.7267 3.76198 12.6229 3.65936C12.5187 3.55593 12.3808 3.49933 12.2353 3.49933H11.9548C11.8093 3.49933 11.6714 3.55634 11.5668 3.65936C11.463 3.76198 11.4021 3.90531 11.3993 4.05313V12.0445C11.3993 12.4579 11.0687 12.7938 10.6619 12.7938C10.2551 12.7938 9.92443 12.4579 9.92443 12.0445V5.2271C9.92202 5.07807 9.86271 4.9384 9.7573 4.83415C9.6531 4.73072 9.51523 4.67371 9.36975 4.67371H9.0884C8.94291 4.67371 8.80505 4.73072 8.70084 4.83415C8.59584 4.9384 8.53652 5.07807 8.53372 5.22751V12.1431L8.6291 12.8748C9.69518 12.9966 10.6803 13.4873 11.4334 14.2772C12.2654 15.1499 12.7283 16.2998 12.7375 17.5145C12.7375 17.9307 12.4069 18.267 12.0001 18.267C11.5933 18.267 11.2642 17.9323 11.2626 17.5206C11.253 16.6635 10.916 15.8617 10.3136 15.2619C9.71923 14.6702 8.9337 14.3448 8.10167 14.3448H8.0656H7.97823C7.61032 14.3432 7.29771 14.0639 7.24881 13.6954L7.0404 12.174L6.87127 10.9223C6.86566 10.9015 6.86126 10.8803 6.85725 10.8596L6.85564 10.8514L6.85444 10.8429C6.85164 10.8229 6.84683 10.8034 6.84001 10.7842L6.81637 10.7175V10.689C6.77549 10.5945 6.71096 10.513 6.6276 10.4511C6.52901 10.3778 6.41278 10.3388 6.29094 10.3375H6.27772L6.26449 10.3363C6.25287 10.3355 6.24125 10.3351 6.22962 10.3351C6.22161 10.3351 6.21359 10.3351 6.20558 10.3359L5.9619 10.3705C5.81041 10.3913 5.67254 10.4727 5.58116 10.5945C5.4998 10.7032 5.46253 10.8425 5.47816 10.9785L5.66813 12.3434V12.3434Z" fill="#2A3524"/>
</svg>
