<svg width="86" height="86" viewBox="0 0 86 86" fill="none" xmlns="http://www.w3.org/2000/svg">
<path d="M86 43C86 64.5 64.5 86 43 86C21.5 86 0 64.5 0 43C0 21.5 21.5 0 43 0C64.5 0 86 21.5 86 43Z" fill="#4EEBA4"/>
<path fill-rule="evenodd" clip-rule="evenodd" d="M15.5 26C16.8807 26 18 27.0714 18 28.393V28.607C18 29.9286 16.8807 31 15.5 31C14.1193 31 13 29.9286 13 28.607V28.393C13 27.0714 14.1193 26 15.5 26Z" fill="#2A3524"/>
<path fill-rule="evenodd" clip-rule="evenodd" d="M37.5 26C38.8807 26 40 27.0714 40 28.393V28.607C40 29.9286 38.8807 31 37.5 31C36.1193 31 35 29.9286 35 28.607V28.393C35 27.0714 36.1193 26 37.5 26Z" fill="#2A3524"/>
<path fill-rule="evenodd" clip-rule="evenodd" d="M17.2106 39.3861C17.5497 38.9502 18.178 38.8716 18.6139 39.2107C19.9971 40.2865 22.4845 41.6024 25.3566 41.9837C28.1935 42.3605 31.3917 41.8285 34.3415 39.2475C34.7571 38.8838 35.3889 38.9259 35.7526 39.3415C36.1162 39.7572 36.0741 40.3889 35.6585 40.7526C32.2083 43.7716 28.4065 44.4063 25.0933 43.9663C21.8155 43.5311 19.0028 42.0469 17.386 40.7894C16.9501 40.4503 16.8716 39.8221 17.2106 39.3861Z" fill="#2A3524"/>
</svg>
