<svg width="24" height="24" viewBox="0 0 24 24" fill="none" xmlns="http://www.w3.org/2000/svg">
<path d="M19.6695 6.87237C18.8669 6.80164 18.15 7.40374 18.076 8.21068L17.6043 13.355C17.5827 13.558 17.1975 13.2718 17.216 13.0877L17.6796 4.27801C17.7222 3.46904 17.099 2.77387 16.2943 2.73316C15.4897 2.69248 14.7967 3.32077 14.754 4.12959L14.3433 11.9322C14.3175 12.1458 13.9228 12.041 13.9228 11.8559L14.1352 2.50448C14.1533 1.69458 13.5096 1.01794 12.704 1.00035C11.8987 0.98276 11.2247 1.63083 11.2064 2.44055L10.9927 11.8502C10.9927 12.0054 10.6432 12.0684 10.6432 11.9108L10.6434 3.80757C10.6434 2.99748 9.98437 2.33491 9.17885 2.33491C8.37333 2.33491 7.7143 2.99748 7.7143 3.80757V13.0554C7.7143 13.5794 7.14717 13.8592 7.07769 13.5072L6.32989 10.2153C6.09807 9.19375 5.17078 8.51908 4.27 8.71586C3.36884 8.91283 2.82114 9.90979 3.05336 10.9312L4.7927 18.5897C4.82707 18.7405 4.87657 18.8834 4.93859 19.017C5.60753 21.8542 8.71167 24 12.4405 24C16.3576 24 19.5851 21.6323 20.025 18.5822C20.062 18.4737 20.0873 18.3597 20.0981 18.241L20.9938 8.46786C21.0678 7.66091 20.4717 6.94299 19.6696 6.87207L19.6695 6.87237Z" fill="#D1D5D9"/>
</svg>
