<svg width="24" height="24" viewBox="0 0 24 24" fill="none" xmlns="http://www.w3.org/2000/svg">
<path d="M13.8777 24C12.9382 24 10.1911 23.8437 8.41267 23.1443V23.1471C8.41267 23.5733 8.08323 23.9199 7.67816 23.9199H3.73451C3.32944 23.9199 3 23.5733 3 23.1471V12.4338C3 12.2272 3.07655 12.0331 3.21507 11.8873C3.32898 11.7675 3.47433 11.6917 3.63108 11.6682L3.63335 11.6606H3.73451H7.6777C8.03676 11.6606 8.33703 11.9333 8.39991 12.2924C9.31668 12.0494 10.1719 11.5771 10.8832 10.9208C11.6806 10.0162 12.0957 8.79131 12.0223 7.55972V7.55061C12.0223 6.76486 12.7956 5.9748 13.6768 5.85974C13.7479 5.85063 13.8212 5.84584 13.8946 5.84584C14.517 5.84584 15.6416 6.18142 16.1788 8.42984L16.1806 8.43751C16.361 9.4179 16.4011 10.4165 16.2995 11.4084H18.5427C19.2959 11.4084 19.9994 11.7986 20.4254 12.4525C20.9604 13.2445 21.395 14.8002 20.4231 17.7035L19.3533 21.7621C19.2371 22.3906 18.9149 22.9611 18.4452 23.3681C17.9754 23.7756 17.3817 23.9995 16.7734 23.9995H13.8777V24ZM8.41267 21.4534C9.34948 22.0536 11.9626 22.4539 13.8777 22.4539H16.7684C17.0431 22.4539 17.3065 22.3537 17.5143 22.172C17.7234 21.9894 17.8651 21.7338 17.9139 21.452C17.9166 21.4381 17.9184 21.4275 17.9207 21.417C17.9225 21.4088 17.9271 21.3858 17.9271 21.3858L19.0147 17.2591C19.0161 17.2543 19.0175 17.249 19.0193 17.2432C19.0216 17.2341 19.0243 17.225 19.0266 17.2169C19.824 14.8505 19.4909 13.7949 19.264 13.4066L19.2216 13.3394C19.0699 13.0983 18.8152 12.9545 18.5399 12.9545C18.5327 12.9545 18.5254 12.9545 18.5176 12.9545H15.4639C15.2447 12.9545 15.0424 12.8548 14.9043 12.6807C14.764 12.5081 14.7034 12.279 14.7389 12.0532L14.7398 12.047C14.7526 11.9669 15.0415 10.0277 14.753 8.80617C14.5521 7.96434 14.2236 7.41014 13.9146 7.39288C13.7479 7.40151 13.5939 7.48829 13.4932 7.62683C13.5524 9.24291 12.9815 10.8389 11.9225 12.0124C10.8622 13.128 9.30984 13.6563 8.41176 13.8816V21.4534H8.41267ZM17.045 6.16944C16.9871 6.16944 16.9292 6.16225 16.8727 6.14787C16.6827 6.09945 16.5159 5.97096 16.4152 5.79502C16.3146 5.61908 16.2845 5.40383 16.3332 5.20439C16.3815 5.00544 16.5064 4.83189 16.675 4.72834L18.1212 3.81172C18.2356 3.73933 18.3663 3.70098 18.4989 3.70098C18.7555 3.70098 18.997 3.84432 19.1291 4.07539C19.3378 4.43974 19.2262 4.91531 18.8803 5.13584L18.8475 5.15645L17.4309 6.05342C17.3161 6.12869 17.1821 6.16896 17.0445 6.16896L17.045 6.16944ZM10.8891 6.16512C10.7552 6.16512 10.6239 6.12677 10.5096 6.0539L9.06106 5.1368C8.89383 5.0342 8.76899 4.86066 8.72069 4.66171C8.67193 4.46275 8.702 4.2475 8.80316 4.07156C8.90386 3.89513 9.07063 3.76665 9.26063 3.71871C9.31668 3.70433 9.37454 3.69714 9.43287 3.69714C9.57002 3.69714 9.70398 3.73741 9.82063 3.81364L11.2678 4.72978C11.6145 4.94983 11.7271 5.4254 11.5184 5.79023C11.4168 5.96713 11.2564 6.09225 11.0659 6.14211C11.008 6.15697 10.9488 6.16464 10.8891 6.16464V6.16512ZM13.9698 4.32516C13.5647 4.32516 13.2353 3.97855 13.2353 3.55236V1.7728C13.2353 1.34661 13.5647 1 13.9698 1C14.3748 1 14.7043 1.34661 14.7043 1.7728V3.55188C14.7043 3.97807 14.3748 4.32468 13.9698 4.32468V4.32516Z" fill="#2A3524"/>
</svg>
